<svg width="40" height="40" viewBox="0 0 40 40" fill="none" xmlns="http://www.w3.org/2000/svg">
  <rect width="40" height="40" rx="8" fill="#E2E8F0"/>
  <path d="M20 10C15.0294 10 11 14.0294 11 19C11 23.9706 15.0294 28 20 28C24.9706 28 29 23.9706 29 19C29 14.0294 24.9706 10 20 10ZM20 26C16.134 26 13 22.866 13 19C13 15.134 16.134 12 20 12C23.866 12 27 15.134 27 19C27 22.866 23.866 26 20 26Z" fill="#94A3B8"/>
  <path d="M20 15C19.4477 15 19 15.4477 19 16V22C19 22.5523 19.4477 23 20 23C20.5523 23 21 22.5523 21 22V16C21 15.4477 20.5523 15 20 15Z" fill="#94A3B8"/>
  <path d="M20 24C19.4477 24 19 24.4477 19 25C19 25.5523 19.4477 26 20 26C20.5523 26 21 25.5523 21 25C21 24.4477 20.5523 24 20 24Z" fill="#94A3B8"/>
</svg>
