<svg width="1024" height="1024" viewBox="0 0 1024 1024" fill="none" xmlns="http://www.w3.org/2000/svg">
<rect width="1024" height="1024" fill="#F5F5F5"/>
<g clip-path="url(#clip0_1039_771)">
<path d="M512 112C291.093 112 112 291.068 112 511.979C112 732.918 291.093 912 512 912C732.893 912 911.986 732.918 911.986 511.979C911.986 291.068 732.893 112 512 112Z" fill="#F5F5F5"/>
<path d="M512.221 167.2C321.668 167.2 167.199 321.672 167.199 512.228C167.199 702.769 321.668 857.24 512.221 857.24C702.773 857.24 857.228 702.769 857.228 512.228C857.228 321.672 702.773 167.2 512.221 167.2Z" fill="#BC2432"/>
<path d="M512.289 174.549C326.068 174.549 174.548 326.057 174.548 512.295C174.548 698.532 326.068 850.012 512.289 850.012C698.509 850.012 850.029 698.532 850.029 512.295C850.029 326.057 698.509 174.549 512.289 174.549ZM512.289 864.576C318.033 864.576 160 706.54 160 512.295C160 318.049 318.033 160 512.289 160C706.531 160 864.563 318.049 864.563 512.295C864.563 706.54 706.531 864.576 512.289 864.576Z" fill="#0C0A09"/>
<path d="M512.014 887.138C304.817 887.138 136.876 719.18 136.876 512.007C136.876 304.82 304.817 136.862 512.014 136.862C719.198 136.862 887.138 304.82 887.138 512.007C887.138 719.18 719.198 887.138 512.014 887.138ZM512.014 112C291.107 112 112 291.068 112 511.979C112 732.918 291.107 911.986 512.014 911.986C732.907 911.986 912 732.918 912 511.979C912 291.068 732.907 112 512.014 112Z" fill="#BC2432"/>
<path d="M512.236 146.182C310.391 146.182 146.196 310.394 146.196 512.229C146.196 714.077 310.391 878.261 512.236 878.261C714.067 878.261 878.276 714.077 878.276 512.229C878.276 310.394 714.067 146.182 512.236 146.182ZM512.236 896.458C300.357 896.458 128 724.098 128 512.229C128 300.374 300.357 128 512.236 128C724.115 128 896.458 300.374 896.458 512.229C896.458 724.098 724.115 896.458 512.236 896.458Z" fill="#0C0A09"/>
<path d="M517.118 520.876L510.487 522.831L506.97 513.832L513.937 511.805C514.391 511.659 514.812 511.571 515.25 511.498C515.451 511.455 515.654 511.411 515.855 511.382C516.31 511.309 516.764 511.266 517.168 511.266C518.229 511.266 519.138 511.513 519.895 511.936C520.114 512.024 520.299 512.155 520.501 512.286C520.803 512.519 521.073 512.767 521.325 513.059C521.427 513.176 521.511 513.35 521.595 513.482C521.814 513.818 522.032 514.153 522.2 514.576C523.278 517.347 521.494 519.578 517.118 520.876ZM502.931 503.521L509.78 501.538C510.907 501.187 511.935 501.027 512.793 501.027C513.651 501.027 514.391 501.203 514.98 501.523C515.065 501.582 515.166 501.625 515.267 501.669C515.503 501.844 515.755 502.062 515.974 502.31C516.024 502.354 516.041 502.413 516.091 502.471C516.276 502.719 516.462 503.011 516.579 503.361C517.067 504.586 516.916 505.679 516.175 506.598C515.401 507.532 514.004 508.305 511.985 508.903L505.758 510.74L502.931 503.521ZM523.563 510.07C523.126 509.836 522.705 509.719 522.285 509.559C522.234 509.544 522.183 509.53 522.133 509.501C521.157 509.195 520.164 508.991 518.868 508.991C518.414 508.991 517.875 509.005 517.303 509.049C518.784 508.057 522.302 505.461 520.787 501.538C520.433 500.662 519.811 499.963 519.104 499.365C519.104 499.365 519.087 499.35 519.087 499.335C517.775 498.256 515.957 497.6 513.684 497.6C512.271 497.6 510.79 497.848 509.259 498.286L497.663 501.698C497.629 501.698 497.612 501.713 497.612 501.727C497.595 501.742 497.595 501.756 497.612 501.771L507.508 527.06C507.525 527.074 507.542 527.089 507.559 527.104H507.592L520.383 523.341C525.768 521.751 528.276 517.784 526.576 513.467C525.987 511.966 524.978 510.813 523.563 510.07Z" fill="#0C0A09"/>
<path d="M504.352 515.71L507.325 502.879L515.82 513.554L504.352 515.71ZM508.032 497.63C508.032 497.615 508.016 497.6 507.983 497.6L504.368 498.274C504.336 498.274 504.319 498.304 504.303 498.334L497.6 527.016C497.6 527.046 497.616 527.075 497.632 527.09C497.648 527.104 497.665 527.104 497.681 527.104L501.822 526.327C501.855 526.327 501.888 526.298 501.888 526.268L503.53 519.391L518.284 516.605L522.884 522.324C522.884 522.339 522.917 522.353 522.933 522.353L527.041 521.59C527.057 521.59 527.09 521.561 527.09 521.547C527.107 521.517 527.107 521.502 527.09 521.473L508.032 497.63Z" fill="#0C0A09"/>
<path d="M520.726 516.596C520.713 516.582 520.685 516.582 520.67 516.582C520.642 516.596 520.629 516.596 520.614 516.624C520.07 518.106 519.748 518.72 519.035 519.545C517.708 521.109 515.877 522.088 513.878 522.298C513.613 522.326 513.347 522.34 513.082 522.34C506.402 522.34 505.004 515.659 504.71 512.794C504.096 506.687 507.03 502.257 512.02 501.754C512.299 501.726 512.579 501.712 512.858 501.712C516.897 501.712 518.406 504.829 519.217 506.491C519.231 506.506 519.245 506.547 519.273 506.547C519.301 506.562 519.301 506.547 519.315 506.534L521.774 503.976C521.789 503.948 521.789 503.92 521.789 503.906C521.705 503.669 519.65 498.4 512.872 498.4C512.411 498.4 511.95 498.414 511.474 498.47C507.967 498.819 505.102 500.482 503.202 503.249C501.287 506.03 500.49 509.692 500.91 513.814C501.022 515.03 502.391 525.596 512.649 525.596C513.166 525.596 513.71 525.568 514.256 525.512C520.713 524.883 522.599 520.705 523.382 518.929C523.396 518.901 523.396 518.874 523.368 518.86L520.726 516.596Z" fill="#0C0A09"/>
<path d="M506.738 516.079L512.643 503.112L518.226 516.223L506.738 516.079ZM514.509 497.648L510.937 497.6L510.857 497.648L497.6 526.642V526.722L497.664 526.754L501.799 526.817L501.847 526.769L505.081 519.791L519.819 519.982L522.876 527.008L522.924 527.056L527.01 527.104L527.075 527.072L527.091 527.008L514.589 497.695L514.509 497.648Z" fill="#0C0A09"/>
<path d="M520.045 509.578C519.987 509.608 519.967 509.638 519.928 509.667C519.48 509.933 518.953 510.125 518.368 510.272C518.251 510.302 518.153 510.331 518.076 510.361C517.432 510.494 516.749 510.567 515.969 510.567H515.677C515.268 510.567 514.8 510.552 514.332 510.494L505.147 509.653L506.492 501.318L515.287 502.129C515.911 502.203 516.496 502.277 517.042 502.38C517.1 502.394 517.159 502.394 517.198 502.41C518.134 502.586 518.933 502.866 519.596 503.191C519.714 503.25 519.87 503.294 519.987 503.368C520.318 503.546 520.572 503.752 520.806 503.973C520.864 504.018 520.884 504.091 520.942 504.135C521.644 504.873 521.917 505.803 521.742 506.939C521.547 508.089 520.962 508.974 520.045 509.578ZM517.081 498.987L502.046 497.6L501.988 497.615C501.968 497.63 501.968 497.645 501.948 497.659L497.6 524.434C497.6 524.478 497.62 524.508 497.678 524.523L502.533 524.98C502.572 524.98 502.651 524.965 502.651 524.921L504.581 512.942L513.259 513.768L519.85 526.543C519.85 526.573 519.889 526.588 519.928 526.588L525.154 527.104C525.193 527.104 525.213 527.09 525.232 527.074C525.252 527.045 525.252 527.03 525.252 527.001L518.465 513.65C523.789 513.016 526.441 511.083 527.026 507.425C527.728 503.147 523.556 499.606 517.081 498.987Z" fill="#0C0A09"/>
<path d="M521.971 515.428C520.584 520.581 517.171 523.53 512.641 523.53C511.847 523.53 511.036 523.44 510.191 523.262L502.804 521.713L508.163 501.845L515.227 503.319C517.982 503.9 519.79 504.913 520.956 506.522C522.562 508.681 522.934 511.854 521.971 515.428ZM516.072 499.924L504.867 497.6C504.833 497.6 504.782 497.615 504.765 497.645L497.6 524.155C497.6 524.185 497.6 524.2 497.616 524.215C497.616 524.23 497.65 524.245 497.667 524.245L509.413 526.702C510.697 526.97 511.965 527.104 513.216 527.104C519.824 527.104 524.692 523.128 526.551 516.187C527.683 512.032 527.058 508.01 524.81 504.898C523.069 502.396 520.297 500.818 516.072 499.924Z" fill="#0C0A09"/>
<path d="M515.673 510.895L511.802 509.61C511.774 509.595 511.746 509.595 511.732 509.623L508.014 513.466C508 513.481 508 513.509 508 513.537C508.014 513.55 508.014 513.578 508.028 513.578L510.516 514.389C510.53 514.389 510.558 514.389 510.572 514.389L515.686 511.021C515.714 511.007 515.714 510.979 515.714 510.951C515.714 510.923 515.701 510.909 515.673 510.895Z" fill="#0C0A09"/>
<path d="M517.898 500.322L514.573 499.204C514.53 499.19 514.502 499.218 514.489 499.246L506.411 523.522C506.397 523.535 506.397 523.55 506.411 523.563C506.411 523.577 506.425 523.591 506.453 523.605L509.779 524.709C509.821 524.709 509.849 524.695 509.862 524.682L517.941 500.406C517.954 500.392 517.954 500.364 517.941 500.35C517.926 500.336 517.913 500.322 517.898 500.322Z" fill="#0C0A09"/>
<path d="M529.296 511.114L529.268 511.058L525.425 507.243L525.341 507.229L506.349 517.431L516.397 498.327V498.257L512.512 494.414L512.47 494.4L512.428 494.414L494.4 512.54V512.638L496.636 514.874L496.678 514.888L496.734 514.874L512.442 499.054L501.556 519.696L501.569 519.766L504.001 522.211L504.085 522.225L524.628 511.17L508.92 526.977V527.074L511.156 529.297L511.198 529.325L511.24 529.297L529.268 511.157L529.296 511.114Z" fill="#0C0A09"/>
<path d="M510.62 508.55L522.528 502.451L519.239 514.692L510.62 508.55ZM524.371 497.611C524.34 497.596 524.309 497.596 524.294 497.611L497.645 511.253C497.615 511.253 497.6 511.282 497.6 511.31C497.6 511.325 497.615 511.353 497.63 511.367L500.736 513.574C500.752 513.574 500.782 513.574 500.812 513.574L507.208 510.32L518.325 518.217L516.589 524.825C516.589 524.853 516.589 524.882 516.62 524.896L519.68 527.09C519.696 527.104 519.711 527.104 519.726 527.104C519.741 527.09 519.802 527.076 519.802 527.048L527.096 499.606C527.112 499.578 527.096 499.549 527.081 499.549L524.371 497.611Z" fill="#0C0A09"/>
<path d="M522.415 509.78C522.276 510.018 522.076 510.227 521.907 510.409C521.799 510.521 521.707 510.633 521.599 510.717C521.26 511.052 520.844 511.275 520.428 511.443C520.275 511.513 520.121 511.583 519.952 511.625C519.659 511.695 519.367 511.722 519.044 511.737C518.966 511.737 518.889 511.722 518.828 511.722C517.828 511.695 516.734 511.374 515.549 510.745L509.284 507.349L513.764 500.501L519.767 503.757C521.599 504.735 522.692 505.811 523.03 506.971C523.261 507.866 523.076 508.788 522.415 509.78ZM522.415 501.549L512.132 496L512.024 496.028L497.6 517.998V518.054L497.646 518.096L500.971 519.885L501.064 519.87L507.498 510.046L513.456 513.246L512.809 526.258L512.855 526.314L516.411 528.228L516.442 528.242H516.472L516.504 528.172L517.242 514.672C517.627 514.77 517.935 514.755 518.289 514.798C518.551 514.839 518.812 514.882 519.059 514.91C519.412 514.937 519.828 515.035 520.152 515.035C522.676 515.035 524.539 513.987 526.032 511.737C528.341 508.215 526.817 503.953 522.415 501.549Z" fill="#0C0A09"/>
<path d="M518.198 499.476C516.632 498.763 515.012 498.4 513.376 498.4C508.429 498.4 503.943 501.796 501.372 507.498C500.827 508.728 496.383 519.503 507.116 524.31C508.807 525.079 510.469 525.47 512.035 525.47C515.109 525.47 517.206 523.975 518.324 523.178L518.352 523.095L517.178 519.81L517.122 519.769L517.066 519.782C515.836 520.803 515.249 521.166 514.229 521.529C513.348 521.837 512.454 522.005 511.546 522.005C510.469 522.005 509.393 521.767 508.388 521.32C506.64 520.538 501.274 517.267 505.187 508.518C507.046 504.354 510.26 501.866 513.754 501.866C514.858 501.866 515.948 502.104 517.024 502.606C521.328 504.521 521.049 508.281 520.881 510.307L520.909 510.363L520.965 510.377L524.375 509.385L524.431 509.329C524.472 509.05 525.395 502.705 518.198 499.476Z" fill="#0C0A09"/>
<path d="M521.455 515.483L509.986 512.435L519.838 502.804L521.455 515.483ZM523.358 498.554L519.787 497.609C519.754 497.595 519.737 497.595 519.72 497.623L497.623 519.219C497.607 519.233 497.59 519.262 497.607 519.29C497.607 519.304 497.623 519.319 497.64 519.319L501.767 520.435C501.783 520.435 501.834 520.435 501.851 520.407L507.19 515.226L521.943 519.147L522.852 525.973C522.869 526.002 522.886 526.016 522.92 526.031L526.995 527.104C527.012 527.104 527.063 527.104 527.063 527.09C527.096 527.075 527.114 527.047 527.096 527.018L523.425 498.611C523.408 498.583 523.391 498.568 523.358 498.554Z" fill="#0C0A09"/>
<path d="M505.616 501.628L513.24 502.412C516.247 502.704 518.287 503.565 519.736 505.087C521.723 507.132 522.528 510.346 522.027 514.112C521.186 520.047 517.589 523.445 512.113 523.445C511.665 523.445 511.182 523.429 510.717 523.383L502.718 522.568L505.616 501.628ZM513.688 498.846L501.555 497.6L501.483 497.677L497.6 525.612L497.617 525.674L497.671 525.705L510.341 526.981C511.093 527.058 511.844 527.104 512.542 527.104C520.47 527.104 525.821 522.353 526.948 514.42C527.556 510.038 526.358 505.994 523.566 503.042C521.383 500.644 518.251 499.307 513.688 498.846Z" fill="#0C0A09"/>
<path d="M519.163 502.415L519.233 502.372L520.197 499.354L520.183 499.284L520.127 499.27L504.21 499.2L504.139 499.27L504 524.831L504.014 524.873L504.07 524.901L520.099 524.985L520.169 524.915L520.155 524.873L519.149 521.827L519.093 521.799L507.634 521.728L507.675 513.246L518.142 513.301L518.198 513.287L518.213 513.231L518.226 510.171L518.157 510.115L507.69 510.073L507.745 502.359L519.163 502.415Z" fill="#0C0A09"/>
<path d="M519.01 501.796L519.904 498.484C519.918 498.456 519.904 498.428 519.89 498.414C519.876 498.4 519.862 498.4 519.848 498.4L504.056 500.762C504.028 500.776 504 500.804 504 500.846L507.802 526.127C507.802 526.17 507.83 526.183 507.843 526.183L511.351 525.652C511.366 525.652 511.366 525.652 511.379 525.638C511.379 525.624 511.394 525.61 511.394 525.596L509.702 514.36L519.01 512.977C519.038 512.977 519.052 512.962 519.066 512.949C519.066 512.934 519.08 512.921 519.08 512.906L518.605 509.762C518.59 509.734 518.59 509.72 518.577 509.72C518.562 509.706 518.549 509.692 518.534 509.706L509.227 511.117L508.081 503.473L518.954 501.852C518.982 501.852 519.01 501.824 519.01 501.796Z" fill="#0C0A09"/>
<path d="M509.669 515.248L512.185 514.577C512.199 514.577 512.213 514.564 512.227 514.536L514.631 508.889C514.659 508.876 514.631 508.848 514.617 508.833C514.617 508.805 514.589 508.792 514.561 508.805L510.62 509.854C510.592 509.868 510.578 509.882 510.564 509.909L509.6 515.164C509.6 515.192 509.6 515.22 509.614 515.234C509.628 515.248 509.642 515.248 509.669 515.248Z" fill="#0C0A09"/>
<path d="M515.197 512.919L503.731 515.576L505.96 502.821L515.197 512.919ZM506.343 497.62C506.327 497.606 506.277 497.592 506.26 497.606L502.666 498.444C502.649 498.459 502.615 498.473 502.615 498.502L497.607 527.032C497.59 527.046 497.607 527.075 497.623 527.089C497.639 527.104 497.656 527.104 497.69 527.104L501.817 526.151C501.85 526.151 501.867 526.122 501.883 526.093L503.115 519.246L517.843 515.808L522.869 521.21C522.902 521.224 522.935 521.239 522.969 521.224L527.046 520.286C527.063 520.286 527.096 520.257 527.096 520.243C527.112 520.213 527.096 520.184 527.079 520.17L506.343 497.62Z" fill="#0C0A09"/>
<path d="M513.25 508.361C512.858 508.534 512.45 508.707 511.992 508.852L506.062 510.993L502.876 503.993L509.395 501.664C510.555 501.259 511.6 501.042 512.499 501.028C512.596 501.028 512.662 501.042 512.728 501.042C513.446 501.057 514.051 501.216 514.573 501.49C514.639 501.534 514.704 501.534 514.769 501.578C515.015 501.751 515.26 501.954 515.472 502.185C515.521 502.243 515.603 502.358 515.603 502.358C515.799 502.604 515.962 502.865 516.092 503.168C516.648 504.369 516.583 505.454 515.896 506.394C515.782 506.582 515.603 506.755 515.44 506.915C515.325 507.015 515.194 507.131 515.047 507.247C514.606 507.623 514.051 507.97 513.364 508.302L513.25 508.361ZM511.404 522.736L507.434 514.001L514.051 511.643C515.325 511.195 516.485 510.964 517.53 510.964C519.736 510.964 521.32 511.976 522.236 514.001C522.742 515.129 522.775 516.185 522.284 517.154C521.647 518.484 520.079 519.642 517.71 520.48L511.404 522.736ZM523.264 509.46C522.04 508.852 520.88 508.621 519.392 508.621C518.756 508.621 518.004 508.664 517.138 508.751C518.527 507.71 521.794 505.005 520.063 501.158C519.654 500.334 519.017 499.654 518.298 499.104L518.265 499.075C517.04 498.15 515.456 497.6 513.512 497.6C511.976 497.6 510.359 497.904 508.692 498.497L497.648 502.416L497.6 502.503L508.774 527.061L508.84 527.104L508.872 527.09L521.026 522.78C526.172 520.943 528.329 516.908 526.401 512.714C525.732 511.224 524.686 510.139 523.264 509.46Z" fill="#0C0A09"/>
<path d="M510.439 501.003C510.732 501.018 510.998 501.046 511.264 501.132C511.417 501.174 511.557 501.26 511.711 501.317C512.088 501.488 512.452 501.744 512.745 502.086C512.843 502.171 512.912 502.285 512.996 502.399C513.15 502.584 513.318 502.812 513.457 503.068C514.072 504.222 514.184 505.346 513.779 506.358C513.388 507.354 512.465 508.266 511.082 509.02L505.24 512.253L501.467 505.119L507.057 502.029C508.217 501.388 509.265 501.061 510.16 501.032C510.257 501.018 510.355 501.003 510.439 501.003ZM515.246 509.732C518 506.984 518.488 504.35 516.825 501.231C515.596 498.925 513.402 497.6 510.76 497.6C510.369 497.6 509.964 497.714 509.587 497.771L509.432 497.8C508.412 497.942 507.364 498.255 506.372 498.797L496.827 504.05L496.799 504.108V504.15L508.972 527.062L509.028 527.104L509.056 527.09L512.144 525.395L512.172 525.353V525.296L506.736 515.072L512.27 512.025L523.128 519.315H523.198L526.496 517.493L526.524 517.436L526.496 517.378L515.246 509.732Z" fill="#0C0A09"/>
<path d="M506.148 500L503.213 501.957L503.199 502.026L517.328 523.353L517.356 523.395L517.398 523.381L520.333 521.438L520.347 521.354L506.246 500.028L506.148 500Z" fill="#0C0A09"/>
<path d="M526.79 512.174L522.828 511.679L522.763 511.694L522.747 511.771C523.149 513.474 523.213 514.219 523.052 515.442C522.763 517.702 521.64 519.67 519.811 521.11C519.025 521.698 516.955 523.077 514.196 523.077C511.019 523.077 507.938 521.327 505.034 517.827C502.884 515.225 501.729 512.468 501.761 509.804C501.793 507.156 502.965 504.863 505.162 503.16C506.622 502.03 508.179 501.456 509.767 501.456C511.997 501.456 513.81 502.51 515.013 503.206L515.046 503.222H515.126L515.174 503.175L515.929 499.319L515.897 499.257C515.672 499.086 513.489 497.6 510.217 497.6C507.569 497.6 505.002 498.56 502.579 500.45C499.418 502.881 497.701 506.149 497.605 509.882C497.493 513.614 499.017 517.502 502.017 521.079C502.868 522.102 507.361 527.104 513.666 527.104C516.586 527.104 519.442 526.004 522.201 523.883C528.009 519.375 527.208 514.373 526.854 512.236L526.79 512.174Z" fill="#0C0A09"/>
<path d="M514.425 506.925L507.202 514.381L502.314 502.285L514.425 506.925ZM527.06 507.903L499.964 497.616C499.92 497.587 499.906 497.602 499.892 497.631L497.614 499.951C497.6 499.965 497.6 499.995 497.6 500.023L508.464 527.046C508.479 527.075 508.493 527.09 508.522 527.104C508.536 527.104 508.565 527.09 508.58 527.075L511.176 524.39C511.191 524.375 511.191 524.347 511.191 524.331L508.624 517.824L517.907 508.253L524.434 510.689C524.463 510.704 524.477 510.689 524.507 510.675L527.074 508.019C527.088 508.005 527.103 507.975 527.103 507.961C527.088 507.931 527.074 507.917 527.06 507.903Z" fill="#0C0A09"/>
<path d="M257.726 702.851C257.726 702.851 240.089 654.328 250.668 639.333C261.262 624.323 276.257 634.622 276.257 634.622C276.257 634.622 273.323 594.037 295.669 577.267C318.029 560.497 345.085 587.553 345.085 587.553C345.085 587.553 353.61 561.67 379.507 552.265C405.375 542.86 430.069 569.916 434.779 589.328C439.488 608.74 433.619 628.445 430.963 634.622C428.308 640.785 435.967 632.861 435.967 632.861C435.967 632.861 442.716 613.436 447.133 611.088C451.563 608.74 471.268 613.436 475.377 632.861C479.499 652.26 488.318 668.443 494.495 678.743C500.672 689.029 513.026 703.732 513.026 703.732C513.026 703.732 532.13 687.561 539.775 661.092C547.433 634.622 557.146 617.838 568.019 611.675C578.905 605.497 585.963 619.627 587.723 632.261C589.485 644.909 594.781 634.622 594.781 634.622C594.781 634.622 585.39 614.316 590.672 593.73C595.969 573.145 612.432 551.678 630.083 548.729C647.734 545.794 675.083 559.616 678.605 587.26C678.605 587.26 693.321 571.957 719.496 572.851C745.672 573.745 749.208 620.2 747.447 630.486C747.447 630.486 778.612 631.381 779.799 650.806C780.974 670.205 767.152 704.626 767.152 704.626C767.152 704.626 798.624 673.446 807.429 608.446C816.261 543.446 811.272 502.261 802.733 457.567C794.195 412.845 765.391 361.373 756.852 347.552C748.314 333.73 743.031 330.488 745.966 328.433C748.9 326.379 755.679 324.325 755.679 324.325C755.679 324.325 744.499 316.093 731.557 320.495C718.616 324.911 685.09 345.497 685.09 345.497C685.09 345.497 596.263 422.265 591.847 426.974C587.444 431.67 575.677 426.094 574.797 425.493C573.916 424.906 546.553 404.613 543.017 395.208C539.509 385.775 539.202 381.093 544.778 370.485C550.382 359.906 556.559 343.429 549.502 334.904C542.43 326.379 522.138 347.859 513.319 353.729L498.603 350.501C498.603 350.501 483.915 330.488 471.547 330.194C471.547 330.194 469.507 332.849 470.96 336.371C472.442 339.893 473.615 349.62 473.615 349.62L480.659 364.309L475.95 374.021C475.95 374.021 475.475 377.264 464.686 379.22C453.911 381.177 456.063 385.886 456.65 390.792C457.237 395.683 457.838 397.067 460.186 398.632C462.533 400.197 467.439 405.494 473.699 405.689C479.975 405.885 486.25 402.364 487.829 408.639C489.408 414.913 464.112 426.094 464.112 426.094L458.62 432.551L433.507 429.029C433.507 429.029 376.558 359.319 327.728 338.146L307.729 327.846C307.729 327.846 293.908 319.307 287.437 319.908C280.953 320.495 269.493 324.604 269.493 324.604C269.493 324.604 278.116 326.77 278.815 329.817C279.499 332.849 268.906 344.91 268.906 344.91C268.906 344.91 223.612 427.254 214.794 493.442C205.962 559.616 210.965 652.26 257.726 702.851Z" fill="#F5F5F5"/>
<path d="M798.411 496.359C788.599 398.124 743.096 331.447 741.545 332.426C740.511 333.068 766.226 391.975 769.398 473.816C771.759 544.211 751.16 615.192 749.371 614.395C747.624 613.627 762.536 559.304 760.943 473.802C759.587 407.739 734.292 329.099 732.727 329.295C731.147 329.491 734.683 394.589 718.416 468.715C702.135 542.827 679.788 573.419 678.6 572.427C677.427 571.462 701.548 520.271 713.763 449.303C725.739 380.865 726.647 330.287 725.083 330.078C723.503 329.882 681.745 382.248 632.719 457.939C632.719 457.939 629.589 462.244 625.271 461.839C620.952 461.462 600.171 456.751 599.179 453.607C599.179 453.607 616.843 454.055 622.574 452.867C626.99 452.587 629.491 449.191 629.491 449.191C629.491 449.191 648.903 417.439 655.667 408.62C655.667 408.62 637.122 427.445 630.372 436.543C624.195 445.082 619.485 443.615 619.485 443.615C612.875 443.167 590.375 438.179 584.924 430.967C582.576 427.725 580.215 423.77 580.215 423.77C580.215 423.77 590.654 425.684 607.271 433.468C623.887 441.253 622.574 438.751 629.491 429.639C639.582 414.602 689.781 355.765 706.243 338.505C706.243 338.505 709.793 335.375 712.91 328.121C715.467 320.868 732.923 303.803 751.733 314.187C751.733 314.187 747.54 314.635 743.376 317.499C742.691 317.961 741.852 319.75 742.761 321.035C751.677 333.515 800.059 405.447 808.612 505.778C818.018 616.366 774.205 684.986 772.654 683.812C771.075 682.638 808.011 611.866 798.411 496.359ZM591.619 620.671C591.619 620.671 587.677 620.489 586.881 614.787C586.098 609.113 586.099 607.338 584.533 604.598C582.954 601.859 580.634 593.419 584.939 593.419C584.939 593.419 589.061 613.417 591.619 620.671ZM579.683 586.263C578.51 580.966 575.575 579.778 575.575 579.778C576.749 584.208 568.797 587.437 564.395 591.853C559.979 596.269 554.682 600.378 554.682 600.378C553.508 597.15 556.457 593.026 559.406 590.092C562.327 587.143 558.511 585.075 558.511 585.075C558.511 585.075 567.05 575.376 574.094 575.376C581.151 575.376 584.099 590.679 584.099 590.679C584.099 590.679 580.858 591.559 579.683 586.263ZM553.508 527.147C553.508 527.147 550.964 523.82 548.994 522.842C547.023 521.863 544.48 518.51 544.48 513.814C544.48 509.104 542.928 508.321 541.154 508.126C541.154 508.126 540.162 512.835 542.928 518.719C545.667 524.603 547.624 530.095 547.624 531.255C547.624 531.255 542.132 529.215 541.685 524.784C541.251 520.383 538.764 519.208 538.764 515.379C538.764 511.55 535.662 506.994 538.009 504.492C538.009 504.492 537.87 502.438 535.969 501.124C534.04 499.796 530.519 497.295 529.918 493.912C529.918 493.912 528.743 498.021 530.225 502.731C530.225 502.731 526.256 501.403 526.983 498.916C527.723 496.4 527.136 494.639 526.256 493.912C525.362 493.186 523.74 490.516 524.481 487.148C525.222 483.752 523.475 481.851 523.475 481.851C523.475 481.851 527.877 482.145 529.638 489.636C529.638 489.636 530.952 487.582 530.519 484.94C530.071 482.299 529.484 477.282 531.679 473.914C531.679 473.914 531.399 475.675 533.314 477.883C535.215 480.077 534.334 483.459 538.456 485.374C538.456 485.374 539.337 482.299 538.163 480.538C536.989 478.763 534.474 475.968 534.935 473.452C534.935 473.452 530.365 469.204 531.399 465.668C532.433 462.147 530.812 458.918 528.743 458.023C528.743 458.023 527.57 459.491 528.743 462.147C528.743 462.147 527.276 465.528 528.311 467.736C529.331 469.931 529.331 472.879 528.017 474.054C526.689 475.227 529.191 477.883 526.843 481.111C526.843 481.111 526.382 479.783 525.222 478.763C524.048 477.729 522.581 475.968 523.74 473.76C524.928 471.566 520.806 469.651 522.134 466.255C523.475 462.873 520.666 460.679 520.666 460.679C520.666 460.679 518.598 462.147 519.632 466.255C520.666 470.378 520.527 471.259 519.185 473.033C517.871 474.794 518.304 476.555 518.304 476.555C518.304 476.555 514.335 475.381 515.383 471.566C516.39 468.31 511.694 466.703 511.694 466.703C511.694 466.703 510.939 463.027 512.127 459.491L510.814 457.591C510.814 457.591 508.298 463.754 509.639 468.771C510.939 473.76 510.814 476.863 510.814 476.863C510.814 476.863 512.714 473.914 512.127 471.691C512.127 471.691 514.042 472.139 514.042 475.227C514.042 478.316 516.683 479.783 513.735 483.026C513.735 483.026 511.093 481.544 510.814 479.658C510.814 479.658 510.073 483.752 510.939 486.254C510.939 486.254 508.172 486.995 507.418 488.63C507.418 488.63 505.517 485.527 506.537 482.732C507.571 479.937 508.591 479.658 508.298 477.729C508.019 475.828 506.258 469.651 507.879 467.891C507.879 467.891 507.571 464.787 507.725 462.594C507.725 462.594 505.377 461.406 505.656 459.351C505.95 457.283 505.517 454.208 503.602 452.867C503.602 452.867 504.636 450.826 504.035 449.638C503.448 448.464 503.602 445.669 505.223 444.789C505.223 444.789 505.796 451.106 508.451 454.781C508.451 454.781 507.418 451.707 508.745 449.499C508.745 449.499 506.258 447.43 507.138 444.495C508.019 441.56 506.844 439.339 505.377 438.905C505.377 438.905 504.189 433.315 506.258 429.346C508.298 425.377 508.745 420.667 506.984 420.094C506.984 420.094 505.377 416.838 507.291 414.35C509.179 411.848 507.418 408.327 507.418 408.327C507.418 408.327 510.52 409.64 510.367 411.695C510.227 413.763 510.227 414.49 511.093 415.231C511.987 415.957 511.694 421.547 513.595 423.029C515.509 424.496 516.991 427.291 516.39 430.967C516.39 430.967 518.304 428.326 517.871 425.377C517.423 422.428 514.489 422.428 514.922 419.633C515.383 416.838 515.663 412.435 514.042 410.521C512.435 408.62 512.435 406.706 513.735 405.084C513.735 405.084 513.455 402.429 511.247 402.15C511.247 402.15 513.595 400.375 515.816 402.429C518.025 404.497 517.578 406.259 516.991 407.586C516.39 408.914 516.096 415.818 520.065 418.165C520.065 418.165 518.751 414.643 520.219 412.589C521.7 410.521 518.751 407.139 520.372 404.637C520.372 404.637 521.979 402.429 521.239 401.269C521.239 401.269 523.895 401.703 523.74 404.343C523.601 406.985 522.287 410.381 525.963 410.381C525.963 410.381 526.983 412.142 526.382 413.47C526.382 413.47 527.877 413.316 528.743 411.695C530.519 408.76 535.969 411.401 535.507 408.173C535.507 408.173 537.423 408.914 537.269 411.555C537.129 414.196 536.248 414.35 538.009 416.265C539.77 418.165 541.685 426.984 539.491 432.281C539.491 432.281 539.03 430.38 537.576 430.38C536.109 430.38 534.194 427.138 534.781 424.65C535.368 422.148 535.507 418.906 533.607 417.732C533.607 417.732 531.679 424.79 532.573 428.451C533.453 432.127 530.519 434.503 530.519 434.503C530.519 434.503 533.761 442.874 532.433 448.031C532.433 448.031 535.815 445.375 535.969 442.735C536.109 440.093 533.02 440.093 534.04 438.332C535.075 436.543 534.935 433.608 534.935 433.608C534.935 433.608 537.423 435.97 537.423 438.751C537.423 441.56 537.269 454.502 543.753 456.123C543.753 456.123 541.685 453.02 542.411 450.379C543.166 447.723 538.009 440.68 541.685 433.902C541.685 433.902 544.187 436.697 544.634 440.819C545.081 444.943 544.927 451.847 548.309 451.553C548.309 451.553 548.896 448.031 548.309 444.635C547.722 441.253 546.548 438.458 546.548 438.458C546.548 438.458 547.568 439.059 549.05 439.492C550.503 439.939 551.984 441.56 551.845 444.943C551.845 444.943 553.606 445.53 553.759 446.997C553.759 446.997 554.779 442.287 553.899 440.093C553.019 437.871 550.503 435.537 551.845 430.827C551.845 430.827 555.52 434.783 555.814 440.093C556.107 445.375 555.059 455.815 557.421 459.351C557.421 459.351 558.609 457.436 558.609 454.348C558.609 454.348 560.803 457.283 560.076 461.839C559.35 466.409 564.185 470.965 559.615 484.06C559.615 484.06 556.401 482.006 557.421 477.589C557.421 477.589 555.213 481.265 556.987 484.787C558.748 488.323 559.042 489.203 558.162 492.151C557.281 495.072 555.66 498.329 557.575 500.383C557.575 500.383 554.193 501.124 553.899 497.295C553.606 493.465 552.32 492.431 552.32 492.431C552.32 492.431 549.595 496.163 552.32 501.068C555.059 505.959 556.652 510.474 555.269 515.771C555.269 515.771 550.964 514.792 551.146 511.452C551.355 508.126 549.385 506.56 549.385 506.56C549.385 506.56 547.624 511.647 549.595 515.183C551.551 518.719 555.059 522.241 553.508 527.147ZM551.551 553.029C551.551 553.029 551.146 549.899 549.595 547.341C548.015 544.798 548.994 541.667 548.994 541.667C548.994 541.667 551.733 540.283 552.711 544.993C553.703 549.703 551.551 553.029 551.551 553.029ZM536.248 520.675C538.806 523.219 539.98 527.538 541.154 529.495C542.342 531.465 544.885 534.204 544.69 536.747C544.48 539.305 546.646 544.588 547.624 548.319C548.616 552.05 548.211 556.355 548.211 556.355C548.211 556.355 545.458 553.602 545.85 551.463C546.255 549.298 544.885 546.167 542.719 544.588C540.581 543.022 539.77 538.718 539.98 535.769C540.162 532.82 538.009 529.899 538.009 529.899C536.444 530.682 536.654 531.66 536.654 531.66C536.654 531.66 535.27 529.299 536.067 526.546C536.835 523.82 536.248 520.675 536.248 520.675ZM549.203 581.274C549.203 581.274 548.015 578.911 546.436 578.52C544.885 578.115 543.502 575.977 543.502 573.419C543.502 570.862 541.936 569.311 541.936 569.311C539.98 569.492 537.632 572.05 536.067 571.659C534.474 571.267 533.118 568.905 533.118 568.905C531.735 571.071 528.408 571.071 528.408 571.071C529.778 569.688 530.365 565.383 529.387 562.826C528.408 560.296 530.169 558.326 530.169 558.326C531.147 561.456 533.118 565.984 533.118 565.984C534.879 563.217 534.306 557.347 532.517 556.355C530.756 555.377 529.191 552.247 529.778 550.276C530.365 548.319 529.596 544.001 529.596 544.001C531.539 545.384 535.075 551.254 535.075 553.602C535.075 555.978 536.248 558.717 538.009 560.087C539.77 561.456 541.545 565.775 541.545 565.775C543.502 563.217 542.719 558.717 542.719 558.717C540.162 557.347 538.009 552.247 538.009 548.907C538.009 545.58 535.857 543.219 535.857 543.219L534.474 545.189C534.474 545.189 532.335 542.827 531.539 540.871C530.756 538.914 532.126 533.03 532.126 533.03C534.306 537.153 537.031 538.718 537.031 538.718C537.227 541.667 539.183 547.537 543.502 554.202C547.806 560.855 546.842 567.34 546.842 567.34C545.263 565.984 544.284 565.565 544.284 565.565C544.284 565.565 545.081 568.723 547.429 572.832C549.776 576.941 549.203 581.274 549.203 581.274ZM547.233 600.28C546.646 605.591 543.697 607.729 543.697 607.729C545.081 603.62 543.502 597.932 542.132 594.201C540.748 590.47 543.697 589.1 543.697 589.1C545.458 588.122 547.806 594.983 547.233 600.28ZM532.335 573.811C534.879 575.586 536.067 578.115 536.835 580.086C537.632 582.056 534.683 583.216 537.031 586.947C539.393 590.679 537.632 594.983 537.632 594.983C537.423 593.223 534.879 593.027 533.118 590.47C531.357 587.926 532.517 582.643 532.923 578.911C533.314 575.18 532.335 573.811 532.335 573.811ZM541.35 623.423C541.35 623.423 539.183 622.235 538.611 619.119C538.009 615.961 535.662 615.374 535.662 615.374C535.27 617.54 536.835 623.018 537.423 626.946C538.009 630.872 535.662 633.43 535.662 633.43C535.466 631.264 534.306 629.503 532.713 627.742C531.147 625.967 532.517 622.823 532.517 622.823C531.147 621.649 529.596 619.902 529.596 615.192C529.596 610.482 527.626 607.156 527.626 607.156C524.09 605.759 524.872 602.432 525.278 599.498C525.669 596.562 523.895 593.223 523.895 593.223C526.843 594.201 531.147 602.055 530.951 606.164C530.756 610.273 533.9 613.222 533.9 613.222C536.835 611.461 532.713 604.99 533.9 602.432C535.075 599.889 533.705 595.962 533.705 595.962C536.835 597.723 537.423 602.432 538.009 605.759C538.611 609.113 538.987 613.026 540.748 615.961C542.509 618.91 541.35 623.423 541.35 623.423ZM532.517 654.589C529.974 663.031 527.039 662.835 527.039 662.835C527.039 662.835 530.56 657.342 529.778 653.625C528.995 649.879 531.735 645.183 531.147 641.843C530.56 638.517 532.923 636.365 532.923 636.365C532.923 636.365 535.075 646.175 532.517 654.589ZM526.256 629.895C527.43 627.742 527.43 623.228 526.256 623.423C525.083 623.619 524.481 625.967 524.481 625.967C522.329 623.619 522.902 619.692 523.699 616.757C524.481 613.808 523.895 611.461 523.895 611.461C527.626 613.222 527.821 620.671 529.596 624.793C531.357 628.916 531.735 634.003 529.778 635.568C527.821 637.147 526.843 639.901 526.843 639.901C524.872 636.561 525.083 632.046 526.256 629.895ZM518.402 535.574C520.163 541.667 521.547 540.074 523.489 546.754C525.459 553.42 521.742 556.76 521.742 556.76C522.329 554.999 521.938 548.724 519.395 546.544C516.837 544.406 518.207 542.827 517.815 540.871C517.423 538.914 518.402 535.574 518.402 535.574ZM520.163 506.742C517.423 505.959 518.402 503.22 518.807 500.467C519.185 497.728 518.207 494.597 518.207 494.597C521.155 496.359 524.481 504.017 524.299 506.951C524.09 509.887 525.082 514.205 525.082 514.205C522.329 513.227 522.902 507.539 520.163 506.742ZM524.872 583.035C523.895 580.883 525.459 576.941 525.459 576.941C525.459 576.941 528.017 580.086 528.408 584.013C528.799 587.926 525.459 589.505 525.459 589.505C525.459 589.505 525.851 585.173 524.872 583.035ZM523.111 667.349C521.938 678.711 518.207 683.616 518.207 683.616C518.207 683.616 519.395 678.529 519.003 672.254C518.598 665.979 521.239 661.843 520.764 652.828C520.764 649.711 517.144 645.98 518.891 642.15C520.666 638.307 518.598 634.507 518.598 634.507C515.383 630.677 518.598 625.087 518.598 625.087C519.395 630.677 521.351 632.634 523.111 636.952C524.872 641.256 521.547 643.227 521.547 643.227C522.902 646.553 524.299 655.987 523.111 667.349ZM514.489 673.917C514.489 673.917 515.663 665.085 515.076 659.494C514.489 653.904 514.783 652.451 516.543 652.143C516.543 652.143 518.025 652.451 518.025 655.386C518.025 658.335 516.837 667.447 514.489 673.917ZM512.435 513.311C513.022 510.096 512.714 506.267 512.714 506.267C516.543 512.137 515.076 521.263 515.076 521.263C511.54 518.915 511.847 516.567 512.435 513.311ZM512.267 691.261C510.506 683.225 511.149 674.602 512.267 674.602C514.098 674.798 512.267 691.261 512.267 691.261ZM506.258 655.386C506.258 652.451 507.725 652.143 507.725 652.143C509.486 652.451 509.779 653.904 509.179 659.494C508.591 665.085 509.779 673.917 509.779 673.917C507.418 667.447 506.258 658.335 506.258 655.386ZM503.714 651.067C501.939 649.711 501.939 646.944 501.939 645.379C501.939 643.814 501.743 644.582 500.555 641.675C499.2 636.756 501.548 631.264 501.548 631.264C501.352 634.003 503.714 640.278 504.287 644.415C504.874 648.523 503.714 651.067 503.714 651.067ZM498.599 432.043C495.86 432.839 496.055 436.543 497.048 438.514C498.012 440.471 497.048 442.636 495.077 443.615C493.107 444.593 492.52 446.745 492.52 446.745C490.955 440.275 493.303 431.861 494.686 430.869C496.055 429.891 496.251 427.92 496.251 427.92C494.099 425.572 495.273 422.428 496.461 420.471C497.621 418.515 499.2 414.797 499.2 414.797C500.374 419.297 501.352 431.26 498.599 432.043ZM491.22 654.589C488.663 646.175 490.829 636.365 490.829 636.365C490.829 636.365 493.177 638.517 492.59 641.843C492.003 645.183 494.742 649.879 493.959 653.625C493.177 657.342 496.699 662.835 496.699 662.835C496.699 662.835 493.778 663.031 491.22 654.589ZM486.455 627.155C485.267 623.815 489.976 618.519 489.976 618.519C489.976 618.519 491.151 622.235 488.998 624.207C486.832 626.177 491.542 626.946 491.542 626.946C489.781 629.503 488.803 635.568 488.803 635.568C486.049 634.003 487.615 630.481 486.455 627.155ZM487.433 596.954C487.433 602.237 488.998 609.686 488.998 609.686C488.998 609.686 485.476 606.947 485.476 603.62C485.267 601.259 487.433 596.954 487.433 596.954ZM485.854 453.426C487.027 451.847 487.615 447.332 487.615 447.332C487.615 447.332 489.194 454.991 488.998 457.339C488.803 459.687 486.832 461.07 486.832 461.07C483.702 457.939 484.679 454.991 485.854 453.426ZM482.15 433.021C482.15 433.021 483.911 429.499 482.919 426.159C481.94 422.833 485.071 420.667 484.093 419.689C483.115 418.711 480.557 420.094 480.557 420.094C481.731 414.015 487.237 410.465 487.237 410.465C485.854 412.631 484.875 417.732 486.245 416.558C487.615 415.384 489.585 414.979 489.585 414.979C488.006 416.74 487.433 423.029 486.832 426.565C486.245 430.087 482.15 433.021 482.15 433.021ZM478.74 616.422C476.546 614.94 476.085 611.265 476.253 608.33C476.546 603.019 476.253 596.856 476.253 596.856C476.253 596.856 479.201 604.501 479.201 609.211C479.201 613.906 482.43 614.507 482.43 614.507C482.164 615.933 480.808 617.302 478.74 616.422ZM482.276 391.542C480.222 392.576 471.99 394.799 468.455 389.935C468.455 389.935 473.458 388.467 478.74 388.467C484.037 388.467 490.214 387.88 493.149 387.279C493.149 387.279 494.337 388.607 496.251 388.901C496.251 388.901 493.889 389.781 491.542 389.502C489.194 389.194 484.344 390.535 482.276 391.542ZM457.567 382.57C456.1 380.236 457.275 376.547 457.275 376.547C457.567 376.113 458.616 375.526 458.616 378.615C458.616 382.291 465.813 382.57 463.298 381.563C460.81 380.529 460.223 376.994 460.963 374.631C461.691 372.283 465.659 371.557 467.28 372.731C468.902 373.905 467.854 375.819 466.833 375.232C465.813 374.631 462.864 375.079 463.605 377.58C465.519 381.843 468.007 380.082 468.007 380.082C470.663 378.768 475.065 382.444 474.785 376.253C473.458 368.762 465.212 372.591 465.212 370.956C465.212 369.349 466.987 369.489 471.697 368.762C476.407 368.021 477.287 365.38 478.6 362.291C479.928 359.189 481.395 356.407 488.159 350.37C494.923 344.347 501.101 349.937 501.101 349.937C504.343 349.211 506.103 350.091 507.725 351.251C509.332 352.439 511.847 354.787 514.489 356.114C517.144 357.427 517.871 358.462 517.27 360.223C516.683 361.984 517.731 363.465 517.731 363.465C514.783 363.619 513.161 365.24 513.161 365.24C513.161 365.24 513.888 367.882 515.663 371.403C517.423 374.939 515.076 378.615 512.281 377.58C509.486 376.547 506.397 378.167 506.984 379.495C507.571 380.809 506.691 381.689 506.691 381.689C503.895 381.689 501.394 383.451 502.735 385.085C504.035 386.707 503.448 388.607 503.448 388.607C499.479 384.499 495.651 385.672 496.405 384.638C497.131 383.604 496.098 380.809 496.098 380.809C494.784 384.792 489.194 385.519 481.242 385.085C473.304 384.638 469.628 385.239 466.247 385.519C462.864 385.826 459.049 384.931 457.567 382.57ZM474.785 337.135C473.304 331.699 472.144 329.351 472.144 329.351C476.099 331.112 479.202 341.551 479.635 343.899C480.068 346.261 481.549 345.074 482.723 343.467C483.911 341.845 485.951 341.551 485.951 341.551C485.951 341.551 481.689 351.404 479.788 350.37C477.859 349.336 476.253 342.586 474.785 337.135ZM495.091 340.015C495.608 341.119 495.804 343.312 494.113 343.899C492.981 344.389 491.514 344.053 490.507 342.139C488.9 339.05 484.484 329.938 479.928 327.283C475.359 324.641 473.304 321.692 473.304 321.692C484.889 324.809 492.911 335.193 495.091 340.015ZM520.372 339.931C526.116 336.995 526.689 336.255 527.57 334.647C527.57 334.647 525.669 334.927 523.014 336.409C520.372 337.876 538.456 322.139 545.081 324.641C545.081 324.641 530.225 328.023 524.775 347.868C523.321 354.647 520.219 352.145 516.543 352.145C516.543 352.145 517.871 350.216 519.339 349.49C520.806 348.749 522.134 345.535 522.134 345.535C522.134 345.535 518.598 346.261 516.096 347.868C513.595 349.49 511.847 348.903 511.847 348.903C511.847 348.903 514.629 342.879 520.372 339.931ZM549.329 327.59C549.329 327.59 552.711 335.081 548.309 347.142C543.907 359.189 540.217 361.844 539.77 362.291C539.337 362.739 537.87 360.824 538.456 357.428C539.03 354.046 537.269 351.251 537.269 351.251C537.269 351.251 540.218 353.011 540.804 354.94C541.405 356.841 547.722 344.5 548.616 334.355C549.05 328.75 549.329 327.59 549.329 327.59ZM545.081 414.797C547.023 418.319 544.69 419.689 547.429 424.203C550.182 428.703 548.015 433.818 548.015 433.818C548.015 433.818 547.233 431.456 544.284 429.108C541.349 426.747 543.306 421.254 543.306 421.254C540.581 418.515 539.98 415.175 540.162 411.262C540.371 407.335 536.067 401.647 536.067 401.647C541.35 403.407 543.111 411.262 545.081 414.797ZM550.378 407.586C550.811 409.78 550.503 410.66 550.503 410.66C553.172 413.162 551.104 417.592 551.104 417.592C551.104 417.592 551.104 415.678 548.463 414.056C545.822 412.435 545.667 409.347 545.961 407.586C546.255 405.825 544.326 403.03 544.326 403.03C544.326 403.03 549.916 404.343 550.378 407.586ZM563.095 445.963C558.413 444.006 559.587 436.739 559.587 436.739C563.906 439.883 563.095 445.963 563.095 445.963ZM560.37 422.051C563.514 426.747 563.906 433.217 563.906 433.217C563.906 433.217 560.565 432.63 559.769 428.703C559 424.79 558.008 420.876 555.87 418.906C553.703 416.935 553.703 415.58 553.703 415.58C553.703 415.58 557.239 417.341 560.37 422.051ZM649.826 373.039C682.136 341.551 703.588 327.73 705.083 328.611C706.537 329.491 691.499 337.261 652.76 375.987C644.138 384.596 634.257 394.715 623.021 406.551C623.021 406.551 605.957 424.203 599.179 425.684C599.179 425.684 622.839 398.991 649.826 373.039ZM468.412 418.906C466.247 420.876 465.268 424.79 464.486 428.703C463.703 432.63 460.377 433.217 460.377 433.217C460.377 433.217 460.754 426.747 463.899 422.051C467.029 417.341 470.565 415.58 470.565 415.58C470.565 415.58 470.565 416.935 468.412 418.906ZM469.559 600.378C469.559 600.378 464.29 596.269 459.859 591.853C455.458 587.437 447.519 584.208 448.707 579.778C448.707 579.778 445.759 580.966 444.571 586.263C443.411 591.559 440.168 590.679 440.168 590.679C440.168 590.679 443.117 575.376 450.161 575.376C457.219 575.376 465.757 585.075 465.757 585.075C465.757 585.075 461.928 587.143 464.877 590.092C467.811 593.026 470.747 597.15 469.559 600.378ZM439.875 604.598C438.323 607.338 438.323 609.113 437.527 614.787C436.759 620.489 432.818 620.671 432.818 620.671C435.347 613.417 439.483 593.419 439.483 593.419C443.788 593.419 441.468 601.859 439.875 604.598ZM398.997 461.839C394.679 462.244 391.548 457.939 391.548 457.939C342.523 382.248 300.765 329.882 299.2 330.078C297.621 330.287 298.543 380.865 310.492 449.303C322.735 520.271 346.842 571.462 345.667 572.427C344.48 573.419 322.134 542.827 305.852 468.715C289.571 394.589 293.121 329.491 291.542 329.295C289.976 329.099 264.681 407.739 263.326 473.802C261.732 559.304 276.644 613.627 274.883 614.395C273.108 615.192 252.523 544.211 254.871 473.816C258.043 391.975 283.757 333.068 282.709 332.426C281.158 331.447 235.655 398.124 225.858 496.359C216.243 611.866 253.194 682.638 251.628 683.812C250.049 684.986 206.251 616.366 215.656 505.778C224.195 405.447 272.591 333.515 281.493 321.035C282.415 319.75 281.563 317.961 280.892 317.499C276.727 314.635 272.521 314.187 272.521 314.187C291.346 303.803 308.801 320.868 311.331 328.121C314.489 335.375 318.025 338.505 318.025 338.505C334.487 355.765 384.687 414.602 394.791 429.639C401.695 438.751 400.353 441.253 416.983 433.468C433.6 425.684 444.039 423.77 444.039 423.77C444.039 423.77 441.678 427.725 439.33 430.967C433.894 438.179 411.394 443.167 404.769 443.615C404.769 443.615 400.087 445.082 393.896 436.543C387.132 427.445 368.615 408.62 368.615 408.62C375.365 417.439 394.791 449.191 394.791 449.191C394.791 449.191 397.292 452.587 401.695 452.867C407.439 454.055 425.075 453.607 425.075 453.607C424.097 456.751 403.302 461.462 398.997 461.839ZM319.199 328.611C320.652 327.73 342.132 341.551 374.429 373.039C401.415 398.991 425.075 425.684 425.075 425.684C418.297 424.203 401.247 406.551 401.247 406.551C389.997 394.715 380.117 384.596 371.508 375.987C332.768 337.261 317.717 329.491 319.199 328.611ZM812.511 471.65C796.063 378.712 746.045 319.68 746.045 319.68C752.32 315.963 759.979 315.375 759.979 315.375C737.423 301.847 732.139 308.011 696.545 325.075C660.963 342.139 620.366 379.495 607.215 393.415C600.269 400.794 596.007 406.468 592.723 410.437C589.802 413.959 583.01 410.968 577.056 409.655C577.056 409.655 570.655 402.723 563.612 400.081C556.555 397.439 546.548 389.502 543.306 374.785C541.349 365.38 543.306 366.163 546.436 360.67C549.595 355.178 557.631 340.462 553.299 329.295C548.994 318.115 540.525 316.55 513.735 341.398C513.735 341.398 507.418 338.756 499.633 338.449C499.633 338.449 489.194 323.314 472.717 318.758C472.717 318.758 469.195 318.171 468.315 322C467.42 325.815 470.075 329.491 471.11 334.927C472.144 340.378 475.358 350.216 478.6 355.821C478.6 355.821 476.099 358.615 474.785 361.551C474.785 361.551 473.011 366.12 471.263 366.847C469.503 367.588 464.192 368.021 460.223 369.489C460.223 369.489 458.308 369.796 457.567 367.727C456.841 365.659 452.719 367.727 455.22 377.427C455.22 377.427 455.667 379.789 454.773 381.997C453.906 384.205 452.411 388.314 457.861 388.761C457.861 388.761 458.742 392.73 461.397 394.644C464.052 396.559 473.458 397.873 479.481 397.873C483.156 398.013 483.911 401.059 483.911 401.059C483.911 401.059 482.919 404.987 475.065 407.739C467.239 410.465 460.181 414.392 458.211 418.906C458.211 418.906 444.683 418.711 439.176 416.935C433.698 415.175 430.162 407.335 417.039 393.415C403.889 379.495 363.319 342.139 327.723 325.075C292.143 308.011 286.846 301.847 264.29 315.375C264.29 315.375 271.935 315.963 278.209 319.68C278.209 319.68 228.206 378.712 211.743 471.65C195.266 564.587 217.612 661.074 268.986 716.361C268.986 716.361 235.263 641.466 258.015 628.525C268.217 623.018 281.158 632.452 281.158 632.452C281.158 632.452 272.13 584.991 298.012 570.079C323.895 555.181 347.429 587.339 347.429 587.339C347.429 587.339 344.675 551.673 382.325 544.588C419.975 537.53 444.683 588.526 430.162 621.075C430.162 621.075 426.249 629.195 420.366 631.85C414.496 634.507 411.841 642.444 413.895 647.14C413.895 647.14 414.496 644.051 416.69 642.738C416.69 642.738 416.69 651.263 421.092 654.645C421.092 654.645 419.052 647 423.16 642.15C423.16 642.15 424.782 643.185 424.782 645.533C424.782 647.895 424.195 657.147 429.631 658.335C429.631 658.335 427.716 653.904 429.478 648.607C429.478 648.607 430.959 649.055 431.546 650.83C432.133 652.59 433.74 659.354 438.463 659.494C438.463 659.494 435.962 655.386 435.668 646.553C435.361 637.734 440.364 633.179 446.541 642.291C446.541 642.291 446.835 639.943 447.422 637.735C448.008 635.527 446.988 632.731 444.347 629.796C441.678 626.847 437.569 620.377 441.678 612.006C445.815 603.62 458.895 601.258 467.28 619.063C480.767 646.762 483.115 665.783 502.135 685.768C507.235 691.456 512.127 697.535 512.127 697.535C512.127 697.535 517.047 691.456 522.134 685.768C541.154 665.783 543.502 646.762 556.987 619.063C565.359 601.258 578.454 603.62 582.576 612.006C586.685 620.377 582.576 626.847 579.935 629.796C577.294 632.731 576.246 635.527 576.832 637.735C577.434 639.943 577.713 642.291 577.713 642.291C583.89 633.179 588.893 637.734 588.599 646.553C588.307 655.386 585.805 659.494 585.805 659.494C590.515 659.354 592.135 652.59 592.736 650.83C593.31 649.055 594.777 648.607 594.777 648.607C596.538 653.904 594.623 658.335 594.623 658.335C600.074 657.147 599.487 647.895 599.487 645.533C599.487 643.185 601.094 642.15 601.094 642.15C605.231 647 603.162 654.645 603.162 654.645C607.578 651.263 607.578 642.738 607.578 642.738C609.787 644.051 610.373 647.14 610.373 647.14C612.427 642.444 609.787 634.507 603.889 631.85C598.019 629.195 594.092 621.075 594.092 621.075C579.586 588.526 604.294 537.53 641.943 544.588C679.579 551.673 676.839 587.339 676.839 587.339C676.839 587.339 700.374 555.181 726.256 570.079C752.139 584.991 743.096 632.452 743.096 632.452C743.096 632.452 756.051 623.018 766.253 628.525C789.005 641.466 755.269 716.361 755.269 716.361C806.656 661.074 829.003 564.587 812.511 471.65Z" fill="#0C0A09"/>
<path d="M513.621 505.389C516.35 504.149 519.476 508.486 518.421 511.289C517.385 514.063 515.294 513.148 514.239 511.289C513.203 509.43 511.311 509.106 511.311 509.106C511.929 505.713 513.621 505.389 513.621 505.389ZM518.739 518.872C522.085 515.154 527.103 513.62 527.103 513.62C525.649 510.168 524.614 510.168 522.284 506.745C519.994 503.353 517.923 498.396 511.61 499.311C505.317 500.255 502.808 506.451 501.772 510.493C500.717 514.535 498.626 517.013 498.626 517.013C495.699 520.111 499.263 518.872 506.393 522.619C513.502 526.337 515.394 522.619 518.739 518.872Z" fill="#0C0A09"/>
<path d="M505.364 482.271C504.744 481.88 504.124 481.6 503.535 481.6L503.416 481.615C502.708 481.671 503.712 485.318 506.721 495.702C508.108 500.495 509.671 505.918 511.205 511.452C512.68 517.056 513.949 522.702 515.1 527.663C516.9 535.783 518.05 540.646 519.172 542.296C519.23 542.435 519.289 542.422 519.378 542.534L519.408 542.547C519.525 542.729 519.673 542.841 519.82 542.897C519.761 542.869 519.702 542.827 519.644 542.785C519.761 542.855 519.85 543.065 519.968 543.065C521.443 542.994 521.03 536.133 520.558 532.066C518.876 515.868 512.356 486.841 505.364 482.271Z" fill="#F5F5F5"/>
<path d="M508.905 499.2C508.626 499.284 508.905 500.849 509.771 505.796C510.554 510.311 511.756 517.131 512.846 525.279L512.888 525.32C512.888 525.32 512.958 525.335 513.042 525.335L513.181 525.279C513.321 525.251 513.517 525.18 513.712 524.999C513.783 524.957 513.811 524.999 513.866 524.915C514.453 524.23 514.97 522.441 514.23 517.759C512.986 509.933 509.534 499.2 508.905 499.2Z" fill="#F5F5F5"/>
<path d="M508.821 511.223C504.16 495.807 502.271 486.262 501.15 480.546C500.147 475.585 499.764 473.754 498.672 473.6L498.495 473.642C497.345 474.313 496.135 491.698 502.921 511.544C511.241 534.282 520.622 547.461 524.34 549.571C524.399 549.613 524.399 549.613 524.458 549.641C524.753 549.794 525.107 550.032 525.313 550.032C525.432 550.032 525.52 550.004 525.609 549.963C526.523 549.543 525.166 546.986 522.452 541.857C518.941 535.162 513.601 525.044 508.821 511.223Z" fill="#F5F5F5"/>
<path d="M520.719 570.51C517.238 559.008 511.426 539.764 508.327 515.166C505.259 490.612 506.174 468.293 506.705 454.96C507.03 447.371 507.118 443.543 506.646 442.229C506.528 441.893 506.41 441.67 506.203 441.642C506.174 441.628 506.174 441.6 506.174 441.6C506.056 441.6 505.967 441.614 505.879 441.67C503.223 442.998 496.939 468.153 501.778 516.942C505.407 555.486 521.103 581.691 522.962 581.691L522.991 581.676C523.109 581.663 523.079 581.494 523.139 581.41C523.198 581.341 523.256 581.285 523.286 581.159C523.551 580.083 522.637 576.953 520.719 570.51Z" fill="#F5F5F5"/>
<path d="M511.591 512.463C510.753 506.328 509.886 497.425 509.034 488.802C507.665 474.981 506.784 466.498 506.183 466.4C506.155 466.4 506.127 466.414 506.099 466.442C505.414 467.238 504.883 486.399 508.419 513.218C510.725 533.022 517.698 558.261 518.244 558.261C518.467 558.191 518.16 555.941 516.622 546.298C515.337 538.206 513.408 525.95 511.591 512.463Z" fill="#F5F5F5"/>
<path d="M532.634 593.742C532.564 593.378 532.27 592.778 531.6 591.52C528.302 585.385 518.267 566.714 507.073 517.478C499.079 479.954 495.096 452.757 493.196 439.676C492.064 432.031 491.7 429.6 491.393 429.6C491.365 429.6 491.323 429.627 491.323 429.642C490.513 430.634 493.629 468.773 504.054 518.4C510.706 550.152 519.721 571.912 525.828 583.694C526.051 584.141 526.261 584.504 526.485 584.923C526.82 585.58 527.183 586.251 527.519 586.852C527.854 587.453 528.162 587.97 528.483 588.515C528.665 588.822 528.874 589.172 529.042 589.466C529.308 589.899 529.518 590.263 529.769 590.611C529.978 590.947 530.188 591.296 530.384 591.562C530.496 591.73 530.594 591.855 530.691 592.023C530.985 592.414 531.236 592.791 531.46 593.071C532.005 593.728 532.368 594.119 532.536 594.119C532.564 594.119 532.592 594.119 532.606 594.106C532.662 594.091 532.69 594.05 532.704 594.007C532.718 593.979 532.648 593.868 532.648 593.812C532.648 593.798 532.634 593.77 532.634 593.742Z" fill="#F5F5F5"/>
<path d="M510.901 512.177C509.169 505.846 507.29 498.662 505.47 491.717C501.104 475.03 498.396 464.8 497.774 464.8L497.685 464.842C496.96 465.681 500.867 485.581 508.311 513.686C515.577 541.106 525.73 559.317 527.003 559.317L527.076 559.302C527.268 559.121 526.44 556.898 523.836 549.994C520.269 540.505 514.275 524.615 510.901 512.177Z" fill="#F5F5F5"/>
<path d="M497.868 476C497.868 476 497.772 476 497.725 476.042C496.655 476.909 502.6 494.057 508.808 509.527C516.062 527.612 525.361 547.849 526.86 547.849H526.908C528.477 547.569 520.272 524.886 513.708 508.745C507.238 492.938 499.342 476 497.868 476Z" fill="#F5F5F5"/>
<path d="M505.127 496L504.979 496.042C504.124 496.517 506.455 505.154 509.523 512.826C512.385 519.912 516.486 527.57 518.167 527.57C518.315 527.57 518.433 527.542 518.522 527.473C520.027 526.592 517.666 518.109 514.479 510.744C511.529 503.756 506.927 496 505.127 496Z" fill="#F5F5F5"/>
<path d="M524.091 585.34C519.129 572.441 508.875 545.621 505.192 509.159C502.405 478.259 505.115 453.383 506.573 440.037C507.238 434.055 507.596 430.561 507.213 429.387C507.187 429.303 507.162 429.261 507.136 429.191C507.085 429.108 507.059 428.912 507.008 428.87C506.957 428.842 506.906 428.828 506.854 428.828C506.854 428.828 506.726 428.8 506.701 428.8C506.624 428.8 506.574 428.828 506.497 428.87C503.99 430.296 495.5 465.262 498.083 511.521C500.768 558.549 522.94 595.402 526.623 595.402C526.623 595.402 526.725 595.388 526.75 595.388C526.93 595.36 526.981 595.122 527.058 594.899C527.058 594.885 527.058 594.885 527.083 594.871C527.262 593.837 526.213 590.972 524.091 585.34Z" fill="#F5F5F5"/>
<path d="M506.47 480.8L506.4 480.828C506.4 480.828 506.415 481.206 506.4 481.359V481.499C506.443 483.023 507.365 488.193 509.07 497.417C509.699 500.841 510.412 504.6 511.124 508.499C511.795 512.189 512.605 517.29 513.486 522.685C515.61 535.724 516.924 543.634 517.455 543.634C517.567 543.634 517.651 543.578 517.72 543.495C518.265 542.865 518.824 539.315 516.532 522.615C512.815 498.884 507.476 480.8 506.47 480.8Z" fill="#F5F5F5"/>
<path d="M508.097 490.4C508.084 490.4 508.041 490.414 508.041 490.428C507.888 490.582 508.167 491.895 508.824 495.179C509.495 498.478 510.403 503.005 511.13 507.827C512.01 513.725 512.821 519.944 513.478 524.947C514.512 532.843 514.693 534.046 514.833 534.046C515.183 533.934 515.952 521.845 513.66 507.045C512.639 499.694 508.531 490.4 508.097 490.4Z" fill="#F5F5F5"/>
<path d="M520.808 481.615L520.719 481.6C520.1 481.6 519.481 481.88 518.831 482.271C511.839 486.869 505.348 515.911 503.637 532.108C503.135 537.069 502.782 543.009 504.227 543.079C504.316 543.079 504.463 542.855 504.582 542.785C504.493 542.841 504.434 542.883 504.375 542.897C504.523 542.869 504.67 542.715 504.818 542.534C504.847 542.519 504.876 542.506 504.876 542.478C504.965 542.394 505.024 542.408 505.083 542.296C506.145 540.661 507.355 535.825 509.155 527.678C510.275 522.702 511.515 517.056 513.049 511.466C514.524 505.918 516.087 500.495 517.475 495.715C520.513 485.318 521.487 481.684 520.808 481.615Z" fill="#F5F5F5"/>
<path d="M512.11 512C512.069 512.082 512 512.234 512 512.234C512.028 512.165 512.069 512.11 512.11 512Z" fill="#F5F5F5"/>
<path d="M509.174 517.774C508.419 522.455 508.95 524.259 509.523 524.929C509.594 524.999 509.622 524.957 509.691 525.013C509.901 525.195 510.069 525.264 510.236 525.279L510.376 525.348C510.474 525.348 510.53 525.335 510.53 525.335L510.572 525.292C511.648 517.145 512.85 510.311 513.632 505.797C514.498 500.863 514.764 499.298 514.485 499.2C513.87 499.2 510.488 509.738 509.174 517.774Z" fill="#F5F5F5"/>
<path d="M519.102 490.4C518.128 490.4 509.513 499.694 507.36 507.058C502.521 521.845 504.114 533.934 504.852 534.046C505.176 534.046 505.619 532.718 507.861 524.654C509.189 519.734 510.9 513.614 512.7 507.814C514.264 503.034 516.152 498.52 517.538 495.235C518.955 491.923 519.544 490.568 519.22 490.428L519.102 490.4Z" fill="#F5F5F5"/>
<path d="M518.196 481.317C518.182 481.178 518.196 480.828 518.196 480.828L518.126 480.8C517.12 480.8 511.795 498.884 508.064 522.601C505.772 539.33 506.344 542.88 506.89 543.495C506.96 543.592 507.044 543.634 507.156 543.634C507.686 543.634 509.014 535.668 511.138 522.531C512.004 517.192 512.816 512.161 513.473 508.499C514.185 504.544 514.912 500.744 515.54 497.292C517.232 488.221 518.14 483.106 518.196 481.541V481.317Z" fill="#F5F5F5"/>
<path d="M518.6 496C516.888 496 512.286 503.757 509.306 510.73C506.12 518.11 503.759 526.593 505.264 527.473C505.352 527.543 505.47 527.571 505.618 527.571C507.3 527.571 511.43 519.898 514.262 512.826C517.272 505.308 519.632 496.518 518.806 496.042C518.747 496.014 518.688 496 518.6 496Z" fill="#F5F5F5"/>
<path d="M520.378 476C519.525 476 514.885 492.938 511.07 508.758C507.227 524.9 502.391 547.568 503.314 547.862C504.208 547.862 509.687 527.625 513.949 509.527C517.596 494.056 521.091 476.908 520.475 476.042C520.434 476 520.406 476 520.378 476Z" fill="#F5F5F5"/>
<path d="M526.18 464.842L526.097 464.8C525.495 464.8 522.952 475.03 518.815 491.717C517.111 498.662 515.335 505.832 513.7 512.177C510.487 524.629 504.84 540.505 501.459 549.994C499.012 556.885 498.244 559.121 498.426 559.302L498.482 559.317C499.683 559.317 509.284 541.106 516.147 513.686C523.148 485.581 526.837 465.681 526.18 464.842Z" fill="#F5F5F5"/>
<path d="M532.51 429.6C532.202 429.6 531.826 432.018 530.707 439.705C528.779 452.772 524.81 479.996 516.816 517.464C505.65 566.672 495.602 585.358 492.318 591.493C491.633 592.736 491.353 593.338 491.283 593.715L491.255 593.827L491.199 593.98C491.227 594.036 491.298 594.092 491.298 594.092L491.367 594.106C491.605 594.106 492.29 593.323 493.282 591.898C493.366 591.787 493.422 591.702 493.491 591.59C493.743 591.227 494.022 590.78 494.302 590.346C494.47 590.081 494.638 589.83 494.833 589.508C495.113 589.061 495.406 588.516 495.699 588.013C495.923 587.635 496.118 587.3 496.356 586.881C496.831 586.043 497.334 585.078 497.866 584.086C497.935 583.96 497.978 583.876 498.034 583.75C504.154 571.997 513.169 550.209 519.849 518.386C530.288 468.76 533.377 430.634 532.58 429.642L532.51 429.6Z" fill="#F5F5F5"/>
<path d="M517.729 466.4C517.156 466.484 516.387 474.492 515.171 487.558C514.389 496.21 513.48 506.006 512.614 512.463C510.657 526.956 508.533 539.702 507.122 548.114C505.752 556.262 505.458 558.191 505.654 558.261C506.143 558.261 512.81 533.021 515.13 513.218C518.582 486.888 518.581 467.322 517.826 466.442C517.798 466.414 517.77 466.4 517.729 466.4Z" fill="#F5F5F5"/>
<path d="M514.518 441.6C514.462 441.614 514.42 441.865 514.378 441.963C514.365 442.033 514.337 442.047 514.322 442.131C514.085 443.291 514.113 447.079 514.266 454.947C514.532 468.279 514.951 490.598 513.512 515.167C512.045 539.778 509.291 559.036 507.642 570.524C506.72 576.967 506.286 580.097 506.426 581.187C506.441 581.285 506.469 581.327 506.482 581.411C506.51 581.495 506.51 581.676 506.566 581.704C507.461 581.704 514.881 555.472 516.614 516.942C518.906 468.153 515.929 442.983 514.672 441.67C514.629 441.628 514.588 441.6 514.518 441.6Z" fill="#F5F5F5"/>
<path d="M524.821 473.6C523.7 473.74 523.346 475.598 522.343 480.574C521.192 486.29 519.304 495.835 514.643 511.208C509.833 525.044 504.552 535.162 500.983 541.857C498.327 546.971 496.97 549.543 497.884 549.948C497.973 549.99 498.062 550.019 498.179 550.019C498.415 550.019 498.74 549.781 499.006 549.627L499.123 549.571C502.811 547.446 512.194 534.268 520.543 511.544C527.359 491.698 526.149 474.299 524.998 473.643L524.821 473.6Z" fill="#F5F5F5"/>
<path d="M518.222 428.856C518.222 428.856 518.12 428.8 518.018 428.8C517.915 428.8 517.788 428.814 517.711 428.856C517.635 428.897 517.635 429.107 517.583 429.205L517.507 429.331C517.099 430.435 517.431 433.943 518.12 440.022C519.575 453.369 522.307 478.245 519.473 509.145C515.848 545.607 505.586 572.44 500.634 585.325C497.979 592.327 496.958 595.178 498.004 595.374L498.132 595.388C501.783 595.388 523.94 558.534 526.62 511.507C529.199 465.248 520.723 430.295 518.222 428.856Z" fill="#F5F5F5"/>
</g>
<defs>
<clipPath id="clip0_1039_771">
<rect width="800" height="800" fill="white" transform="translate(112 112)"/>
</clipPath>
</defs>
</svg>
