<svg width="1000" height="1000" viewBox="0 0 1000 1000" fill="none" xmlns="http://www.w3.org/2000/svg">
<path d="M500.016 0C223.882 0 0.015625 223.835 0.015625 499.974C0.015625 776.147 223.882 1000 500.016 1000C776.132 1000 999.998 776.147 999.998 499.974C999.998 223.835 776.132 0 500.016 0Z" fill="#FFFFFE"/>
<path d="M500.019 68.7266C261.828 68.7266 68.7422 261.816 68.7422 500.011C68.7422 738.188 261.828 931.277 500.019 931.277C738.21 931.277 931.278 738.188 931.278 500.011C931.278 261.816 738.21 68.7266 500.019 68.7266Z" fill="#BC2432"/>
<path d="M500.017 77.8263C267.241 77.8263 77.8416 267.212 77.8416 500.009C77.8416 732.806 267.241 922.156 500.017 922.156C732.792 922.156 922.192 732.806 922.192 500.009C922.192 267.212 732.792 77.8263 500.017 77.8263ZM500.017 940.36C257.197 940.36 59.6562 742.816 59.6562 500.009C59.6562 257.202 257.197 59.6406 500.017 59.6406C742.82 59.6406 940.36 257.202 940.36 500.009C940.36 742.816 742.82 940.36 500.017 940.36Z" fill="#0C0A09"/>
<path d="M500.017 968.922C241.021 968.922 31.095 758.975 31.095 500.009C31.095 241.025 241.021 31.078 500.017 31.078C758.997 31.078 968.922 241.025 968.922 500.009C968.922 758.975 758.997 968.922 500.017 968.922ZM500.017 0C223.884 0 0 223.835 0 499.974C0 776.147 223.884 999.983 500.017 999.983C776.134 999.983 1000 776.147 1000 499.974C1000 223.835 776.134 0 500.017 0Z" fill="#BC2432"/>
<path d="M500.018 42.4386C247.712 42.4386 42.4674 247.704 42.4674 499.997C42.4674 752.307 247.712 957.537 500.018 957.537C752.306 957.537 957.568 752.307 957.568 499.997C957.568 247.704 752.306 42.4386 500.018 42.4386ZM500.018 980.283C235.169 980.283 19.7227 764.833 19.7227 499.997C19.7227 235.178 235.169 19.7109 500.018 19.7109C764.866 19.7109 980.295 235.178 980.295 499.997C980.295 764.833 764.866 980.283 500.018 980.283Z" fill="#0C0A09"/>
<path d="M384.144 162.228L375.855 164.671L371.459 153.423L380.168 150.889C380.736 150.707 381.262 150.597 381.809 150.506C382.061 150.452 382.314 150.397 382.566 150.36C383.134 150.269 383.702 150.215 384.207 150.215C385.533 150.215 386.669 150.524 387.615 151.053C387.889 151.163 388.12 151.327 388.373 151.491C388.751 151.782 389.088 152.092 389.403 152.457C389.53 152.603 389.635 152.821 389.74 152.986C390.014 153.405 390.287 153.824 390.497 154.353C391.844 157.817 389.614 160.606 384.144 162.228ZM366.41 140.534L374.972 138.055C376.381 137.617 377.665 137.417 378.738 137.417C379.81 137.417 380.736 137.636 381.472 138.037C381.578 138.11 381.704 138.164 381.83 138.219C382.125 138.438 382.44 138.711 382.714 139.021C382.777 139.076 382.798 139.149 382.861 139.222C383.092 139.532 383.324 139.896 383.471 140.334C384.081 141.865 383.892 143.232 382.966 144.381C381.998 145.548 380.252 146.514 377.728 147.261L369.944 149.558L366.41 140.534ZM392.201 148.72C391.654 148.428 391.128 148.282 390.603 148.082C390.539 148.063 390.476 148.045 390.413 148.009C389.193 147.626 387.952 147.371 386.332 147.371C385.764 147.371 385.091 147.389 384.376 147.444C386.227 146.204 390.624 142.959 388.73 138.055C388.288 136.961 387.51 136.086 386.627 135.339C386.627 135.339 386.605 135.32 386.605 135.302C384.965 133.953 382.693 133.133 379.852 133.133C378.085 133.133 376.234 133.443 374.32 133.99L359.825 138.256C359.783 138.256 359.762 138.274 359.762 138.292C359.741 138.31 359.741 138.328 359.762 138.347L372.132 169.958C372.153 169.976 372.174 169.994 372.195 170.013H372.237L388.225 165.309C394.957 163.322 398.092 158.363 395.967 152.967C395.231 151.09 393.969 149.649 392.201 148.72Z" fill="#0C0A09"/>
<path d="M412.917 145.083L416.634 129.044L427.252 142.388L412.917 145.083ZM417.517 122.482C417.517 122.464 417.497 122.445 417.456 122.445L412.938 123.288C412.897 123.288 412.876 123.325 412.856 123.362L404.477 159.215C404.477 159.252 404.497 159.288 404.518 159.307C404.538 159.325 404.559 159.325 404.579 159.325L409.755 158.354C409.796 158.354 409.837 158.317 409.837 158.28L411.89 149.684L430.333 146.201L436.083 153.35C436.083 153.368 436.124 153.386 436.144 153.386L441.279 152.433C441.299 152.433 441.34 152.396 441.34 152.378C441.361 152.341 441.361 152.323 441.34 152.286L417.517 122.482Z" fill="#0C0A09"/>
<path d="M469.63 137.925C469.613 137.907 469.578 137.907 469.56 137.907C469.525 137.925 469.508 137.925 469.49 137.96C468.809 139.812 468.407 140.58 467.516 141.611C465.857 143.567 463.568 144.79 461.07 145.052C460.738 145.087 460.406 145.105 460.074 145.105C451.724 145.105 449.977 136.754 449.61 133.173C448.842 125.539 452.51 120.001 458.747 119.372C459.096 119.337 459.446 119.32 459.795 119.32C464.843 119.32 466.73 123.216 467.743 125.294C467.761 125.312 467.778 125.364 467.813 125.364C467.848 125.382 467.848 125.364 467.866 125.347L470.94 122.15C470.958 122.115 470.958 122.08 470.958 122.063C470.853 121.766 468.285 115.18 459.812 115.18C459.236 115.18 458.659 115.197 458.065 115.267C453.681 115.704 450.1 117.783 447.724 121.242C445.331 124.718 444.335 129.295 444.859 134.448C444.999 135.968 446.711 149.175 459.533 149.175C460.179 149.175 460.86 149.14 461.542 149.07C469.613 148.284 471.971 143.061 472.949 140.842C472.967 140.807 472.967 140.772 472.932 140.755L469.63 137.925Z" fill="#0C0A09"/>
<path d="M497.118 137.232L504.499 121.023L511.478 137.412L497.118 137.232ZM506.832 114.193L502.367 114.133L502.267 114.193L485.695 150.435V150.535L485.775 150.575L490.944 150.654L491.004 150.594L495.047 141.872L513.469 142.111L517.29 150.893L517.35 150.953L522.458 151.013L522.539 150.973L522.559 150.893L506.932 114.252L506.832 114.193Z" fill="#0C0A09"/>
<path d="M559.252 130.754C559.179 130.791 559.154 130.828 559.106 130.865C558.545 131.197 557.887 131.437 557.156 131.621C557.009 131.658 556.887 131.695 556.79 131.732C555.986 131.898 555.132 131.99 554.157 131.99H553.792C553.28 131.99 552.695 131.971 552.11 131.898L540.629 130.847L542.311 120.428L553.304 121.442C554.084 121.535 554.815 121.627 555.498 121.756C555.571 121.774 555.644 121.774 555.693 121.793C556.863 122.014 557.862 122.364 558.691 122.77C558.838 122.844 559.033 122.899 559.179 122.991C559.593 123.213 559.91 123.471 560.203 123.747C560.276 123.803 560.3 123.895 560.373 123.95C561.251 124.872 561.592 126.034 561.373 127.454C561.129 128.892 560.398 129.998 559.252 130.754ZM555.547 117.515L536.753 115.781L536.68 115.8C536.656 115.818 536.656 115.837 536.631 115.855L531.195 149.323C531.195 149.379 531.22 149.416 531.293 149.434L537.362 150.006C537.411 150.006 537.509 149.987 537.509 149.932L539.922 134.959L550.769 135.991L559.008 151.96C559.008 151.997 559.057 152.016 559.106 152.016L565.638 152.661C565.687 152.661 565.712 152.643 565.736 152.624C565.76 152.587 565.76 152.569 565.76 152.532L557.277 135.844C563.932 135.051 567.247 132.635 567.978 128.062C568.856 122.715 563.64 118.289 555.547 117.515Z" fill="#0C0A09"/>
<path d="M601.484 144.519C599.751 150.96 595.484 154.646 589.822 154.646C588.829 154.646 587.815 154.534 586.759 154.311L577.526 152.375L584.224 127.54L593.054 129.383C596.498 130.109 598.758 131.375 600.216 133.386C602.223 136.085 602.688 140.051 601.484 144.519ZM594.111 125.139L580.104 122.234C580.062 122.234 579.998 122.253 579.977 122.29L571.02 155.428C571.02 155.465 571.02 155.484 571.041 155.503C571.041 155.521 571.083 155.54 571.104 155.54L585.787 158.612C587.392 158.947 588.977 159.114 590.54 159.114C598.801 159.114 604.885 154.144 607.209 145.468C608.624 140.274 607.843 135.247 605.033 131.357C602.857 128.229 599.392 126.256 594.111 125.139Z" fill="#0C0A09"/>
<path d="M634.411 126.736L629.572 125.129C629.537 125.111 629.502 125.111 629.485 125.146L624.838 129.95C624.82 129.968 624.82 130.003 624.82 130.038C624.838 130.055 624.838 130.09 624.855 130.09L627.965 131.103C627.982 131.103 628.017 131.103 628.035 131.103L634.428 126.893C634.463 126.876 634.463 126.841 634.463 126.806C634.463 126.771 634.446 126.753 634.411 126.736Z" fill="#0C0A09"/>
<path d="M627.353 135.644L623.196 134.247C623.143 134.229 623.108 134.264 623.091 134.299L612.994 164.644C612.976 164.661 612.976 164.679 612.994 164.696C612.994 164.713 613.011 164.731 613.046 164.748L617.204 166.128C617.256 166.128 617.291 166.111 617.308 166.094L627.406 135.749C627.423 135.732 627.423 135.697 627.406 135.679C627.388 135.662 627.371 135.644 627.353 135.644Z" fill="#0C0A09"/>
<path d="M261.342 774.354L261.307 774.284L256.503 769.515L256.398 769.498L232.658 782.25L245.218 758.37V758.282L240.361 753.478L240.309 753.461L240.257 753.478L217.722 776.136V776.258L220.517 779.054L220.569 779.071L220.639 779.054L240.274 759.278L226.666 785.081L226.683 785.168L229.723 788.225L229.828 788.242L255.507 774.424L235.872 794.182V794.304L238.667 797.082L238.719 797.117L238.772 797.082L261.307 774.407L261.342 774.354Z" fill="#0C0A09"/>
<path d="M268.002 805.336L282.887 797.712L278.776 813.014L268.002 805.336ZM285.191 791.662C285.152 791.644 285.114 791.644 285.095 791.662L251.784 808.715C251.746 808.715 251.727 808.751 251.727 808.786C251.727 808.804 251.746 808.839 251.765 808.857L255.648 811.616C255.667 811.616 255.705 811.616 255.743 811.616L263.738 807.548L277.634 817.419L275.464 825.68C275.464 825.715 275.464 825.751 275.502 825.769L279.328 828.511C279.347 828.528 279.366 828.528 279.385 828.528C279.404 828.511 279.48 828.493 279.48 828.458L288.598 794.156C288.617 794.121 288.598 794.085 288.579 794.085L285.191 791.662Z" fill="#0C0A09"/>
<path d="M322.097 826.86C321.924 827.157 321.673 827.419 321.462 827.646C321.327 827.786 321.212 827.926 321.077 828.031C320.654 828.45 320.134 828.729 319.614 828.939C319.422 829.026 319.23 829.114 319.018 829.166C318.652 829.254 318.287 829.288 317.883 829.306C317.786 829.306 317.69 829.288 317.613 829.288C316.363 829.254 314.996 828.852 313.515 828.066L305.683 823.821L311.283 815.261L318.787 819.331C321.077 820.554 322.443 821.899 322.866 823.349C323.155 824.467 322.924 825.62 322.097 826.86ZM322.097 816.571L309.243 809.635L309.108 809.67L291.078 837.132V837.202L291.136 837.255L295.292 839.491L295.408 839.473L303.451 827.192L310.898 831.193L310.09 847.457L310.147 847.527L314.592 849.92L314.631 849.937H314.669L314.708 849.85L315.631 832.975C316.112 833.097 316.497 833.079 316.94 833.132C317.267 833.184 317.594 833.237 317.902 833.272C318.344 833.306 318.864 833.429 319.268 833.429C322.424 833.429 324.752 832.119 326.619 829.306C329.505 824.904 327.6 819.576 322.097 816.571Z" fill="#0C0A09"/>
<path d="M354.072 833.626C352.115 832.735 350.089 832.281 348.045 832.281C341.861 832.281 336.253 836.526 333.039 843.654C332.358 845.191 326.803 858.66 340.219 864.669C342.333 865.63 344.411 866.119 346.368 866.119C350.211 866.119 352.832 864.25 354.229 863.254L354.264 863.15L352.797 859.044L352.727 858.992L352.657 859.009C351.12 860.285 350.386 860.739 349.111 861.193C348.01 861.577 346.892 861.787 345.757 861.787C344.411 861.787 343.066 861.49 341.809 860.931C339.625 859.953 332.917 855.865 337.808 844.929C340.132 839.723 344.149 836.614 348.517 836.614C349.897 836.614 351.259 836.911 352.604 837.539C357.985 839.933 357.636 844.632 357.426 847.165L357.461 847.235L357.531 847.252L361.793 846.012L361.863 845.942C361.915 845.593 363.068 837.662 354.072 833.626Z" fill="#0C0A09"/>
<path d="M395.92 870.073L381.584 866.263L393.899 854.224L395.92 870.073ZM398.299 848.911L393.836 847.73C393.794 847.713 393.773 847.713 393.752 847.748L366.131 874.742C366.11 874.76 366.089 874.796 366.11 874.831C366.11 874.849 366.131 874.867 366.152 874.867L371.31 876.263C371.331 876.263 371.394 876.263 371.415 876.227L378.089 869.751L396.531 874.653L397.667 883.185C397.688 883.221 397.709 883.239 397.752 883.257L402.846 884.599C402.867 884.599 402.93 884.599 402.93 884.581C402.972 884.563 402.994 884.527 402.972 884.491L398.383 848.983C398.362 848.947 398.341 848.929 398.299 848.911Z" fill="#0C0A09"/>
<path d="M445.939 864.957L455.469 865.937C459.227 866.302 461.777 867.378 463.589 869.281C466.072 871.837 467.079 875.854 466.452 880.562C465.401 887.98 460.905 892.228 454.06 892.228C453.5 892.228 452.896 892.208 452.315 892.151L442.316 891.132L445.939 864.957ZM456.028 861.479L440.862 859.922L440.772 860.018L435.918 894.937L435.94 895.014L436.007 895.053L451.845 896.648C452.785 896.744 453.724 896.802 454.596 896.802C464.506 896.802 471.195 890.863 472.604 880.947C473.364 875.469 471.866 870.415 468.376 866.725C465.647 863.727 461.732 862.055 456.028 861.479Z" fill="#0C0A09"/>
<path d="M500.048 867.776L500.135 867.723L501.34 863.95L501.323 863.863L501.253 863.845L481.356 863.758L481.268 863.845L481.094 895.797L481.111 895.849L481.181 895.884L501.218 895.989L501.305 895.901L501.288 895.849L500.03 892.041L499.96 892.006L485.636 891.918L485.688 881.315L498.772 881.384L498.842 881.367L498.86 881.297L498.877 877.471L498.79 877.401L485.706 877.349L485.775 867.706L500.048 867.776Z" fill="#0C0A09"/>
<path d="M553.203 862.581L554.321 858.441C554.339 858.406 554.321 858.371 554.304 858.353C554.286 858.336 554.269 858.336 554.251 858.336L534.511 861.288C534.476 861.306 534.441 861.341 534.441 861.393L539.193 892.995C539.193 893.048 539.228 893.065 539.245 893.065L543.63 892.401C543.648 892.401 543.648 892.401 543.665 892.384C543.665 892.366 543.683 892.349 543.683 892.331L541.569 878.286L553.203 876.557C553.238 876.557 553.256 876.539 553.273 876.522C553.273 876.504 553.291 876.487 553.291 876.469L552.697 872.538C552.679 872.504 552.679 872.486 552.662 872.486C552.644 872.469 552.627 872.451 552.609 872.469L540.975 874.233L539.542 864.677L553.133 862.651C553.168 862.651 553.203 862.616 553.203 862.581Z" fill="#0C0A09"/>
<path d="M579.122 850.373L582.267 849.534C582.284 849.534 582.302 849.517 582.319 849.482L585.324 842.424C585.359 842.407 585.324 842.372 585.307 842.354C585.307 842.319 585.272 842.302 585.237 842.319L580.31 843.63C580.275 843.647 580.258 843.665 580.241 843.699L579.035 850.268C579.035 850.303 579.035 850.338 579.053 850.355C579.07 850.373 579.088 850.373 579.122 850.373Z" fill="#0C0A09"/>
<path d="M596.372 870.617L582.039 873.939L584.826 857.995L596.372 870.617ZM585.305 851.494C585.284 851.476 585.222 851.458 585.201 851.476L580.708 852.524C580.687 852.542 580.645 852.56 580.645 852.596L574.384 888.258C574.363 888.276 574.384 888.312 574.404 888.33C574.425 888.349 574.446 888.349 574.488 888.349L579.647 887.157C579.688 887.157 579.709 887.121 579.73 887.085L581.269 878.526L599.679 874.228L605.962 880.981C606.003 880.999 606.045 881.017 606.087 880.999L611.183 879.826C611.204 879.826 611.246 879.79 611.246 879.772C611.266 879.735 611.246 879.699 611.225 879.681L585.305 851.494Z" fill="#0C0A09"/>
<path d="M630.416 850.521C629.926 850.738 629.416 850.954 628.844 851.135L621.431 853.811L617.449 845.061L625.597 842.15C627.047 841.644 628.354 841.373 629.477 841.355C629.599 841.355 629.681 841.373 629.763 841.373C630.661 841.391 631.417 841.59 632.07 841.933C632.152 841.988 632.234 841.988 632.315 842.042C632.622 842.259 632.928 842.512 633.193 842.801C633.255 842.874 633.357 843.018 633.357 843.018C633.602 843.325 633.806 843.651 633.969 844.03C634.664 845.531 634.582 846.887 633.724 848.062C633.581 848.297 633.357 848.514 633.153 848.713C633.01 848.839 632.846 848.984 632.662 849.129C632.111 849.599 631.417 850.032 630.559 850.448L630.416 850.521ZM628.109 868.49L623.146 857.571L631.417 854.624C633.01 854.064 634.46 853.775 635.766 853.775C638.523 853.775 640.504 855.04 641.648 857.571C642.281 858.981 642.322 860.301 641.709 861.512C640.912 863.175 638.952 864.622 635.991 865.67L628.109 868.49ZM642.934 851.895C641.403 851.135 639.953 850.846 638.094 850.846C637.298 850.846 636.359 850.9 635.276 851.009C637.012 849.707 641.096 846.326 638.932 841.518C638.421 840.487 637.625 839.637 636.726 838.95L636.685 838.914C635.154 837.757 633.173 837.07 630.743 837.07C628.823 837.07 626.802 837.45 624.719 838.191L610.914 843.09L610.853 843.199L624.821 873.896L624.903 873.95L624.943 873.932L640.136 868.545C646.569 866.249 649.265 861.205 646.855 855.962C646.018 854.1 644.711 852.744 642.934 851.895Z" fill="#0C0A09"/>
<path d="M662.745 824.277C663.112 824.295 663.444 824.331 663.776 824.438C663.968 824.491 664.143 824.598 664.335 824.669C664.806 824.883 665.261 825.203 665.628 825.63C665.75 825.737 665.837 825.879 665.942 826.022C666.134 826.253 666.344 826.538 666.518 826.858C667.287 828.3 667.427 829.706 666.92 830.97C666.431 832.216 665.278 833.355 663.549 834.298L656.247 838.339L651.53 829.421L658.518 825.559C659.968 824.758 661.278 824.349 662.396 824.313C662.518 824.295 662.64 824.277 662.745 824.277ZM668.754 835.188C672.196 831.753 672.807 828.46 670.728 824.562C669.191 821.679 666.449 820.023 663.147 820.023C662.658 820.023 662.151 820.166 661.68 820.237L661.487 820.273C660.212 820.451 658.902 820.842 657.662 821.519L645.73 828.086L645.695 828.158V828.211L660.911 856.85L660.981 856.903L661.016 856.885L664.876 854.767L664.911 854.714V854.643L658.116 841.863L665.034 838.054L678.607 847.167H678.694L682.817 844.889L682.852 844.818L682.817 844.746L668.754 835.188Z" fill="#0C0A09"/>
<path d="M683.709 805.651L680.04 808.097L680.023 808.184L697.684 834.842L697.719 834.895L697.772 834.877L701.44 832.449L701.458 832.344L683.831 805.686L683.709 805.651Z" fill="#0C0A09"/>
<path d="M738.992 801.85L734.039 801.231L733.958 801.25L733.938 801.347C734.44 803.476 734.52 804.406 734.319 805.935C733.958 808.761 732.554 811.22 730.268 813.021C729.285 813.756 726.698 815.479 723.249 815.479C719.278 815.479 715.427 813.292 711.797 808.916C709.109 805.664 707.665 802.218 707.706 798.888C707.746 795.578 709.21 792.712 711.957 790.583C713.782 789.17 715.728 788.453 717.713 788.453C720.501 788.453 722.767 789.77 724.271 790.641L724.312 790.66H724.412L724.472 790.602L725.415 785.782L725.375 785.704C725.094 785.491 722.366 783.633 718.275 783.633C714.966 783.633 711.757 784.833 708.728 787.195C704.777 790.234 702.631 794.319 702.511 798.985C702.371 803.651 704.276 808.51 708.026 812.982C709.089 814.26 714.705 820.513 722.587 820.513C726.237 820.513 729.807 819.138 733.256 816.486C740.516 810.852 739.514 804.599 739.072 801.928L738.992 801.85Z" fill="#0C0A09"/>
<path d="M757.403 770.867L748.374 780.187L742.264 765.067L757.403 770.867ZM773.196 772.089L739.326 759.231C739.272 759.194 739.254 759.213 739.236 759.249L736.389 762.149C736.371 762.167 736.371 762.204 736.371 762.24L749.951 796.018C749.97 796.054 749.988 796.073 750.024 796.091C750.042 796.091 750.078 796.073 750.096 796.054L753.342 792.698C753.36 792.68 753.36 792.644 753.36 792.625L750.151 784.491L761.755 772.527L769.914 775.572C769.95 775.591 769.968 775.572 770.005 775.554L773.214 772.235C773.232 772.217 773.25 772.18 773.25 772.162C773.232 772.125 773.214 772.107 773.196 772.089Z" fill="#0C0A09"/>
<path d="M181.428 701.853C181.428 701.853 159.382 641.199 172.606 622.455C185.848 603.693 204.592 616.567 204.592 616.567C204.592 616.567 200.924 565.836 228.857 544.873C256.807 523.91 290.627 557.731 290.627 557.731C290.627 557.731 301.283 525.377 333.654 513.62C365.989 501.864 396.857 535.684 402.744 559.949C408.631 584.214 401.294 608.846 397.975 616.567C394.656 624.271 404.229 614.366 404.229 614.366C404.229 614.366 412.666 590.084 418.187 587.149C423.724 584.214 448.356 590.084 453.492 614.366C458.645 638.614 469.668 658.843 477.389 671.718C485.111 684.576 500.553 702.954 500.553 702.954C500.553 702.954 524.433 682.741 533.989 649.654C543.562 616.567 555.703 595.587 569.294 587.883C582.902 580.161 591.724 597.823 593.925 613.615C596.127 629.425 602.747 616.567 602.747 616.567C602.747 616.567 591.008 591.184 597.611 565.452C604.232 539.72 624.811 512.887 646.874 509.201C668.938 505.532 703.125 522.809 707.527 557.364C707.527 557.364 725.922 538.235 758.641 539.353C791.361 540.471 795.781 598.539 793.58 611.397C793.58 611.397 832.536 612.515 834.02 636.797C835.488 661.045 818.211 704.072 818.211 704.072C818.211 704.072 857.551 665.097 868.557 583.847C879.597 502.597 873.361 451.115 862.687 395.248C852.014 339.346 816.01 275.006 805.336 257.729C794.663 240.452 788.059 236.399 791.728 233.831C795.396 231.263 803.869 228.695 803.869 228.695C803.869 228.695 789.894 218.405 773.717 223.908C757.541 229.428 715.633 255.161 715.633 255.161C715.633 255.161 604.599 351.12 599.079 357.007C593.576 362.877 578.867 355.907 577.767 355.156C576.666 354.422 542.462 329.056 538.042 317.299C533.657 305.508 533.273 299.655 540.243 286.396C547.248 273.172 554.969 252.575 546.148 241.919C537.308 231.263 511.943 258.113 500.92 265.45L482.525 261.415C482.525 261.415 464.165 236.399 448.705 236.032C448.705 236.032 446.155 239.351 447.971 243.753C449.823 248.156 451.29 260.314 451.29 260.314L460.095 278.675L454.208 290.816C454.208 290.816 453.614 294.869 440.128 297.314C426.659 299.76 429.349 305.647 430.083 311.779C430.817 317.893 431.568 319.623 434.503 321.579C437.437 323.536 443.569 330.157 451.395 330.401C459.239 330.646 467.083 326.244 469.057 334.088C471.031 341.931 439.411 355.907 439.411 355.907L432.546 363.978L401.154 359.575C401.154 359.575 329.968 272.438 268.931 245.972L243.932 233.097C243.932 233.097 226.656 222.423 218.567 223.174C210.462 223.908 196.137 229.044 196.137 229.044C196.137 229.044 206.916 231.752 207.789 235.56C208.645 239.351 195.403 254.427 195.403 254.427C195.403 254.427 138.786 357.357 127.763 440.092C116.723 522.809 122.977 638.614 181.428 701.853Z" fill="#FFFFFE"/>
<path d="M858.036 456.378C845.772 333.585 788.893 250.239 786.954 251.462C785.661 252.265 817.805 325.899 821.77 428.2C824.722 516.193 798.973 604.92 796.737 603.924C794.553 602.963 813.193 535.06 811.201 428.182C809.507 345.604 777.888 247.304 775.931 247.549C773.957 247.793 778.377 329.166 758.043 421.823C737.691 514.463 709.758 552.704 708.273 551.464C706.806 550.258 736.958 486.268 752.226 397.558C767.197 312.011 768.332 248.789 766.376 248.527C764.402 248.282 712.204 313.74 650.922 408.354C650.922 408.354 647.009 413.735 641.611 413.228C636.213 412.757 610.237 406.869 608.997 402.939C608.997 402.939 631.077 403.498 638.24 402.013C643.76 401.664 646.887 397.418 646.887 397.418C646.887 397.418 671.152 357.728 679.607 346.705C679.607 346.705 656.425 370.236 647.988 381.609C640.266 392.282 634.379 390.448 634.379 390.448C626.116 389.889 597.991 383.653 591.178 374.638C588.243 370.586 585.291 365.642 585.291 365.642C585.291 365.642 598.34 368.035 619.111 377.765C639.882 387.496 638.24 384.369 646.887 372.979C659.5 354.182 722.249 280.636 742.827 259.061C742.827 259.061 747.264 255.148 751.16 246.081C754.357 237.015 776.176 215.684 799.689 228.664C799.689 228.664 794.448 229.223 789.243 232.804C788.387 233.381 787.338 235.617 788.474 237.224C799.619 252.824 860.097 342.739 870.788 468.152C882.545 606.387 827.779 692.162 825.84 690.695C823.866 689.227 870.037 600.762 858.036 456.378ZM599.546 611.768C599.546 611.768 594.619 611.541 593.624 604.413C592.645 597.321 592.646 595.102 590.689 591.678C588.715 588.254 585.815 577.703 591.196 577.703C591.196 577.703 596.349 602.701 599.546 611.768ZM584.627 568.758C583.16 562.137 579.491 560.652 579.491 560.652C580.959 566.19 571.019 570.226 565.516 575.746C559.996 581.266 553.375 586.402 553.375 586.402C551.908 582.367 555.594 577.213 559.28 573.545C562.931 569.859 558.162 567.273 558.162 567.273C558.162 567.273 568.835 555.15 577.64 555.15C586.461 555.15 590.147 574.279 590.147 574.279C590.147 574.279 586.095 575.379 584.627 568.758ZM551.908 494.863C551.908 494.863 548.728 490.705 546.265 489.482C543.802 488.259 540.623 484.067 540.623 478.197C540.623 472.31 538.683 471.331 536.465 471.087C536.465 471.087 535.225 476.974 538.683 484.329C542.107 491.683 544.553 498.549 544.553 499.999C544.553 499.999 537.688 497.448 537.129 491.91C536.587 486.408 533.478 484.94 533.478 480.153C533.478 475.367 529.6 469.672 532.534 466.545C532.534 466.545 532.36 463.977 529.984 462.335C527.573 460.675 523.171 457.548 522.42 453.32C522.42 453.32 520.952 458.456 522.804 464.344C522.804 464.344 517.843 462.684 518.751 459.575C519.677 456.43 518.943 454.229 517.843 453.32C516.725 452.412 514.698 449.075 515.624 444.865C516.55 440.62 514.367 438.244 514.367 438.244C514.367 438.244 519.869 438.611 522.07 447.975C522.07 447.975 523.713 445.407 523.171 442.105C522.612 438.803 521.878 432.532 524.621 428.322C524.621 428.322 524.272 430.523 526.665 433.283C529.041 436.026 527.94 440.253 533.093 442.647C533.093 442.647 534.194 438.803 532.727 436.602C531.259 434.384 528.115 430.89 528.691 427.745C528.691 427.745 522.979 422.435 524.272 418.015C525.564 413.613 523.538 409.577 520.952 408.459C520.952 408.459 519.485 410.293 520.952 413.613C520.952 413.613 519.118 417.84 520.411 420.6C521.686 423.343 521.686 427.029 520.044 428.497C518.384 429.964 521.511 433.283 518.577 437.319C518.577 437.319 518 435.659 516.55 434.384C515.083 433.091 513.249 430.89 514.698 428.13C516.183 425.387 511.03 422.994 512.69 418.749C514.367 414.521 510.855 411.778 510.855 411.778C510.855 411.778 508.27 413.613 509.563 418.749C510.855 423.902 510.681 425.003 509.004 427.221C507.361 429.422 507.903 431.624 507.903 431.624C507.903 431.624 502.942 430.156 504.252 425.387C505.51 421.317 499.64 419.308 499.64 419.308C499.64 419.308 498.697 414.713 500.182 410.293L498.54 407.918C498.54 407.918 495.395 415.622 497.072 421.893C498.697 428.13 498.54 432.008 498.54 432.008C498.54 432.008 500.915 428.322 500.182 425.544C500.182 425.544 502.575 426.103 502.575 429.964C502.575 433.825 505.877 435.659 502.191 439.712C502.191 439.712 498.889 437.86 498.54 435.502C498.54 435.502 497.614 440.62 498.697 443.747C498.697 443.747 495.238 444.673 494.295 446.717C494.295 446.717 491.919 442.839 493.194 439.345C494.487 435.851 495.762 435.502 495.395 433.091C495.046 430.715 492.845 422.994 494.871 420.793C494.871 420.793 494.487 416.914 494.679 414.172C494.679 414.172 491.744 412.687 492.093 410.119C492.46 407.533 491.919 403.69 489.525 402.013C489.525 402.013 490.818 399.462 490.067 397.977C489.333 396.51 489.525 393.016 491.552 391.916C491.552 391.916 492.268 399.812 495.587 404.406C495.587 404.406 494.295 400.563 495.954 397.803C495.954 397.803 492.845 395.217 493.945 391.549C495.046 387.88 493.578 385.103 491.744 384.561C491.744 384.561 490.259 377.573 492.845 372.612C495.395 367.651 495.954 361.763 493.753 361.047C493.753 361.047 491.744 356.977 494.137 353.867C496.496 350.74 494.295 346.338 494.295 346.338C494.295 346.338 498.173 347.98 497.981 350.548C497.806 353.134 497.806 354.042 498.889 354.968C500.007 355.876 499.64 362.864 502.016 364.716C504.409 366.55 506.261 370.044 505.51 374.638C505.51 374.638 507.903 371.337 507.361 367.651C506.802 363.965 503.134 363.965 503.675 360.471C504.252 356.977 504.601 351.474 502.575 349.081C500.566 346.705 500.566 344.312 502.191 342.285C502.191 342.285 501.841 338.966 499.081 338.617C499.081 338.617 502.016 336.398 504.793 338.966C507.554 341.551 506.995 343.753 506.261 345.412C505.51 347.072 505.143 355.702 510.104 358.636C510.104 358.636 508.462 354.234 510.296 351.666C512.148 349.081 508.462 344.853 510.488 341.726C510.488 341.726 512.497 338.966 511.571 337.516C511.571 337.516 514.891 338.058 514.698 341.359C514.524 344.661 512.882 348.906 517.476 348.906C517.476 348.906 518.751 351.107 518 352.767C518 352.767 519.869 352.575 520.952 350.548C523.171 346.88 529.984 350.181 529.407 346.146C529.407 346.146 531.801 347.072 531.609 350.373C531.434 353.675 530.333 353.867 532.534 356.261C534.735 358.636 537.129 369.66 534.386 376.281C534.386 376.281 533.81 373.905 531.993 373.905C530.159 373.905 527.765 369.852 528.499 366.742C529.233 363.615 529.407 359.562 527.032 358.095C527.032 358.095 524.621 366.917 525.739 371.494C526.839 376.088 523.171 379.058 523.171 379.058C523.171 379.058 527.224 389.522 525.564 395.969C525.564 395.969 529.792 392.649 529.984 389.348C530.159 386.046 526.298 386.046 527.573 383.845C528.866 381.609 528.691 377.94 528.691 377.94C528.691 377.94 531.801 380.892 531.801 384.369C531.801 387.88 531.609 404.057 539.714 406.083C539.714 406.083 537.129 402.205 538.037 398.903C538.98 395.584 532.534 386.78 537.129 378.307C537.129 378.307 540.256 381.801 540.815 386.954C541.374 392.108 541.182 400.738 545.409 400.371C545.409 400.371 546.143 395.969 545.409 391.723C544.675 387.496 543.208 384.002 543.208 384.002C543.208 384.002 544.483 384.753 546.335 385.295C548.152 385.854 550.003 387.88 549.829 392.108C549.829 392.108 552.03 392.842 552.222 394.676C552.222 394.676 553.497 388.789 552.397 386.046C551.296 383.268 548.152 380.351 549.829 374.464C549.829 374.464 554.423 379.408 554.79 386.046C555.157 392.649 553.847 405.699 556.799 410.119C556.799 410.119 558.284 407.725 558.284 403.865C558.284 403.865 561.026 407.533 560.118 413.228C559.21 418.941 565.254 424.636 559.542 441.005C559.542 441.005 555.524 438.437 556.799 432.916C556.799 432.916 554.039 437.511 556.257 441.913C558.458 446.333 558.825 447.433 557.725 451.119C556.624 454.77 554.598 458.841 556.991 461.409C556.991 461.409 552.764 462.335 552.397 457.548C552.03 452.761 550.423 451.469 550.423 451.469C550.423 451.469 547.016 456.133 550.423 462.265C553.847 468.379 555.838 474.022 554.109 480.643C554.109 480.643 548.728 479.42 548.955 475.245C549.217 471.087 546.754 469.13 546.754 469.13C546.754 469.13 544.553 475.489 547.016 479.909C549.462 484.329 553.847 488.731 551.908 494.863ZM549.462 527.216C549.462 527.216 548.955 523.303 547.016 520.106C545.042 516.927 546.265 513.013 546.265 513.013C546.265 513.013 549.689 511.284 550.912 517.171C552.152 523.058 549.462 527.216 549.462 527.216ZM530.333 486.774C533.53 489.954 534.998 495.352 536.465 497.798C537.95 500.261 541.129 503.685 540.885 506.864C540.623 510.061 543.33 516.665 544.553 521.329C545.793 525.993 545.287 531.374 545.287 531.374C545.287 531.374 541.845 527.932 542.335 525.259C542.841 522.552 541.129 518.639 538.421 516.665C535.749 514.708 534.735 509.327 534.998 505.641C535.225 501.955 532.534 498.304 532.534 498.304C530.578 499.282 530.84 500.505 530.84 500.505C530.84 500.505 529.11 497.553 530.106 494.112C531.067 490.705 530.333 486.774 530.333 486.774ZM546.527 562.522C546.527 562.522 545.042 559.569 543.068 559.08C541.129 558.574 539.4 555.901 539.4 552.704C539.4 549.507 537.443 547.568 537.443 547.568C534.998 547.795 532.063 550.992 530.106 550.503C528.115 550.014 526.42 547.061 526.42 547.061C524.691 549.769 520.533 549.769 520.533 549.769C522.245 548.04 522.979 542.659 521.756 539.462C520.533 536.3 522.734 533.837 522.734 533.837C523.957 537.75 526.42 543.41 526.42 543.41C528.621 539.951 527.905 532.614 525.669 531.374C523.468 530.151 521.511 526.238 522.245 523.775C522.979 521.329 522.018 515.931 522.018 515.931C524.446 517.66 528.866 524.997 528.866 527.932C528.866 530.902 530.333 534.326 532.534 536.038C534.735 537.75 536.954 543.148 536.954 543.148C539.4 539.951 538.421 534.326 538.421 534.326C535.225 532.614 532.534 526.238 532.534 522.063C532.534 517.905 529.844 514.953 529.844 514.953L528.115 517.416C528.115 517.416 525.442 514.463 524.446 512.018C523.468 509.572 525.18 502.217 525.18 502.217C527.905 507.371 531.312 509.327 531.312 509.327C531.556 513.013 534.002 520.351 539.4 528.683C544.78 536.999 543.575 545.105 543.575 545.105C541.601 543.41 540.378 542.886 540.378 542.886C540.378 542.886 541.374 546.834 544.309 551.97C547.243 557.106 546.527 562.522 546.527 562.522ZM544.064 586.28C543.33 592.918 539.644 595.591 539.644 595.591C541.374 590.455 539.4 583.345 537.688 578.681C535.958 574.017 539.644 572.305 539.644 572.305C541.845 571.082 544.78 579.659 544.064 586.28ZM525.442 553.193C528.621 555.412 530.106 558.574 531.067 561.037C532.063 563.5 528.377 564.95 531.312 569.614C534.264 574.279 532.063 579.659 532.063 579.659C531.801 577.458 528.621 577.213 526.42 574.017C524.219 570.837 525.669 564.234 526.176 559.569C526.665 554.905 525.442 553.193 525.442 553.193ZM536.71 615.209C536.71 615.209 534.002 613.724 533.286 609.829C532.534 605.881 529.6 605.147 529.6 605.147C529.11 607.855 531.067 614.703 531.801 619.612C532.534 624.52 529.6 627.717 529.6 627.717C529.355 625.01 527.905 622.808 525.914 620.607C523.957 618.389 525.669 614.458 525.669 614.458C523.957 612.991 522.018 610.807 522.018 604.92C522.018 599.033 519.555 594.875 519.555 594.875C515.135 593.128 516.113 588.97 516.62 585.302C517.109 581.633 514.891 577.458 514.891 577.458C518.577 578.681 523.957 588.499 523.712 593.635C523.468 598.771 527.398 602.457 527.398 602.457C531.067 600.256 525.914 592.167 527.398 588.97C528.866 585.791 527.154 580.882 527.154 580.882C531.067 583.083 531.801 588.97 532.534 593.128C533.286 597.321 533.757 602.212 535.958 605.881C538.159 609.567 536.71 615.209 536.71 615.209ZM525.669 654.166C522.49 664.718 518.821 664.473 518.821 664.473C518.821 664.473 523.223 657.608 522.245 652.961C521.267 648.279 524.691 642.409 523.957 638.234C523.223 634.076 526.176 631.386 526.176 631.386C526.176 631.386 528.866 643.649 525.669 654.166ZM517.843 623.298C519.31 620.607 519.31 614.965 517.843 615.209C516.376 615.454 515.624 618.389 515.624 618.389C512.934 615.454 513.65 610.545 514.646 606.876C515.624 603.19 514.891 600.256 514.891 600.256C519.555 602.457 519.799 611.768 522.018 616.921C524.219 622.075 524.691 628.434 522.245 630.39C519.799 632.364 518.577 635.806 518.577 635.806C516.113 631.631 516.376 625.988 517.843 623.298ZM508.025 505.397C510.226 513.013 511.956 511.022 514.384 519.372C516.847 527.705 512.2 531.88 512.2 531.88C512.934 529.679 512.445 521.835 509.266 519.11C506.069 516.437 507.781 514.463 507.292 512.018C506.802 509.572 508.025 505.397 508.025 505.397ZM510.226 469.357C506.802 468.379 508.025 464.955 508.532 461.514C509.004 458.09 507.781 454.176 507.781 454.176C511.467 456.378 515.624 465.951 515.397 469.619C515.135 473.288 516.375 478.686 516.375 478.686C512.934 477.463 513.65 470.353 510.226 469.357ZM516.113 564.723C514.891 562.033 516.847 557.106 516.847 557.106C516.847 557.106 520.044 561.037 520.533 565.946C521.022 570.837 516.847 572.811 516.847 572.811C516.847 572.811 517.336 567.396 516.113 564.723ZM513.912 670.116C512.445 684.318 507.781 690.45 507.781 690.45C507.781 690.45 509.266 684.091 508.776 676.247C508.27 668.404 511.571 663.233 510.978 651.965C510.978 648.069 506.453 643.405 508.637 638.618C510.855 633.814 508.27 629.063 508.27 629.063C504.252 624.276 508.27 617.288 508.27 617.288C509.266 624.276 511.711 626.722 513.912 632.12C516.113 637.5 511.956 639.963 511.956 639.963C513.65 644.121 515.397 655.913 513.912 670.116ZM503.134 678.326C503.134 678.326 504.601 667.286 503.868 660.298C503.134 653.31 503.501 651.493 505.702 651.109C505.702 651.109 507.554 651.493 507.554 655.162C507.554 658.848 506.069 670.238 503.134 678.326ZM500.566 477.568C501.3 473.55 500.915 468.763 500.915 468.763C505.702 476.101 503.868 487.508 503.868 487.508C499.448 484.573 499.832 481.638 500.566 477.568ZM500.356 700.006C498.155 689.961 498.959 679.182 500.356 679.182C502.645 679.427 500.356 700.006 500.356 700.006ZM492.845 655.162C492.845 651.493 494.679 651.109 494.679 651.109C496.88 651.493 497.247 653.31 496.496 660.298C495.762 667.286 497.247 678.326 497.247 678.326C494.295 670.238 492.845 658.848 492.845 655.162ZM489.665 649.764C487.447 648.069 487.447 644.61 487.447 642.654C487.447 640.697 487.202 641.658 485.717 638.024C484.023 631.875 486.958 625.01 486.958 625.01C486.713 628.434 489.665 636.277 490.381 641.448C491.115 646.584 489.665 649.764 489.665 649.764ZM483.272 375.984C479.848 376.979 480.092 381.609 481.333 384.072C482.538 386.518 481.333 389.225 478.869 390.448C476.406 391.671 475.673 394.361 475.673 394.361C473.716 386.273 476.651 375.756 478.38 374.516C480.092 373.293 480.337 370.83 480.337 370.83C477.647 367.895 479.114 363.965 480.599 361.519C482.049 359.073 484.023 354.426 484.023 354.426C485.49 360.051 486.713 375.005 483.272 375.984ZM474.048 654.166C470.851 643.649 473.559 631.386 473.559 631.386C473.559 631.386 476.494 634.076 475.76 638.234C475.026 642.409 478.45 648.279 477.472 652.961C476.494 657.608 480.896 664.473 480.896 664.473C480.896 664.473 477.245 664.718 474.048 654.166ZM468.091 619.874C466.606 615.698 472.493 609.078 472.493 609.078C472.493 609.078 473.961 613.724 471.27 616.188C468.563 618.651 474.45 619.612 474.45 619.612C472.249 622.808 471.026 630.39 471.026 630.39C467.584 628.434 469.541 624.031 468.091 619.874ZM469.314 582.122C469.314 588.726 471.27 598.037 471.27 598.037C471.27 598.037 466.868 594.613 466.868 590.455C466.606 587.503 469.314 582.122 469.314 582.122ZM467.34 402.712C468.807 400.738 469.541 395.095 469.541 395.095C469.541 395.095 471.515 404.668 471.27 407.603C471.026 410.538 468.563 412.267 468.563 412.267C464.65 408.354 465.872 404.668 467.34 402.712ZM462.71 377.206C462.71 377.206 464.912 372.804 463.671 368.629C462.448 364.471 466.362 361.763 465.139 360.541C463.916 359.318 460.719 361.047 460.719 361.047C462.186 353.448 469.069 349.011 469.069 349.011C467.34 351.719 466.117 358.095 467.829 356.627C469.541 355.16 472.004 354.653 472.004 354.653C470.03 356.855 469.314 364.716 468.563 369.136C467.829 373.538 462.71 377.206 462.71 377.206ZM458.448 606.457C455.705 604.605 455.129 600.011 455.339 596.342C455.705 589.704 455.339 582 455.339 582C455.339 582 459.024 591.556 459.024 597.443C459.024 603.313 463.06 604.064 463.06 604.064C462.728 605.846 461.033 607.558 458.448 606.457ZM462.868 325.357C460.3 326.65 450.01 329.428 445.591 323.348C445.591 323.348 451.845 321.514 458.448 321.514C465.069 321.514 472.79 320.78 476.459 320.029C476.459 320.029 477.944 321.689 480.337 322.056C480.337 322.056 477.384 323.156 474.45 322.807C471.515 322.422 465.453 324.099 462.868 325.357ZM431.982 314.142C430.148 311.225 431.616 306.613 431.616 306.613C431.982 306.071 433.293 305.337 433.293 309.198C433.293 313.793 442.289 314.142 439.145 312.884C436.035 311.591 435.301 307.172 436.227 304.219C437.136 301.284 442.097 300.376 444.123 301.843C446.15 303.311 444.84 305.704 443.564 304.97C442.289 304.219 438.603 304.778 439.529 307.905C441.922 313.234 445.032 311.032 445.032 311.032C448.351 309.39 453.854 313.985 453.504 306.246C451.845 296.882 441.538 301.669 441.538 299.625C441.538 297.616 443.757 297.791 449.644 296.882C455.531 295.956 456.631 292.655 458.273 288.794C459.933 284.916 461.767 281.439 470.222 273.892C478.677 266.363 486.399 273.351 486.399 273.351C490.451 272.443 492.652 273.543 494.679 274.993C496.688 276.478 499.832 279.413 503.134 281.072C506.453 282.714 507.361 284.007 506.61 286.208C505.877 288.41 507.187 290.261 507.187 290.261C503.501 290.453 501.474 292.48 501.474 292.48C501.474 292.48 502.383 295.782 504.601 300.184C506.802 304.604 503.868 309.198 500.374 307.905C496.88 306.613 493.019 308.639 493.753 310.299C494.487 311.941 493.386 313.041 493.386 313.041C489.892 313.041 486.765 315.243 488.442 317.286C490.067 319.313 489.333 321.689 489.333 321.689C484.372 316.553 479.586 318.02 480.529 316.727C481.437 315.435 480.145 311.941 480.145 311.941C478.503 316.92 471.515 317.828 461.575 317.286C451.653 316.727 447.058 317.479 442.831 317.828C438.603 318.212 433.834 317.094 431.982 314.142ZM453.504 257.349C451.653 250.553 450.203 247.619 450.203 247.619C455.146 249.82 459.025 262.869 459.566 265.804C460.108 268.756 461.959 267.272 463.427 265.263C464.912 263.236 467.462 262.869 467.462 262.869C467.462 262.869 462.134 275.185 459.758 273.892C457.347 272.6 455.339 264.162 453.504 257.349ZM478.887 260.948C479.533 262.328 479.778 265.07 477.664 265.804C476.249 266.416 474.415 265.996 473.157 263.603C471.148 259.742 465.628 248.352 459.933 245.033C454.221 241.731 451.653 238.045 451.653 238.045C466.134 241.941 476.162 254.921 478.887 260.948ZM510.488 260.843C517.668 257.174 518.384 256.248 519.485 254.239C519.485 254.239 517.109 254.589 513.79 256.441C510.488 258.275 533.093 238.604 541.374 241.731C541.374 241.731 522.804 245.959 515.991 270.765C514.174 279.238 510.296 276.111 505.702 276.111C505.702 276.111 507.361 273.7 509.196 272.792C511.03 271.866 512.69 267.848 512.69 267.848C512.69 267.848 508.27 268.756 505.143 270.765C502.016 272.792 499.832 272.058 499.832 272.058C499.832 272.058 503.309 264.529 510.488 260.843ZM546.684 245.417C546.684 245.417 550.912 254.781 545.409 269.857C539.906 284.916 535.294 288.235 534.735 288.794C534.194 289.353 532.36 286.96 533.093 282.715C533.81 278.487 531.609 274.993 531.609 274.993C531.609 274.993 535.295 277.194 536.028 279.605C536.779 281.981 544.675 266.555 545.793 253.873C546.335 246.867 546.684 245.417 546.684 245.417ZM541.374 354.426C543.802 358.829 540.885 360.541 544.309 366.183C547.75 371.808 545.042 378.202 545.042 378.202C545.042 378.202 544.064 375.25 540.378 372.315C536.709 369.363 539.155 362.497 539.155 362.497C535.749 359.073 534.998 354.898 535.225 350.007C535.487 345.098 530.106 337.988 530.106 337.988C536.71 340.189 538.911 350.007 541.374 354.426ZM547.995 345.412C548.536 348.155 548.152 349.255 548.152 349.255C551.488 352.382 548.903 357.92 548.903 357.92C548.903 357.92 548.903 355.527 545.601 353.5C542.3 351.474 542.107 347.613 542.474 345.412C542.841 343.211 540.43 339.717 540.43 339.717C540.43 339.717 547.418 341.359 547.995 345.412ZM563.891 393.383C558.039 390.937 559.507 381.853 559.507 381.853C564.905 385.784 563.891 393.383 563.891 393.383ZM560.485 363.493C564.415 369.363 564.905 377.451 564.905 377.451C564.905 377.451 560.729 376.717 559.734 371.808C558.773 366.917 557.533 362.025 554.86 359.562C552.152 357.099 552.152 355.405 552.152 355.405C552.152 355.405 556.572 357.606 560.485 363.493ZM672.305 302.228C712.693 262.869 739.508 245.592 741.377 246.693C743.194 247.793 724.397 257.506 675.973 305.914C665.195 316.675 652.844 329.323 638.799 344.119C638.799 344.119 617.469 366.183 608.997 368.035C608.997 368.035 638.572 334.668 672.305 302.228ZM445.538 359.562C442.831 362.025 441.608 366.917 440.63 371.808C439.651 376.717 435.494 377.451 435.494 377.451C435.494 377.451 435.965 369.363 439.896 363.493C443.809 357.606 448.229 355.405 448.229 355.405C448.229 355.405 448.229 357.099 445.538 359.562ZM446.971 586.402C446.971 586.402 440.385 581.266 434.847 575.746C429.345 570.226 419.422 566.19 420.907 560.652C420.907 560.652 417.221 562.137 415.736 568.758C414.286 575.379 410.233 574.279 410.233 574.279C410.233 574.279 413.919 555.15 422.724 555.15C431.546 555.15 442.219 567.273 442.219 567.273C442.219 567.273 437.433 569.859 441.119 573.545C444.787 577.213 448.456 582.367 446.971 586.402ZM409.866 591.678C407.927 595.102 407.927 597.321 406.932 604.413C405.971 611.541 401.045 611.768 401.045 611.768C404.207 602.701 409.377 577.703 409.377 577.703C414.758 577.703 411.858 588.254 409.866 591.678ZM358.769 413.228C353.372 413.735 349.458 408.354 349.458 408.354C288.177 313.74 235.979 248.282 234.023 248.527C232.049 248.789 233.202 312.011 248.138 397.558C263.441 486.268 293.575 550.258 292.107 551.464C290.623 552.704 262.69 514.463 242.338 421.823C221.987 329.166 226.424 247.793 224.45 247.549C222.493 247.304 190.874 345.604 189.18 428.182C187.188 535.06 205.828 602.963 203.627 603.924C201.408 604.92 175.676 516.193 178.611 428.2C182.576 325.899 214.719 252.265 213.409 251.462C211.47 250.239 154.591 333.585 142.345 456.378C130.326 600.762 176.515 689.227 174.558 690.695C172.584 692.162 117.836 606.387 129.593 468.152C140.266 342.739 200.762 252.824 211.889 237.224C213.042 235.617 211.977 233.381 211.138 232.804C205.932 229.223 200.674 228.664 200.674 228.664C224.205 215.684 246.024 237.015 249.186 246.081C253.134 255.148 257.554 259.061 257.554 259.061C278.132 280.636 340.881 354.182 353.511 372.979C362.141 384.369 360.464 387.496 381.252 377.765C402.023 368.035 415.072 365.642 415.072 365.642C415.072 365.642 412.12 370.586 409.185 374.638C402.39 383.653 374.265 389.889 365.984 390.448C365.984 390.448 360.132 392.282 352.393 381.609C343.938 370.236 320.792 346.705 320.792 346.705C329.229 357.728 353.511 397.418 353.511 397.418C353.511 397.418 356.638 401.664 362.141 402.013C369.321 403.498 391.367 402.939 391.367 402.939C390.144 406.869 364.15 412.757 358.769 413.228ZM259.021 246.693C260.838 245.592 287.688 262.869 328.059 302.228C361.792 334.668 391.367 368.035 391.367 368.035C382.894 366.183 361.582 344.119 361.582 344.119C347.519 329.323 335.169 316.675 324.408 305.914C275.983 257.506 257.169 247.793 259.021 246.693ZM875.662 425.492C855.101 309.32 792.579 235.53 792.579 235.53C800.423 230.883 809.996 230.149 809.996 230.149C781.801 213.239 775.197 220.943 730.704 242.273C686.227 263.603 635.48 310.299 619.041 327.698C610.359 336.922 605.031 344.015 600.926 348.976C597.275 353.378 588.785 349.64 581.343 347.998C581.343 347.998 573.342 339.333 564.538 336.031C555.716 332.729 543.208 322.807 539.155 304.411C536.709 292.655 539.155 293.633 543.068 286.767C547.016 279.902 557.061 261.507 551.646 247.549C546.265 233.573 535.679 231.617 502.191 262.677C502.191 262.677 494.295 259.375 484.564 258.991C484.564 258.991 471.515 240.072 450.919 234.377C450.919 234.377 446.517 233.643 445.416 238.43C444.298 243.199 447.617 247.793 448.91 254.589C450.203 261.402 454.22 273.7 458.273 280.706C458.273 280.706 455.146 284.199 453.504 287.868C453.504 287.868 451.286 293.58 449.102 294.489C446.901 295.415 440.263 295.956 435.301 297.791C435.301 297.791 432.908 298.175 431.982 295.589C431.074 293.004 425.921 295.589 429.048 307.713C429.048 307.713 429.607 310.666 428.489 313.426C427.405 316.186 425.536 321.322 432.349 321.881C432.349 321.881 433.45 326.842 436.769 329.235C440.088 331.629 451.845 333.271 459.374 333.271C463.968 333.446 464.912 337.254 464.912 337.254C464.912 337.254 463.671 342.163 453.854 345.604C444.071 349.011 435.249 353.92 432.786 359.562C432.786 359.562 415.876 359.318 408.993 357.099C402.145 354.898 397.725 345.098 381.322 327.698C364.884 310.299 314.171 263.603 269.677 242.273C225.201 220.943 218.58 213.239 190.385 230.149C190.385 230.149 199.941 230.883 207.784 235.53C207.784 235.53 145.28 309.32 124.701 425.492C104.105 541.663 132.038 662.272 196.255 731.381C196.255 731.381 154.102 637.762 182.541 621.586C195.294 614.703 211.47 626.495 211.47 626.495C211.47 626.495 200.185 567.169 232.538 548.529C264.891 529.906 294.309 570.103 294.309 570.103C294.309 570.103 290.867 525.521 337.929 516.665C384.991 507.842 415.876 571.588 397.725 612.274C397.725 612.274 392.834 622.424 385.48 625.743C378.143 629.063 374.824 638.985 377.391 644.855C377.391 644.855 378.143 640.994 380.885 639.352C380.885 639.352 380.885 650.008 386.388 654.236C386.388 654.236 383.838 644.68 388.973 638.618C388.973 638.618 391 639.911 391 642.846C391 645.798 390.266 657.363 397.062 658.848C397.062 658.848 394.668 653.31 396.87 646.689C396.87 646.689 398.721 647.248 399.455 649.467C400.189 651.668 402.198 660.123 408.102 660.298C408.102 660.298 404.975 655.162 404.608 644.121C404.224 633.098 410.478 627.403 418.199 638.793C418.199 638.793 418.566 635.858 419.3 633.098C420.033 630.338 418.758 626.844 415.457 623.175C412.12 619.489 406.984 611.401 412.12 600.937C417.291 590.455 433.642 587.503 444.123 609.759C460.981 644.383 463.916 668.159 487.691 693.14C494.067 700.25 500.182 707.849 500.182 707.849C500.182 707.849 506.331 700.25 512.69 693.14C536.465 668.159 539.4 644.383 556.257 609.759C566.721 587.503 583.09 590.455 588.243 600.937C593.379 611.401 588.243 619.489 584.942 623.175C581.64 626.844 580.33 630.338 581.063 633.098C581.815 635.858 582.164 638.793 582.164 638.793C589.885 627.403 596.139 633.098 595.772 644.121C595.406 655.162 592.279 660.298 592.279 660.298C598.166 660.123 600.192 651.668 600.943 649.467C601.66 647.248 603.494 646.689 603.494 646.689C605.695 653.31 603.302 658.848 603.302 658.848C610.115 657.363 609.381 645.798 609.381 642.846C609.381 639.911 611.39 638.618 611.39 638.618C616.561 644.68 613.975 654.236 613.975 654.236C619.495 650.008 619.495 639.352 619.495 639.352C622.256 640.994 622.989 644.855 622.989 644.855C625.557 638.985 622.256 629.063 614.884 625.743C607.547 622.424 602.638 612.274 602.638 612.274C584.505 571.588 615.39 507.842 662.452 516.665C709.496 525.521 706.072 570.103 706.072 570.103C706.072 570.103 735.49 529.906 767.843 548.529C800.196 567.169 788.893 626.495 788.893 626.495C788.893 626.495 805.087 614.703 817.839 621.586C846.279 637.762 804.109 731.381 804.109 731.381C868.343 662.272 896.276 541.663 875.662 425.492Z" fill="#0C0A09"/>
<path d="M494.132 289.47C497.543 287.921 501.451 293.342 500.132 296.846C498.837 300.313 496.223 299.169 494.904 296.846C493.61 294.522 491.245 294.117 491.245 294.117C492.017 289.876 494.132 289.47 494.132 289.47ZM500.53 306.324C504.712 301.677 510.985 299.759 510.985 299.759C509.167 295.444 507.873 295.444 504.961 291.166C502.098 286.925 499.509 280.729 491.618 281.873C483.752 283.053 480.616 290.798 479.321 295.85C478.002 300.903 475.388 304.001 475.388 304.001C471.729 307.873 476.185 306.324 485.097 311.008C493.983 315.655 496.348 311.008 500.53 306.324Z" fill="#0C0A09"/>
<path d="M421.389 452.495C420.615 452.006 419.84 451.656 419.103 451.656L418.955 451.674C418.07 451.744 419.324 456.303 423.086 469.283C424.819 475.275 426.773 482.053 428.691 488.971C430.535 495.976 432.121 503.034 433.559 509.235C435.809 519.385 437.247 525.464 438.649 527.526C438.722 527.7 438.796 527.683 438.907 527.823L438.944 527.84C439.091 528.067 439.276 528.207 439.46 528.277C439.386 528.242 439.312 528.19 439.239 528.137C439.386 528.225 439.497 528.487 439.644 528.487C441.488 528.399 440.972 519.822 440.382 514.738C438.28 494.491 430.129 458.207 421.389 452.495Z" fill="#FFFFFE"/>
<path d="M413.572 475.508C413.223 475.613 413.572 477.569 414.655 483.753C415.633 489.396 417.136 497.921 418.498 508.106L418.551 508.158C418.551 508.158 418.638 508.176 418.743 508.176L418.917 508.106C419.092 508.071 419.337 507.983 419.581 507.756C419.669 507.704 419.704 507.756 419.773 507.651C420.507 506.795 421.153 504.559 420.228 498.707C418.673 488.924 414.358 475.508 413.572 475.508Z" fill="#FFFFFE"/>
<path d="M185.926 553.348C180.099 534.079 177.738 522.148 176.337 515.003C175.083 508.801 174.604 506.512 173.239 506.32L173.018 506.373C171.58 507.211 170.068 528.943 178.55 553.75C188.95 582.172 200.677 598.646 205.324 601.284C205.398 601.336 205.398 601.336 205.472 601.371C205.84 601.563 206.283 601.86 206.541 601.86C206.689 601.86 206.799 601.825 206.91 601.773C208.053 601.249 206.357 598.052 202.964 591.641C198.575 583.273 191.9 570.625 185.926 553.348Z" fill="#FFFFFE"/>
<path d="M222.403 547.489C218.051 533.112 210.786 509.057 206.913 478.31C203.078 447.617 204.221 419.718 204.885 403.052C205.291 393.566 205.401 388.78 204.811 387.138C204.664 386.718 204.516 386.439 204.258 386.404C204.221 386.387 204.221 386.352 204.221 386.352C204.074 386.352 203.963 386.369 203.853 386.439C200.533 388.099 192.678 419.543 198.726 480.529C203.262 528.71 222.882 561.465 225.206 561.465L225.242 561.447C225.39 561.43 225.353 561.22 225.427 561.115C225.501 561.028 225.574 560.958 225.611 560.801C225.943 559.456 224.8 555.543 222.403 547.489Z" fill="#FFFFFE"/>
<path d="M231.204 473.329C230.156 465.66 229.073 454.532 228.008 443.753C226.296 426.476 225.195 415.872 224.444 415.75C224.409 415.75 224.374 415.767 224.339 415.802C223.483 416.798 222.819 440.749 227.239 474.272C230.121 499.027 238.838 530.576 239.52 530.576C239.799 530.489 239.415 527.676 237.493 515.622C235.886 505.508 233.475 490.187 231.204 473.329Z" fill="#FFFFFE"/>
<path d="M299.154 521.115C299.067 520.661 298.7 519.91 297.862 518.338C293.739 510.669 281.196 487.33 267.203 425.785C257.211 378.88 252.232 344.884 249.857 328.533C248.442 318.977 247.987 315.938 247.603 315.938C247.568 315.938 247.516 315.972 247.516 315.99C246.503 317.23 250.398 364.904 263.43 426.938C271.745 466.628 283.013 493.828 290.647 508.555C290.926 509.114 291.188 509.568 291.468 510.092C291.887 510.913 292.341 511.752 292.761 512.503C293.18 513.254 293.564 513.901 293.966 514.582C294.193 514.966 294.455 515.403 294.665 515.77C294.997 516.311 295.259 516.766 295.573 517.202C295.835 517.622 296.097 518.058 296.342 518.39C296.482 518.6 296.604 518.757 296.726 518.967C297.093 519.456 297.407 519.927 297.687 520.277C298.368 521.098 298.822 521.587 299.032 521.587C299.067 521.587 299.102 521.587 299.119 521.57C299.189 521.552 299.224 521.5 299.242 521.447C299.259 521.412 299.172 521.273 299.172 521.203C299.172 521.185 299.154 521.15 299.154 521.115Z" fill="#FFFFFE"/>
<path d="M301.166 447.049C299.001 439.136 296.652 430.156 294.377 421.474C288.919 400.616 285.534 387.828 284.757 387.828L284.646 387.881C283.74 388.929 288.623 413.805 297.928 448.936C307.011 483.211 319.702 505.974 321.293 505.974L321.385 505.956C321.625 505.729 320.59 502.951 317.334 494.321C312.876 482.46 305.383 462.597 301.166 447.049Z" fill="#FFFFFE"/>
<path d="M342.972 417.984C342.972 417.984 342.853 417.984 342.794 418.037C341.456 419.12 348.888 440.555 356.648 459.893C365.715 482.499 377.339 507.795 379.212 507.795H379.272C381.234 507.445 370.977 479.092 362.772 458.915C354.685 439.157 344.815 417.984 342.972 417.984Z" fill="#FFFFFE"/>
<path d="M370.248 425.688L370.063 425.74C368.994 426.334 371.907 437.13 375.743 446.721C379.32 455.578 384.446 465.151 386.548 465.151C386.733 465.151 386.88 465.116 386.991 465.029C388.872 463.928 385.921 453.324 381.938 444.118C378.25 435.383 372.497 425.688 370.248 425.688Z" fill="#FFFFFE"/>
<path d="M181.06 613.62C174.858 597.496 162.04 563.972 157.436 518.394C153.952 479.769 157.34 448.674 159.163 431.991C159.994 424.514 160.441 420.146 159.962 418.679C159.93 418.574 159.898 418.522 159.866 418.434C159.802 418.33 159.77 418.085 159.706 418.033C159.642 417.998 159.578 417.98 159.514 417.98C159.514 417.98 159.354 417.945 159.322 417.945C159.226 417.945 159.163 417.98 159.067 418.033C155.934 419.815 145.321 463.523 148.55 521.347C151.906 580.131 179.621 626.198 184.225 626.198C184.225 626.198 184.352 626.18 184.384 626.18C184.608 626.145 184.672 625.848 184.768 625.569C184.768 625.552 184.768 625.552 184.8 625.534C185.024 624.241 183.713 620.66 181.06 613.62Z" fill="#FFFFFE"/>
<path d="M383.314 426.922L383.227 426.957C383.227 426.957 383.245 427.429 383.227 427.621V427.795C383.28 429.7 384.433 436.163 386.564 447.693C387.35 451.973 388.241 456.672 389.132 461.546C389.97 466.158 390.983 472.534 392.084 479.278C394.739 495.577 396.381 505.464 397.045 505.464C397.185 505.464 397.29 505.394 397.377 505.29C398.058 504.503 398.757 500.066 395.892 479.19C391.245 449.527 384.572 426.922 383.314 426.922Z" fill="#FFFFFE"/>
<path d="M401.305 480.461C401.288 480.461 401.235 480.478 401.235 480.496C401.043 480.688 401.392 482.33 402.213 486.435C403.052 490.558 404.187 496.218 405.096 502.245C406.196 509.617 407.21 517.391 408.031 523.645C409.323 533.515 409.55 535.018 409.725 535.018C410.162 534.878 411.123 519.767 408.258 501.267C406.982 492.078 401.847 480.461 401.305 480.461Z" fill="#FFFFFE"/>
<path d="M593.343 451.674L593.232 451.656C592.458 451.656 591.684 452.006 590.872 452.495C582.132 458.242 574.018 494.544 571.879 514.791C571.252 520.992 570.81 528.417 572.617 528.504C572.728 528.504 572.912 528.225 573.06 528.137C572.949 528.207 572.875 528.26 572.801 528.277C572.986 528.242 573.17 528.05 573.355 527.823C573.391 527.805 573.428 527.788 573.428 527.753C573.539 527.648 573.613 527.666 573.686 527.526C575.014 525.482 576.526 519.437 578.776 509.253C580.177 503.034 581.726 495.976 583.644 488.988C585.488 482.053 587.442 475.275 589.176 469.3C592.974 456.303 594.191 451.761 593.343 451.674Z" fill="#FFFFFE"/>
<path d="M572.286 527.844C572.234 527.947 572.148 528.136 572.148 528.136C572.183 528.05 572.234 527.981 572.286 527.844Z" fill="#FFFFFE"/>
<path d="M580.334 498.717C579.39 504.569 580.054 506.823 580.77 507.661C580.858 507.748 580.893 507.696 580.98 507.766C581.242 507.993 581.452 508.08 581.661 508.098L581.836 508.185C581.958 508.185 582.028 508.168 582.028 508.168L582.081 508.115C583.426 497.931 584.928 489.388 585.906 483.746C586.989 477.579 587.321 475.622 586.972 475.5C586.203 475.5 581.976 488.672 580.334 498.717Z" fill="#FFFFFE"/>
<path d="M609.182 480.461C607.965 480.461 597.196 492.078 594.504 501.284C588.456 519.767 590.447 534.878 591.369 535.018C591.775 535.018 592.328 533.358 595.131 523.278C596.791 517.129 598.93 509.478 601.179 502.228C603.134 496.253 605.494 490.611 607.227 486.505C608.998 482.365 609.735 480.671 609.33 480.496L609.182 480.461Z" fill="#FFFFFE"/>
<path d="M617.322 427.568C617.305 427.394 617.322 426.957 617.322 426.957L617.235 426.922C615.977 426.922 609.321 449.527 604.657 479.173C601.792 500.084 602.508 504.521 603.19 505.29C603.277 505.412 603.382 505.464 603.522 505.464C604.185 505.464 605.845 495.507 608.5 479.085C609.583 472.412 610.597 466.123 611.418 461.546C612.309 456.602 613.217 451.851 614.003 447.536C616.117 436.198 617.252 429.804 617.322 427.848V427.568Z" fill="#FFFFFE"/>
<path d="M639.571 425.695C637.432 425.695 631.679 435.391 627.954 444.108C623.971 453.332 621.02 463.936 622.901 465.036C623.012 465.124 623.159 465.159 623.344 465.159C625.446 465.159 630.609 455.568 634.149 446.728C637.911 437.33 640.861 426.342 639.829 425.748C639.755 425.713 639.681 425.695 639.571 425.695Z" fill="#FFFFFE"/>
<path d="M657.727 417.977C656.661 417.977 650.861 439.149 646.092 458.925C641.288 479.102 635.244 507.437 636.397 507.804C637.515 507.804 644.363 482.508 649.691 459.886C654.25 440.547 658.618 419.112 657.849 418.029C657.797 417.977 657.762 417.977 657.727 417.977Z" fill="#FFFFFE"/>
<path d="M715.729 387.881L715.625 387.828C714.873 387.828 711.694 400.616 706.523 421.474C704.392 430.156 702.173 439.118 700.129 447.049C696.112 462.615 689.054 482.46 684.827 494.321C681.769 502.934 680.809 505.729 681.036 505.956L681.106 505.974C682.608 505.974 694.609 483.211 703.187 448.936C711.939 413.805 716.55 388.929 715.729 387.881Z" fill="#FFFFFE"/>
<path d="M752.77 315.945C752.385 315.945 751.914 318.968 750.516 328.576C748.106 344.91 743.144 378.94 733.152 425.775C719.194 487.285 706.634 510.642 702.529 518.311C701.673 519.865 701.323 520.617 701.236 521.088L701.201 521.228L701.131 521.42C701.166 521.49 701.254 521.56 701.254 521.56L701.341 521.577C701.638 521.577 702.494 520.599 703.734 518.817C703.839 518.678 703.909 518.573 703.996 518.433C704.311 517.979 704.66 517.42 705.009 516.878C705.219 516.546 705.429 516.232 705.673 515.83C706.023 515.271 706.389 514.59 706.756 513.961C707.036 513.489 707.28 513.07 707.577 512.546C708.171 511.498 708.8 510.292 709.464 509.052C709.551 508.895 709.604 508.79 709.674 508.633C717.325 493.941 728.593 466.706 736.943 426.928C749.992 364.895 753.853 317.238 752.857 315.998L752.77 315.945Z" fill="#FFFFFE"/>
<path d="M775.904 415.758C775.188 415.863 774.227 425.873 772.707 442.206C771.729 453.02 770.593 465.266 769.51 473.337C767.064 491.453 764.409 507.385 762.645 517.901C760.933 528.086 760.566 530.497 760.811 530.584C761.422 530.584 769.755 499.034 772.655 474.28C776.97 441.368 776.969 416.911 776.026 415.81C775.991 415.775 775.956 415.758 775.904 415.758Z" fill="#FFFFFE"/>
<path d="M800.19 386.352C800.12 386.369 800.067 386.683 800.015 386.806C799.998 386.893 799.963 386.911 799.945 387.015C799.648 388.465 799.683 393.2 799.875 403.035C800.207 419.701 800.731 447.599 798.932 478.31C797.098 509.074 793.656 533.147 791.595 547.507C790.442 555.56 789.9 559.473 790.075 560.836C790.093 560.958 790.128 561.01 790.145 561.115C790.18 561.22 790.18 561.447 790.25 561.482C791.368 561.482 800.644 528.692 802.81 480.529C805.675 419.543 801.954 388.081 800.382 386.439C800.329 386.387 800.277 386.352 800.19 386.352Z" fill="#FFFFFE"/>
<path d="M845.757 506.328C844.356 506.503 843.913 508.826 842.659 515.045C841.221 522.19 838.861 534.122 833.034 553.338C827.022 570.633 820.421 583.281 815.959 591.649C812.64 598.042 810.943 601.257 812.086 601.763C812.197 601.816 812.308 601.851 812.455 601.851C812.75 601.851 813.156 601.554 813.488 601.362L813.635 601.292C818.245 598.636 829.973 582.163 840.41 553.758C848.929 528.951 847.417 507.202 845.978 506.381L845.757 506.328Z" fill="#FFFFFE"/>
<path d="M858.016 418.023C858.016 418.023 857.889 417.953 857.761 417.953C857.633 417.953 857.474 417.971 857.378 418.023C857.282 418.075 857.282 418.337 857.218 418.46L857.123 418.617C856.612 419.997 857.027 424.382 857.889 431.981C859.707 448.664 863.122 479.76 859.58 518.385C855.049 563.962 842.221 597.503 836.031 613.61C832.712 622.362 831.436 625.926 832.744 626.171L832.904 626.188C837.467 626.188 865.164 580.121 868.514 521.337C871.737 463.513 861.143 419.822 858.016 418.023Z" fill="#FFFFFE"/>
</svg>
