<svg width="1024" height="1024" viewBox="0 0 1024 1024" fill="none" xmlns="http://www.w3.org/2000/svg">
<g clip-path="url(#clip0_1039_860)">
<path fill-rule="evenodd" clip-rule="evenodd" d="M0 0H1024V1024H0V0Z" fill="white"/>
<path fill-rule="evenodd" clip-rule="evenodd" d="M380.47 816.927C380.47 816.566 379.753 816.927 379.031 817.278L378.675 818.006L376.518 819.084L374.722 819.435L369.33 819.084H367.173L362.142 816.927L359.986 816.566L358.19 816.927L355.316 818.006L354.599 819.44H353.876L351.72 822.675C351.364 823.037 351.364 823.393 352.081 823.393L353.52 821.958L354.96 821.23C356.4 820.88 356.756 820.513 356.756 820.163C356.756 819.801 356.756 819.801 358.195 820.163H359.635L361.431 820.88H363.226L367.179 822.314H368.618L371.498 823.042L373.654 822.681L375.089 823.042L376.528 822.314L378.324 820.168L379.041 819.09L380.12 818.362C380.47 817.644 380.47 816.927 380.47 816.927ZM210.845 782.784C210.128 783.146 210.128 784.224 210.845 784.591L211.562 784.941L213.002 784.591H214.441C215.164 784.591 215.52 784.941 216.237 786.025C216.954 785.308 217.677 786.025 218.033 787.821V792.851L218.388 793.569L218.033 798.249L218.388 800.044L218.033 804.353V808.316L218.388 809.75L219.106 811.546C219.467 811.907 219.467 812.274 219.106 812.274L218.388 814.786L218.033 817.299L218.388 818.739L218.033 819.817V821.974L216.954 823.408L214.797 824.136L211.562 824.487L210.122 824.136H209.044V826.649C209.044 826.288 209.405 826.288 209.761 826.288L211.557 826.649L212.996 826.288L222.341 827.016L224.859 826.288L225.937 826.649L227.016 827.01L229.895 826.282L234.209 826.644L237.083 826.282L242.114 827.01L247.145 826.282L248.584 827.01H249.663V823.408L251.102 818.739V815.504L249.307 815.153L248.59 816.231L248.228 818.744L247.15 819.823V820.901L244.993 821.979L242.836 823.058H240.679L238.161 823.775L236.722 823.058L232.769 823.775L230.251 823.414H228.094C227.377 823.063 226.299 822.697 225.937 821.618L226.655 818.383L225.937 817.666V815.87L226.293 813.713L225.937 810.839L226.293 808.327L225.937 806.887V805.447H226.655L227.372 805.808L233.842 805.447L237.072 805.808H238.512L240.669 806.526L241.386 807.604L242.464 810.127L242.826 811.206H244.621L244.982 810.127L244.26 807.604V805.447L244.982 802.934L244.621 799.699L244.26 797.186C243.904 796.469 243.182 796.469 242.464 796.469V798.982L241.747 801.139L239.952 801.856L236.36 802.217H234.204L232.408 802.568L229.529 801.851H225.937L226.655 798.977L225.937 796.82V788.559L226.655 786.036L227.011 785.685L228.089 786.036H238.517L239.957 785.685L241.397 786.036C241.758 786.036 241.758 786.036 242.114 786.397C243.909 786.747 244.632 787.114 244.271 787.475L244.632 788.554L245.349 789.988L245.71 791.784L246.427 793.579L248.223 793.229L248.584 792.511L247.867 789.988V787.475L247.15 784.952L247.506 783.156C247.506 782.439 247.15 782.439 246.066 782.439L243.548 783.156L241.391 782.439L236.722 783.156L233.848 782.439L231.33 783.156H223.425L221.629 782.439L214.08 783.156L212.285 782.439L210.845 782.784ZM289.192 782.067L286.318 782.784H285.24L284.162 782.434L282.005 782.073H277.691L275.895 781.722H274.456L272.299 782.073L270.142 783.151H268.346L266.551 784.591L264.394 786.737L263.316 789.26L262.237 792.134L262.954 793.93V796.087L264.75 798.961L266.19 799.322L266.551 800.39L266.912 801.118L274.456 806.148L276.613 807.583L280.926 810.457L282.005 811.535L284.523 815.137L284.879 818.011L285.24 819.445L284.523 820.524L283.444 822.681L281.288 823.759L276.257 824.838H274.817L273.377 824.476L270.859 824.126L269.064 823.047L268.346 822.319L267.624 821.602L265.828 820.168L265.467 819.09L265.111 817.283L264.033 814.771C264.033 813.692 263.316 813.692 262.954 813.692L261.876 814.771L262.237 816.21L261.876 819.084L262.954 821.597V827.345H264.033L265.111 826.994L265.828 826.633L266.907 826.994H268.702L270.859 827.345L276.607 827.706L277.686 828.057L280.204 827.34H282.361L284.156 826.261L286.674 825.544L290.627 820.157L292.066 815.844L291.705 810.813L288.114 806.499L287.391 805.782L286.313 805.421L284.156 802.908L281.999 802.191L280.204 800.384L272.655 795.364L270.137 792.49L269.42 789.606L269.776 787.81C270.131 786.732 270.854 786.014 271.571 785.297L273.728 783.858H274.806L276.246 784.585H280.56L281.999 785.303L283.078 785.664L284.517 786.014L285.235 787.093L285.596 788.171L287.036 790.328L287.753 791.762L288.114 792.841C289.192 793.919 289.554 793.919 290.271 793.558V789.967L289.554 787.81L289.192 784.936L289.554 783.14C289.548 783.146 289.548 782.067 289.192 782.067ZM311.473 782.429L310.394 782.779L309.316 783.14L306.798 782.423L305.719 783.14H305.002C303.562 783.14 302.484 782.779 302.123 781.706L300.327 782.057L299.966 782.774L299.61 788.533L299.249 790.679L298.532 792.485L298.888 793.919L299.966 794.281L301.044 793.553L301.406 789.6L303.918 787.088L304.636 786.37L305.714 786.009L308.232 785.658L308.949 786.376L309.666 786.014H310.384L316.493 785.664L316.854 786.381V788.177L317.21 790.333V797.872L316.854 800.384V802.908L317.21 809.734L316.854 812.258L317.571 814.771L316.854 817.283V819.807L317.21 821.602L315.776 823.759L310.384 824.476H308.588V826.633L309.31 826.994H310.028L310.75 826.633L313.268 826.994L316.142 826.633L318.299 826.994L319.739 826.633L320.817 826.272L323.33 827L325.487 826.272H328.361L330.879 826.633L332.319 826.994H333.397C334.114 826.633 333.753 825.916 333.041 824.838L331.601 824.12L330.523 824.838L327.644 824.476L325.848 822.681L325.492 819.807V816.938L325.136 816.221L324.775 815.142L325.136 812.619V809.745L324.775 807.588L325.136 802.918L324.775 800.395L325.136 799.678L325.492 798.599V791.056L324.775 788.543L325.136 787.103V786.025H328.371L331.607 786.386L334.125 786.025H337.721L339.517 788.182V789.26L340.595 790.339C340.957 790.689 340.957 791.417 340.957 793.563L342.035 794.642L343.113 793.925V793.207L342.757 792.49L343.113 791.051L343.475 789.972L342.035 787.098L342.396 783.146L342.035 781.711L339.517 781.35C339.517 782.067 338.8 783.146 338.077 783.146L335.559 782.067L334.842 782.429L334.125 783.146H330.879L329.083 782.429L326.565 783.146L323.686 782.429H321.168L319.011 783.146L316.137 782.784L313.619 783.146L311.473 782.429ZM353.876 782.067H352.442C351.364 782.067 351.002 782.067 350.285 782.429L349.924 783.507L351.002 784.585H353.515C353.871 784.585 354.594 785.303 354.594 786.02V786.381L354.949 788.538V793.558L354.594 794.636L354.949 796.443L355.311 797.51L354.949 800.746V802.541L355.311 803.62V803.981L354.594 805.059L354.949 806.138L354.594 807.572C354.594 807.933 353.871 808.3 352.437 808.3H350.997L350.28 809.734L350.997 810.813H353.871L354.594 810.451L358.185 810.813H368.969L371.126 810.096L372.204 809.734H373.644L375.078 808.656L375.801 808.305L376.518 807.944L377.958 806.866L378.675 806.504L380.114 805.426L381.91 802.552L382.988 800.756L383.35 798.961L383.711 798.244L384.067 795.72L383.711 794.286L383.35 793.925L382.988 791.051L382.271 789.611L379.753 786.02L378.675 784.585H377.958L376.518 783.507V783.146L374 782.429H372.921L372.565 782.779L371.487 782.062L370.047 781.711H367.535L367.173 782.062L363.938 781.711L363.221 782.062H360.703L359.263 781.711H358.185L356.389 782.062L353.876 782.067ZM361.425 788.177V784.585H367.173L369.33 785.303H370.047L371.843 786.02L373.639 787.098L373.994 788.177L374.712 788.894L375.068 789.611L376.146 791.051V791.412L376.507 793.558L376.863 793.919V797.51L376.507 800.384L375.429 802.191V802.541L373.989 804.698L372.194 806.138L371.838 806.488L371.12 806.85V807.211L369.325 807.562H365.728L363.216 808.289L361.42 807.562V804.326L361.064 802.531V793.542L361.42 791.746V790.312L361.064 789.234L361.425 788.177ZM420.361 789.611L421.078 788.543L423.952 787.103L425.748 785.669L430.779 783.863L433.658 784.591L435.815 784.229L440.846 785.669L442.642 786.386L445.16 787.821C445.521 788.182 446.599 788.899 447.678 790.344L449.117 792.501L450.196 795.375H451.635V783.512L449.84 783.863L448.405 784.591L447.683 784.229L446.605 783.512H445.165L442.647 783.151L438.694 782.073L432.946 781.722H431.868L429.355 782.073H426.476L421.445 783.151L417.854 786.025L416.775 786.386L415.697 787.103L413.54 788.543L411.383 791.056L410.666 793.569L409.588 795.375L407.431 800.395L406.714 802.918V805.075L407.075 806.51L407.431 808.316L407.075 809.75L408.87 815.498L410.31 818.022L411.75 819.817L413.907 821.252L415.702 822.691L420.733 825.204L432.234 827.361L434.03 827.01L437.26 827.361L439.778 827.01H442.652L443.731 826.649C443.731 825.932 444.809 825.571 446.966 825.571L449.484 827.01C449.84 827.01 450.562 826.649 450.562 825.932L450.918 823.058L451.997 820.901L452.719 817.666L453.798 813.713C453.08 813.352 452.719 813.352 452.719 813.713L451.997 814.792L451.279 815.87L450.562 816.231L449.123 818.744L446.966 820.184L445.17 821.618L443.375 823.414L440.857 824.142L435.103 824.859H432.219L429.7 824.498L427.188 823.78L421.078 819.467L419.283 817.31L418.56 814.797L416.765 812.284V809.4L416.042 806.887L415.686 801.856L416.042 799.343L417.121 794.663L418.199 792.517L419.995 790.711L420.361 789.611ZM512.718 784.585L515.597 785.303L517.031 784.585C517.393 784.585 517.393 783.858 516.681 783.146L515.963 782.784L514.163 783.146L508.415 782.429L505.896 783.146H502.661L501.222 782.429H499.782C499.065 783.146 499.065 783.507 499.782 784.585H501.939L503.734 784.936L505.53 786.376L506.97 788.533V793.558L506.608 794.286L506.97 796.081L506.252 798.594L506.97 801.829L506.608 804.342L506.97 807.227L506.252 808.661L506.608 814.059L505.169 816.571L504.451 818.011L500.499 821.602L497.625 822.681H494.39L490.076 823.042H487.558L485.045 822.314L483.25 821.236L480.732 820.168L479.292 819.09L477.496 816.216L476.779 815.137V812.619L476.062 809.384L475.701 806.871L476.062 804.714L476.779 802.201L476.423 798.966L476.779 796.453L475.701 792.851V789.616L476.779 787.103C476.779 786.386 477.496 786.025 478.575 785.669L480.732 784.941H482.527C483.244 784.591 483.244 783.507 483.244 783.146H477.491L474.256 782.429L471.382 783.146H468.146L463.833 782.784L462.393 783.146L461.315 783.863L461.676 784.591H465.267C466.346 784.591 466.707 785.308 467.424 786.025L468.141 788.548L468.858 790.695L468.502 791.773L468.141 792.851L468.858 799.678L468.141 802.552L468.858 805.075L468.141 808.311V809.028L467.785 809.745L468.864 812.268V814.781L469.581 817.655L471.376 819.812L471.732 821.246L472.811 822.686L475.329 824.126L480.36 825.56L483.234 827H486.108L489.343 828.067L491.139 827.35H494.013L499.043 826.633L500.839 824.838L503.713 823.759L505.87 821.602L508.388 819.807V818.728L509.466 817.289L509.828 815.854V814.415L510.545 813.336L511.262 811.902L510.184 808.311V806.871L510.545 805.793L511.262 805.075V802.552L510.184 799.327L510.906 796.092L510.184 792.857L511.262 787.109C511.639 786.02 512.362 784.941 512.718 784.585ZM524.219 784.941H525.659L529.611 785.303C530.69 786.02 531.045 786.381 531.407 787.459L532.124 793.207V797.877L531.763 803.986L532.124 807.222L531.763 809.734L532.124 816.21L531.763 819.801L532.124 821.597L531.045 823.754L528.171 824.115H525.659L523.135 824.832L522.785 825.911L523.502 826.628L524.936 826.267L527.81 826.628L532.841 826.267L534.998 826.994L538.233 826.633L540.746 825.916L543.981 826.267L546.855 826.994L549.012 826.633H551.525L553.682 825.916L560.875 823.393L564.11 820.519L564.461 819.084C564.822 818.356 564.822 818.006 565.188 818.006L565.539 817.278L565.9 815.482L566.617 812.97L566.256 812.252V810.096L564.461 808.3L563.382 806.86L562.665 806.143L562.314 805.065L560.875 804.337L559.796 803.269L556.922 802.191L555.127 801.829V801.468L557.283 801.118L559.43 800.039L560.157 798.961L561.236 798.244C561.953 798.244 562.67 797.882 563.382 796.448C563.743 794.291 563.743 793.213 563.743 792.496V790.339L562.309 787.465L559.786 785.308L557.629 784.229L554.038 783.151L549.368 782.79L546.133 782.073H543.62L541.097 782.434L535.71 782.073L534.982 783.151L532.108 782.434L524.564 783.151C523.502 783.507 523.141 784.585 524.219 784.941ZM545.426 802.913L547.222 803.274H549.379L551.891 804.342C553.331 804.703 554.048 805.421 554.048 805.782L555.844 808.305L556.922 810.818L558.001 813.692L557.639 814.771L557.289 817.283L556.21 819.44L554.771 821.236L553.692 821.597L551.179 823.037L550.101 823.754H544.353L543.992 823.037H542.913L540.401 821.23L540.039 814.765V812.97L539.689 810.446L540.039 805.777V802.903L541.118 803.264H543.992L545.426 802.913ZM540.029 790.689V789.255L539.678 785.664V784.585H541.474L546.143 784.224L550.813 785.303L553.336 787.098L554.771 789.972L555.132 792.496V794.642L554.415 796.799L553.336 798.955L551.897 799.673L550.818 800.39L543.992 801.468L543.641 801.118L542.913 800.39L541.479 801.118L540.039 801.468V796.799L539.689 793.563L540.029 790.689ZM596.818 782.067L595.379 781.717L592.866 782.067C592.505 782.067 592.505 782.784 592.866 783.507H592.138V784.585L591.788 785.664L590.709 788.177L588.914 793.207V795.003L587.835 796.081L587.107 796.799L586.39 799.673L583.155 807.227L582.087 812.975L581.359 814.053L580.642 815.488L579.564 818.011L579.202 820.168C578.485 821.602 578.135 822.314 577.407 822.314C577.056 822.314 577.056 822.675 576.328 823.042C575.978 823.393 575.611 823.759 574.533 824.12H571.659C571.298 824.12 570.942 824.12 570.942 825.188C570.58 825.549 570.942 826.267 571.659 826.267H573.099L575.611 826.628L578.135 826.267L589.631 825.916V824.12H587.835L586.396 823.759L583.521 823.398C582.804 823.047 582.443 822.681 582.443 821.602L583.16 819.09V818.011L583.888 815.137L586.045 812.263V810.823L586.396 809.384H590.348L591.788 809.745H592.866L599.692 809.028L602.567 809.745L602.917 810.823L605.074 815.493L607.597 821.602L606.158 823.042L604.001 823.759L603.65 824.12L602.572 824.471L602.211 824.12C601.849 824.12 601.493 823.759 600.776 823.759C600.048 824.12 599.698 824.12 599.698 825.193C599.698 825.555 600.048 826.272 600.776 826.272L602.922 825.921L608.681 826.638L612.272 826.277H615.508L618.02 825.927L619.46 826.644H621.256L621.973 825.565L621.256 824.131L620.538 824.482V824.843L618.732 824.126C617.654 823.764 616.586 823.398 616.586 823.047L614.063 818.016L612.984 816.577V814.781L611.55 812.624L610.11 808.316L609.749 805.793L607.236 801.123L606.875 798.599L606.158 797.521L605.079 796.087L604.001 793.563L602.567 787.465L600.771 785.308V783.151L600.043 781.717H599.326L598.247 782.067H596.818ZM594.295 788.177L595.373 789.255L596.452 793.563L596.813 794.291L597.881 795.008L598.242 797.882L600.038 803.992L601.116 805.07L601.833 806.148H599.687L593.929 805.787L591.054 806.148L588.908 806.499C588.547 806.499 588.18 806.499 587.83 806.148V805.787L588.18 805.07L588.908 803.63L589.259 800.756L589.976 800.039L590.337 798.961L591.054 796.448L594.295 788.177ZM652.875 781.711L652.147 782.429L650.001 784.585L648.923 786.02L646.766 787.098L644.242 788.538L643.525 789.255L642.091 790.333C641.012 791.051 640.285 791.412 639.934 792.129C639.206 792.846 639.573 793.563 640.285 793.925L641.724 793.563L642.086 792.496L644.96 792.134L646.038 791.056L649.263 789.26L649.624 790.695L649.263 791.422L648.912 792.501L649.263 795.014L649.624 796.809L649.263 799.683L649.624 801.84V809.745C649.624 810.462 649.624 810.823 649.985 810.823L649.257 812.98V821.241L648.54 824.126H642.075C640.996 824.843 640.996 825.193 642.075 825.921L643.509 826.638L645.666 826.277H651.064L653.576 827.005L656.45 825.927L659.324 827.005L662.916 826.277C663.643 825.56 663.643 825.199 662.916 824.843L658.974 824.126H656.817C656.089 823.764 656.089 823.047 656.089 821.241V820.89L655.738 819.095L656.089 817.289L655.738 814.776V811.902L656.089 809.745L655.738 803.636L656.456 801.479L656.094 798.254L656.456 795.38L655.738 792.857L656.089 787.109V784.596L656.45 783.156L656.089 782.078L652.875 781.711ZM681.982 782.067H680.186C680.186 782.428 679.469 782.784 679.108 783.146L678.391 783.863L674.077 786.386L673.36 788.543L672.281 789.611L671.92 790.689L671.569 793.213V794.291L672.287 796.804L673.365 798.961L674.799 801.118L680.197 804.709L678.757 805.426L674.449 808.311L673.009 809.745L671.575 812.268L670.847 814.781L671.208 816.938V819.451L672.287 820.529C673.004 821.246 673.365 821.608 672.648 821.608C672.287 821.969 672.648 823.047 674.794 824.131L676.951 825.199L677.668 825.927L679.108 827.005H681.982L685.217 827.356H687.374L689.169 827.005L692.043 826.277L694.2 825.199L694.918 824.131L695.635 823.053L696.363 822.691L697.08 821.974L698.514 819.817L699.242 816.943L699.959 814.069L699.598 812.991L698.881 812.274L698.519 809.75L696.724 806.515L692.054 803.29L689.18 802.212L690.976 801.134L693.85 800.055L694.567 798.977L695.295 798.26L696.012 797.898L697.09 797.181L697.808 794.658L698.525 792.511L698.174 791.433L697.457 790.355L697.096 787.831L696.017 785.685L690.986 782.45L688.112 782.088H681.982V782.067ZM693.127 813.692L693.488 816.566V819.09L692.761 821.602L690.965 823.398L688.091 824.838L685.217 825.555L683.777 825.193L681.982 824.843L679.825 823.403L676.951 818.734L676.6 815.498L676.951 814.781L677.312 812.268L678.391 809.745L679.825 807.588L681.621 805.793L682.699 806.154L689.175 809.745L693.127 813.692ZM677.312 791.051V789.972L678.029 787.098L680.186 785.303L681.621 784.224L685.222 783.146L687.018 783.863L689.892 785.303L690.609 786.02L690.97 787.098L692.41 789.255L692.761 791.768L692.043 793.925V796.448L690.248 799.673L687.724 801.112L686.29 800.034L683.416 798.955L681.61 798.238L680.542 797.16L680.181 796.081L678.024 793.925C677.312 792.846 677.312 791.768 677.312 791.051ZM719.004 789.972L718.276 790.333L716.119 792.49L711.811 800.034L710.733 804.703L710.371 810.101L710.733 810.818L711.094 813.692L711.811 816.216L712.162 818.728L713.601 820.524L714.68 823.047L717.193 824.843L719.716 826.638L722.951 827.356L726.176 827.717L727.982 827.356L732.652 825.56L736.604 822.686L738.038 820.173L739.117 817.65L739.478 814.776L739.829 812.263L739.478 810.457L739.117 807.944L737.682 805.787L734.447 801.835L730.134 799.678H725.464L722.951 800.395L720.794 802.201L718.271 802.918L718.632 801.479L720.789 796.459V795.019L721.14 793.579L722.946 791.433L726.17 787.481L728.694 786.041L731.568 784.607L734.081 783.167L735.159 782.806L734.081 782.088H732.285L730.128 783.167L727.982 783.528L723.302 786.041L721.506 787.481L719.349 788.559L719.004 789.972ZM726.548 802.547L727.987 802.908L731.94 806.86L733.008 812.608L732.657 813.687L733.008 816.21L731.94 819.435L731.579 822.309L728.704 824.832L726.181 825.549H725.103L722.59 824.832L722.229 824.115L719.716 821.23L717.92 814.765V812.252L718.271 808.3V805.777L719.711 804.337L722.585 802.903L725.459 802.541H726.548V802.547ZM753.503 789.972C753.853 789.255 753.853 788.894 754.571 788.894L756.01 788.177L757.089 787.098L760.68 786.737L762.837 787.098L764.994 787.815L767.506 790.339L768.946 795.725V797.521L768.585 800.044L767.506 802.557L765.711 804.714L764.276 807.588L763.549 807.949L762.831 808.311L762.114 809.745L758.879 813.697L754.565 817.65L753.498 818.011L752.77 819.445L752.419 820.524L750.262 822.681L747.739 824.12C747.388 825.555 747.388 826.633 748.1 826.994H748.817L749.545 826.633H751.341L753.854 825.916H767.873L770.747 826.994L773.621 825.916L775.061 826.633H776.495V825.188L777.223 822.314L777.573 819.09V814.059L777.223 813.697L776.495 814.059L776.144 815.493V816.571L775.066 818.367C774.705 819.445 773.626 819.807 772.543 820.173L769.669 820.524L768.59 821.241H765.716L760.329 820.173L757.806 820.89L754.932 820.529L756.372 819.451L757.806 817.655L759.246 815.498L761.402 814.781L763.198 812.986L764.632 810.829L767.156 809.033L767.873 807.593L770.396 805.437L773.621 801.845L775.061 799.333L775.411 797.526L776.139 795.731L776.49 793.935L776.139 793.218L775.778 792.857L775.417 790.7L772.904 786.03L770.747 784.596L768.59 783.156L763.203 782.078H761.408L758.884 783.156L754.215 784.952L750.979 789.266L749.545 792.501L749.184 795.014L749.901 795.731L751.341 795.38V793.935L752.775 791.778L753.503 789.972Z" fill="black"/>
<path fill-rule="evenodd" clip-rule="evenodd" d="M664.01 367.354C664.01 343.995 659.701 321.715 651.079 300.508C642.096 280.384 629.872 262.056 614.057 246.241C598.242 230.431 579.919 218.213 559.791 209.23C538.594 200.602 516.303 195.933 492.944 195.933C469.586 195.933 447.667 200.602 426.46 209.23C406.044 217.945 387.499 230.511 371.837 246.241C356.022 262.056 343.448 280.384 334.82 300.508C326.193 321.709 321.523 343.995 321.523 367.354C321.523 390.712 326.193 412.631 334.82 433.839C343.448 454.684 356.022 472.651 371.837 488.461C387.652 504.276 405.619 516.85 426.46 525.122C447.661 534.105 469.586 538.775 492.944 538.775C516.303 538.775 538.589 534.105 559.791 525.122C579.919 516.85 598.242 504.276 614.057 488.461C629.872 472.651 642.091 454.684 651.079 433.839C659.707 412.631 664.01 390.712 664.01 367.354Z" fill="#D2B346"/>
<path fill-rule="evenodd" clip-rule="evenodd" d="M640.657 367.354C640.657 347.23 637.065 327.824 629.16 309.857C621.967 292.247 611.189 276.432 597.536 262.779C583.516 249.12 568.068 238.341 550.462 231.154C532.129 223.249 513.084 219.658 492.955 219.658C472.832 219.658 453.782 223.249 435.459 231.154C417.487 238.341 402.039 249.12 388.381 262.779C374.722 276.437 364.299 292.247 356.756 309.857C348.851 327.824 344.898 347.23 344.898 367.354C344.898 387.477 348.851 406.527 356.756 424.85C364.299 442.46 374.722 458.275 388.381 471.928C401.837 485.468 417.836 496.216 435.459 503.553C453.6 511.436 473.176 515.475 492.955 515.416C513.084 515.416 532.129 511.463 550.462 503.553C568.068 496.01 583.521 485.587 597.536 471.928C611.189 458.27 621.973 442.46 629.16 424.85C637.065 406.522 640.657 387.477 640.657 367.354Z" fill="#CC2229"/>
<path fill-rule="evenodd" clip-rule="evenodd" d="M588.185 277.871L581.359 269.244C581.008 267.804 580.281 266.726 579.925 265.292L579.197 262.773C578.129 260.978 575.606 260.617 572.014 261.334C567.334 262.773 561.236 268.522 554.76 278.583C544.693 292.603 536.071 303.382 528.527 309.852C523.496 314.522 517.748 317.04 511.634 317.757C510.194 317.757 508.76 317.396 507.32 316.679C505.524 315.239 504.446 312.004 504.446 306.256C509.115 303.02 512.351 299.068 515.225 294.037C517.382 290.446 518.099 287.211 518.099 283.975C517.748 280.74 513.073 280.384 503.723 283.258L497.619 285.415L495.463 283.258L491.149 278.589C487.196 275.715 484.678 276.432 483.244 280.384C482.888 281.824 482.527 284.337 482.166 288.289C471.025 293.681 465.272 298.351 465.272 301.586C465.272 303.743 466.351 305.538 468.869 306.973C471.025 308.051 474.978 309.491 480.726 310.925C481.087 314.16 480.726 315.956 479.648 317.035L475.334 317.39C468.146 316.673 462.393 314.16 457.367 309.847C450.541 304.093 441.913 293.676 431.49 278.939C426.46 271.396 420.712 265.642 414.597 261.69L411.362 260.611H407.781L405.986 263.129L405.624 266.359C405.624 267.438 404.546 268.516 403.829 269.956L397.719 277.861L384.422 295.471C381.187 301.219 377.235 308.046 373.282 316.673C368.251 327.813 365.016 340.749 363.582 355.486C362.503 370.217 363.221 383.514 366.095 396.455C371.125 416.94 379.753 434.906 392.327 450.36L398.437 457.187C400.232 460.066 401.311 460.422 402.75 458.626C403.112 457.904 402.75 456.469 400.955 454.674L396.641 449.282C391.61 442.089 387.658 434.906 385.14 427.357C377.591 408.312 376.512 397.889 381.543 395.371C385.14 393.932 389.448 397.167 394.84 405.794L398.431 411.904C399.871 415.139 400.949 416.573 402.384 416.217C403.823 415.139 403.101 413.338 400.588 409.747C397.714 403.999 394.84 396.45 393.045 386.749C390.888 374.17 391.966 366.265 396.274 363.391C400.949 360.873 406.341 363.391 412.445 371.296C414.602 373.452 416.037 376.326 417.476 379.2C419.994 384.231 421.429 387.467 421.79 389.623C422.507 392.497 422.868 393.576 424.308 393.215C426.104 392.853 426.465 391.419 425.025 388.545L423.947 380.64C423.947 373.091 425.742 368.783 429.7 367.699C434.014 366.259 437.966 368.06 441.919 373.808C445.871 379.556 447.667 387.461 447.667 397.167C447.667 399.324 446.588 400.402 445.149 401.481C439.401 403.637 436.883 406.511 436.883 409.747C437.238 413.699 438.322 416.573 440.835 419.091C452.692 413.338 460.958 412.265 467.068 416.217C471.737 419.091 476.773 427.719 481.443 442.45C486.113 457.181 488.987 472.274 490.426 488.089L491.149 498.512C491.149 500.669 491.505 501.386 492.944 501.386C494.384 501.386 495.101 500.669 494.74 498.512L495.457 488.089C496.897 472.274 500.132 457.181 504.441 443.167C508.754 428.792 513.785 419.808 518.455 416.217C524.203 412.265 532.474 413.338 544.331 418.369C547.567 416.934 549.001 413.699 549.362 409.747C549.362 406.15 546.839 403.276 541.091 401.481C539.295 400.402 538.217 399.324 538.217 397.167C538.217 387.461 540.012 379.556 543.965 373.447C547.917 368.055 551.87 366.259 556.189 367.338C560.497 368.777 562.298 373.086 561.937 380.635L561.22 388.54C559.78 391.414 559.78 392.853 561.57 392.853C563.01 393.215 563.727 392.136 564.094 389.262C564.094 387.105 565.528 383.509 568.402 378.839C569.842 375.965 571.637 373.447 573.433 370.934C579.542 363.029 584.94 360.517 589.609 363.391C594.279 366.265 595.357 374.17 592.844 386.388C591.692 391.615 590.252 396.774 588.531 401.842L584.94 409.386C582.783 413.338 582.416 415.139 583.5 415.856C584.94 416.217 586.374 415.139 587.452 411.904L591.405 405.794C596.802 396.811 600.755 393.576 604.696 395.371C609.727 397.528 608.659 408.312 600.755 427.357C598.074 435.216 594.192 442.612 589.248 449.282L584.94 454.674C583.5 456.114 582.783 457.548 583.5 458.626C584.94 460.066 586.023 460.066 587.452 457.187L593.562 450.36C606.136 434.906 615.125 416.579 619.794 396.455C622.668 383.514 623.396 369.861 622.318 355.486C620.878 340.754 618.004 327.813 612.617 316.673C608.665 308.046 604.702 301.219 601.472 295.471L588.185 277.871Z" fill="black"/>
<path fill-rule="evenodd" clip-rule="evenodd" d="M595.74 299.434C593.216 294.042 589.631 288.294 584.594 281.824L576.689 271.406L575.611 268.527L575.25 267.092H572.376C571.297 267.809 569.502 269.249 567.345 271.762C561.246 278.232 555.849 288.294 551.53 301.23C547.588 314.171 543.986 322.432 541.473 325.306C539.678 327.463 537.521 328.541 534.647 329.258C531.045 329.619 527.093 328.902 523.14 326.745C519.172 324.724 514.939 323.272 510.566 322.432C506.252 321.353 505.535 321.715 506.975 322.793C518.109 329.258 520.983 342.555 515.602 362.323L509.131 381.368L501.944 399.334C496.196 414.066 493.316 429.525 492.96 445.696C492.96 437.43 491.882 428.09 489.731 417.667C486.851 404.726 483.26 396.466 479.308 393.592C475.711 390.356 471.403 389.639 467.089 391.073C462.419 392.152 459.545 395.026 457.027 399.701C458.106 389.995 459.901 384.247 462.419 382.09C465.655 380.295 471.403 382.09 479.669 387.121C474.277 374.18 471.041 365.558 470.324 360.888C467.811 350.465 468.167 341.843 471.041 334.656C472.837 330.703 475.355 327.829 479.308 325.672C481.243 324.693 483.296 323.968 485.417 323.515C486.857 323.154 487.574 322.798 487.212 321.72L486.49 315.967C486.134 314.888 486.134 314.171 485.412 314.171C485.056 314.527 484.694 315.967 484.694 319.919C484.694 320.641 483.255 320.997 479.302 321.359C472.832 322.437 467.445 323.877 463.131 326.751C459.179 329.263 455.226 329.986 451.63 329.263C448.756 328.908 446.599 327.824 444.803 325.311C443.126 323.132 441.793 320.708 440.851 318.123L435.459 302.308C431.145 289.011 425.397 278.95 418.565 271.762L413.535 267.092H410.661L410.305 268.527L409.226 271.406L401.683 280.745C397.013 287.216 393.416 292.964 390.542 298.356C382.276 314.171 377.963 330.342 377.601 346.152C377.245 363.757 379.758 377.415 385.506 387.121L385.868 386.765C381.915 374.547 380.475 361.25 381.915 346.874C382.993 336.451 385.506 325.672 389.82 314.171C393.411 304.104 397.364 295.843 401.677 289.728C399.882 299.073 399.52 310.93 400.96 324.589C402.756 341.477 406.708 355.491 413.535 366.275H413.896C409.582 353.695 406.708 338.964 405.991 322.793C405.63 308.779 406.347 296.916 408.504 287.216C410.299 278.588 412.817 274.636 414.974 274.636C416.053 274.636 417.131 276.076 418.565 278.95C420.722 281.468 422.162 283.98 422.879 286.499C426.47 294.765 428.627 303.392 430.067 313.448C432.941 335.012 437.254 347.23 443.364 349.748C446.955 351.544 450.551 350.465 454.865 347.591C458.818 345.073 461.336 341.121 463.131 337.168C461.697 342.56 460.974 347.591 461.697 351.9C462.053 356.575 463.493 361.605 466.011 367.354L472.837 380.295L466.367 376.698L462.414 375.62C459.184 375.62 457.022 377.415 455.588 382.09C453.792 386.765 452.714 393.592 452.714 401.858C452.714 403.653 451.635 404.732 450.557 405.093C443.725 406.533 441.212 409.045 442.647 412.281C446.604 410.485 451.274 409.401 457.022 409.045C457.022 405.81 458.462 402.575 460.974 399.34C464.571 396.104 468.162 395.387 472.476 396.466C478.224 398.984 482.538 406.527 486.129 419.463C489.364 430.247 491.16 442.822 492.238 456.48L492.955 477.326C493.316 475.53 493.678 468.343 494.034 456.48C494.751 442.827 496.552 430.247 499.787 419.463C503.378 406.527 508.053 398.984 513.801 396.466C517.759 395.387 521.711 396.104 524.936 399.701C527.81 402.575 529.25 405.81 528.538 409.045C534.647 409.401 539.317 410.485 543.269 412.281C545.065 409.045 542.552 406.888 535.725 405.093C534.286 404.732 533.569 403.653 533.202 401.858C532.841 392.874 532.124 386.404 530.689 382.09C529.25 377.421 527.087 375.62 523.863 375.62L519.549 377.776L514.518 379.933L519.183 370.233C523.135 362.684 524.58 354.779 524.58 347.591C524.219 342.922 524.219 339.325 523.14 336.451C525.664 342.205 527.81 345.796 529.967 347.591C531.762 349.387 533.569 350.465 536.076 350.465C538.599 350.827 540.746 350.465 542.903 348.67C548.3 344 552.97 332.137 555.844 313.448C558.367 301.591 560.513 292.969 563.037 286.499L566.989 278.95C569.146 276.076 570.214 274.636 570.941 274.636C573.098 274.636 575.611 278.588 577.407 287.216C579.563 296.921 580.642 308.779 579.93 322.793C579.202 338.964 576.695 353.695 572.025 366.275H572.376C579.202 355.496 583.155 341.482 584.961 324.589C586.395 310.93 586.039 299.073 584.233 289.728C588.547 295.838 592.505 304.104 596.457 314.171C600.771 325.672 603.283 336.451 604.001 346.874C605.079 361.25 604.001 374.902 600.409 386.765L600.771 387.121C606.157 377.415 608.676 363.762 608.676 346.152C607.948 331.059 603.995 315.605 595.74 299.434Z" fill="#D2B346"/>
<path fill-rule="evenodd" clip-rule="evenodd" d="M490.075 294.042C488.28 295.121 487.201 296.199 487.201 297.639C487.201 298.717 487.557 299.079 488.997 299.435H494.028C495.467 299.435 496.546 299.073 496.546 298.356C496.546 296.916 496.546 296.199 495.467 295.121C494.033 293.681 492.237 293.32 490.075 294.042ZM502.299 292.964L503.377 296.916L505.896 294.037C506.613 292.603 506.974 291.524 506.613 291.163L504.456 291.88L502.299 292.964Z" fill="#D2B346"/>
<path fill-rule="evenodd" clip-rule="evenodd" d="M978.823 732.115C978.823 729.241 977.745 726.717 975.588 724.561C973.442 722.414 970.919 721.336 967.683 721.336C965.17 721.336 962.296 722.414 960.14 724.561C958.344 726.717 957.266 729.241 957.266 732.115C957.266 735.35 957.983 737.863 960.14 740.02C962.296 742.177 965.17 743.255 967.683 743.255C970.919 743.255 973.442 742.177 975.588 740.02C977.745 737.868 978.823 735.355 978.823 732.115ZM977.378 732.115C977.378 734.989 976.311 737.146 974.504 738.941C972.709 741.098 970.552 741.815 967.678 741.815C965.165 741.815 963.008 741.098 961.213 738.941C960.287 738.065 959.553 737.005 959.059 735.83C958.564 734.655 958.319 733.39 958.339 732.115C958.339 729.591 959.417 727.435 961.213 725.639C963.008 723.843 965.165 723.126 967.678 723.126C970.552 723.126 972.709 723.843 974.504 725.639C976.311 727.44 977.378 729.597 977.378 732.115Z" fill="black"/>
<path fill-rule="evenodd" clip-rule="evenodd" d="M973.075 729.597C973.075 728.162 972.358 727.44 970.918 726.723L967.683 726.372H963.731V738.229H965.537V733.549H967.332L969.489 733.91C970.206 734.272 970.557 735.35 970.557 736.784V737.502L970.918 738.229H973.075L972.714 737.502V735.706L971.997 733.91C971.635 733.193 970.918 733.193 969.84 732.832L971.635 732.115C972.358 731.753 973.075 730.675 973.075 729.597ZM970.201 728.162L970.552 730.319L969.484 731.754L967.678 732.115H965.532V727.801H967.678L970.201 728.162ZM415.33 605.616C424.313 613.52 430.067 623.587 431.862 635.811H434.019C433.658 613.526 434.019 598.789 434.736 591.963H433.658C432.941 593.402 430.778 594.475 428.266 594.837L419.638 594.119C405.263 588.722 390.532 586.565 375.795 587.644C356.75 588.371 340.218 595.915 326.921 609.568C312.545 624.666 305.358 643.35 306.075 666.708C306.436 689.711 313.985 707.683 328.355 720.257C342.013 732.471 359.263 737.863 380.826 737.151C395.557 736.79 408.137 733.198 419.277 725.644C427.182 720.257 433.291 713.787 437.244 706.605L440.84 700.129L438.683 698.694C431.857 708.761 423.952 716.656 413.529 721.686C404.077 726.42 393.528 728.53 382.983 727.796C370.047 727.434 358.907 721.331 349.924 710.552C340.579 699.045 335.548 684.314 335.192 665.625C334.47 645.857 338.066 629.33 346.332 616.389C355.316 602.37 367.534 595.543 382.983 594.465C395.562 594.47 405.985 598.072 415.33 605.616ZM145.438 647.307C151.547 640.832 154.065 632.209 152.626 621.792C150.83 611.725 145.799 604.186 137.894 598.428C128.911 592.329 117.054 589.455 102.678 590.167C77.1628 590.884 58.4737 590.884 45.1768 590.518V592.674L54.1601 595.198C57.3953 597.355 59.5522 598.423 60.2693 599.506C62.0649 601.302 63.1434 603.459 62.7874 605.982V717.389C63.1434 721.341 59.9081 725.294 54.1601 728.168C50.9248 729.602 48.0508 730.324 45.1768 731.042V733.199H80.754L117.766 733.549C132.502 733.198 144.36 729.597 152.987 723.849C162.331 717.383 167.001 708.4 167.718 697.255C168.079 685.397 163.766 675.692 154.777 668.148C146.872 660.594 137.172 657.002 126.026 657.002C133.586 655.563 140.412 652.689 145.438 647.307ZM138.973 694.381C138.973 700.129 138.256 705.526 136.46 709.479C131.79 720.613 121.723 726.372 106.275 726.372C95.1347 726.372 89.0254 722.058 89.3814 713.07V661.677L101.6 660.599C116.337 661.677 127.115 667.425 133.942 677.854C136.816 682.523 138.612 688.271 138.973 694.381ZM97.6422 597.355C104.83 597.355 111.3 599.868 116.687 604.181C122.796 609.568 125.67 616.756 125.67 625.378C125.67 635.806 123.514 642.983 118.839 647.302C112.729 652.333 103.385 654.129 89.0148 652.689V599.15L97.6422 597.355ZM940.372 592.324V590.518H879.996V592.324C882.52 593.041 885.394 593.758 888.629 595.198C894.016 598.423 896.89 602.38 897.251 607.055V717.383C896.89 721.692 894.016 725.288 888.629 728.518C885.394 729.958 882.52 730.675 879.996 731.392V733.199H940.372V731.392C937.498 730.675 934.624 729.958 932.1 728.518C926.002 725.294 923.128 721.692 923.128 717.383V607.055C923.128 602.375 926.002 598.423 932.1 595.198C934.624 593.758 937.498 593.041 940.372 592.324ZM677.662 600.585C670.48 594.837 661.497 591.963 651.796 590.884C644.97 590.523 632.385 590.523 614.057 590.884L584.95 590.523V592.68C587.824 593.041 590.698 594.119 593.211 595.203C598.959 598.428 601.833 602.03 602.194 605.982V717.389C601.833 721.697 598.959 725.294 593.211 728.168L584.95 731.042V733.199H643.158V731.392C640.284 730.675 637.771 729.958 635.264 728.88C630.233 725.288 627.71 722.053 627.71 718.101V663.117C627.71 662.039 628.427 661.322 629.867 661.322C633.458 661.322 638.138 664.546 644.237 671.739C647.838 675.33 651.791 681.44 656.094 688.983L667.239 709.112C676.589 724.56 685.211 733.193 693.477 733.193C703.895 734.272 714.313 734.272 725.458 733.544V731.031C719.71 730.314 715.391 728.874 711.805 725.634C709.282 723.838 706.774 720.603 703.9 715.933L680.898 680C673.354 667.776 664.732 660.588 655.749 658.426C666.528 657.709 675.15 654.835 682.343 648.726C689.886 642.627 693.121 634.356 692.043 625.006C690.603 615.316 686.3 607.055 677.662 600.585ZM636.704 597.355C644.608 597.355 651.084 599.867 656.105 604.898C661.502 609.929 664.009 616.756 664.737 625.378C665.088 633.283 664.009 639.397 661.502 643.7C659.345 647.302 655.037 650.527 648.561 652.684C644.608 653.762 637.782 653.762 628.432 653.045V598.778C629.872 597.355 632.746 597.355 636.704 597.355ZM796.262 590.518H727.264V592.324C729.788 593.041 732.662 593.758 735.536 595.198C741.284 598.423 744.158 602.024 744.158 605.977V717.734C744.158 722.048 741.284 725.288 735.536 728.88L727.264 731.036V733.193H755.654C761.051 733.193 774.354 733.544 795.55 734.272C821.427 734.622 841.194 727.434 855.565 711.986C868.506 698.694 874.965 682.518 874.965 663.468C874.615 641.905 867.422 624.661 853.052 611.725C839.032 598.423 819.982 591.596 796.262 590.518ZM798.058 598.789C811.721 601.663 822.856 608.49 831.127 619.635C839.749 630.78 843.702 644.433 844.068 660.599C844.068 677.492 841.545 691.145 835.797 701.924C829.332 714.509 819.27 722.053 805.251 725.288L794.833 726.367L783.688 726.005C779.018 724.927 776.495 723.849 775.066 722.414C772.191 720.257 770.396 715.938 770.396 710.19C770.035 699.773 770.035 662.751 770.035 599.501C777.573 596.993 786.923 596.993 798.058 598.789ZM306.441 728.162C302.128 726.367 298.536 722.414 296.38 717.383L249.662 588.722H228.099C200.788 667.07 186.051 709.473 183.895 714.86C181.738 720.969 178.502 725.288 173.472 727.801C170.146 729.625 166.473 730.728 162.693 731.036V733.193H210.133V731.036C206.18 730.319 203.306 729.241 200.788 727.801C197.914 726.005 196.118 723.132 196.474 719.54C196.474 717.383 197.192 713.431 198.987 708.034L211.567 671.739H251.458L264.038 706.238C265.833 712.347 266.917 716.305 267.273 718.462C267.629 722.414 266.195 725.288 262.959 727.435C261.164 728.874 257.928 730.319 253.976 731.036V733.193H315.791V731.036C312.611 730.299 309.487 729.339 306.441 728.162ZM248.579 661.322H214.797L231.329 612.442L248.579 661.322ZM517.753 671.739C521.706 683.596 525.658 695.093 529.967 706.238L533.202 718.462C533.563 722.414 532.123 725.288 529.249 727.435C527.093 729.241 524.219 730.319 520.266 731.036V733.193H581.72L582.081 731.036C578.822 730.626 575.658 729.654 572.732 728.162C568.062 726.367 564.827 722.414 562.664 717.383L515.952 588.722H494.028C466.717 667.07 451.98 709.473 449.823 714.86C447.667 720.969 444.075 725.288 439.762 727.801C436.171 729.241 432.574 730.324 428.622 731.036V733.193H476.061V731.036C472.109 730.319 468.874 729.241 466.717 727.801C463.843 726.005 462.403 723.132 462.403 719.54C462.403 717.383 463.482 713.431 464.921 708.034L477.14 671.739H517.753ZM480.736 661.322L497.986 612.442L514.879 661.322H480.736Z" fill="black"/>
</g>
<defs>
<clipPath id="clip0_1039_860">
<rect width="1024" height="1024" fill="white"/>
</clipPath>
</defs>
</svg>
