<svg width="1024" height="1024" viewBox="0 0 1024 1024" fill="none" xmlns="http://www.w3.org/2000/svg">
<rect width="1024" height="1024" fill="#F5F5F5"/>
<g clip-path="url(#clip0_1039_830)">
<path d="M912 468.639H621.012V394.183H912V468.639Z" fill="#E669A2"/>
<path d="M874.204 468.638H621.012V282.417H874.204V468.638Z" fill="#F3BE26"/>
<path d="M769.599 468.638H621.012V208H769.599V468.638Z" fill="#EE9C34"/>
<path d="M798.831 468.639H621.012V237.083H798.831V468.639Z" fill="#F3BC87"/>
<path d="M620.971 237.127V468.614H769.582V237.127H620.971Z" fill="#E3721C"/>
<path d="M472.014 468.638H621.012V505.87H472.014V468.638Z" fill="#AD1B02"/>
<path d="M620.971 282.376V468.615H798.916V282.376H620.971Z" fill="#E88D14"/>
<path d="M620.971 282.376V468.615H769.582V282.376H620.971Z" fill="#D85604"/>
<path d="M713.931 468.638H621.012V356.865H713.931V468.638Z" fill="#C14303"/>
<path d="M620.971 394.236V468.615H874.29V394.236H620.971Z" fill="#DB4E18"/>
<path d="M620.971 394.236V468.615H798.916V394.236H620.971Z" fill="#D1390D"/>
<path d="M620.971 394.236V468.615H769.582V394.236H620.971Z" fill="#C22303"/>
<path d="M620.971 394.236V468.615H714.023V394.236H620.971Z" fill="#AD1B02"/>
<path d="M653.408 608.869C628.056 613.375 614.534 632.523 614.534 665.752C614.534 699.544 632.563 722.072 659.041 722.072C671.999 722.072 683.267 717.566 706.929 705.739C706.929 733.336 706.929 733.336 706.929 733.336C678.196 746.853 661.295 750.232 638.76 750.232C613.408 750.232 595.379 744.037 581.295 728.83C566.647 714.187 558.76 695.039 558.76 673.074C558.76 625.202 594.816 591.973 647.21 591.973C681.577 591.973 705.802 608.306 705.802 631.397C705.802 646.603 694.534 657.304 678.196 657.304C669.746 657.304 662.985 654.488 653.408 649.419" fill="black"/>
<path d="M526.647 673.074C549.746 644.351 558.196 632.523 558.196 618.443C558.196 604.364 546.929 591.973 531.154 591.973C522.14 591.973 513.689 597.042 509.746 601.548C509.746 660.683 509.746 660.683 509.746 660.683C471.999 711.371 471.999 711.371 471.999 711.371C471.999 596.479 471.999 596.479 471.999 596.479C435.943 596.479 435.943 596.479 435.943 596.479C376.225 695.039 376.224 695.039 376.224 695.039C376.224 596.479 376.224 596.479 376.224 596.479C355.943 596.479 355.943 596.479 355.943 596.479C301.295 608.869 301.295 608.869 301.295 608.869C301.295 622.949 301.295 622.949 301.295 622.949C331.154 625.765 331.154 625.765 331.154 625.765C331.154 747.979 331.154 747.979 331.154 747.979C368.901 747.979 368.901 747.979 368.901 747.979C426.365 653.362 426.365 653.362 426.365 653.362C426.365 747.979 426.365 747.979 426.365 747.979C468.619 747.979 468.619 747.979 468.619 747.979" fill="black"/>
<path d="M186.93 728.83C191.437 728.83 192.563 728.83 195.38 728.83C225.803 728.83 242.704 710.245 242.704 673.074C242.704 642.098 229.183 625.202 203.831 625.202C200.451 625.202 195.38 625.765 186.93 627.455V728.83ZM186.93 795.288C211.718 800.92 211.718 800.92 211.718 800.92C211.718 815 211.718 815 211.718 815C114.254 815 114.254 815 114.254 815C114.254 800.92 114.254 800.92 114.254 800.92C136.789 795.288 136.789 795.288 136.789 795.288C136.789 625.202 136.789 625.202 136.789 625.202C112 625.202 112 625.202 112 625.202C112 611.122 112 611.122 112 611.122C171.155 593.1 171.155 593.1 171.155 593.1C186.93 593.1 186.93 593.1 186.93 593.1C186.93 613.375 186.93 613.375 186.93 613.375C214.535 596.479 224.113 593.663 238.761 593.663C271.437 593.663 296.225 624.076 296.225 666.315C296.225 714.751 262.986 747.979 212.282 747.979C206.648 747.979 197.07 747.416 186.93 746.853" fill="black"/>
</g>
<defs>
<clipPath id="clip0_1039_830">
<rect width="800" height="607" fill="white" transform="translate(112 208)"/>
</clipPath>
</defs>
</svg>
