<svg width="1024" height="1024" viewBox="0 0 1024 1024" fill="none" xmlns="http://www.w3.org/2000/svg">
<rect width="1024" height="1024" fill="#F5F5F5"/>
<path d="M520.032 121C314.602 121 148.09 287.539 148.09 492.969C148.09 531.862 154.054 569.336 165.12 604.575L182.284 587.008C173.965 557.07 169.525 525.54 169.525 492.969C169.525 299.376 326.451 142.435 520.032 142.435C713.624 142.435 870.565 299.376 870.565 492.969C870.565 586.95 833.563 672.284 773.356 735.226L789.849 748.979C853.154 682.292 892 592.171 892 492.969C892 287.539 725.461 121 520.032 121ZM210.138 656.148L199.018 680.323C223.691 722.791 256.59 759.887 295.529 789.485V762.06C260.574 732.791 231.452 696.846 210.138 656.148Z" fill="#ED1C24"/>
<path fill-rule="evenodd" clip-rule="evenodd" d="M693.62 761.718L732.491 724.186L768.683 761.718H720.427V800.588H771.361V828.734H720.427V868.944H768.683L732.491 903.797L693.62 863.587V761.718ZM589.072 761.718L629.282 724.186L666.813 761.718V863.587L641.346 891.733L613.201 862.248H642.685V764.396H611.85V903.797H589.072V761.718ZM481.835 763.057L520.706 724.186L559.576 761.718V866.265L519.366 903.797L481.835 866.265V763.057ZM235.072 768.709C250.098 778.707 323.765 833.478 249.951 902.458H132L180.256 860.909C180.256 860.909 203.715 868.944 225.153 846.836C225.153 846.836 240.565 817.34 220.466 801.927C220.466 801.927 204.373 783.156 173.549 767.075C173.549 767.075 129.322 746.975 148.082 683.965C148.082 683.965 161.485 587.464 282.125 535.179L289.207 532.625C292.839 532.501 200.355 594.16 180.256 679.948C180.256 679.948 174.219 699.389 180.256 726.195C180.256 726.195 180.256 744.286 203.715 756.35C203.715 756.35 224.484 765.066 231.191 766.405L235.072 768.709ZM320.985 903.797H347.803V174.619L320.985 198.736V903.797ZM367.902 173.2V903.797H396.047L396.104 603.546V591.482L428.222 903.797H453.689V143.784H428.222C428.222 143.784 427.552 484.244 428.222 484.244L392.03 158.526L367.902 173.2ZM504.624 765.735H535.448V863.587H504.624V765.735ZM799.507 760.367L835.699 724.186L875.909 765.735V799.249H853.12V763.057H820.957V862.248H851.781V831.412H875.909V864.926L837.038 903.797L799.507 866.265V760.367Z" fill="black"/>
<path fill-rule="evenodd" clip-rule="evenodd" d="M507.302 470.841L505.963 457.438V448.052L505.293 441.356L508.641 437.339L514.009 436V470.841C514.009 470.841 524.053 468.163 532.769 468.832L541.485 471.511L543.494 475.54L542.155 479.557L538.138 482.236L532.1 484.914C532.1 484.914 518.027 489.613 526.732 504.355L524.053 507.703L519.366 508.373L513.34 507.703C513.34 507.703 509.311 507.033 509.311 513.071V564.006L508.641 570.032V576.07L505.963 579.418L503.954 576.07L502.615 571.371V523.126C502.615 523.126 505.293 512.401 497.258 513.741C497.258 513.741 493.899 509.712 498.586 507.703C498.586 507.703 504.624 504.355 506.633 499.668C506.633 499.668 507.302 498.317 506.633 492.291C506.633 492.291 507.972 482.236 496.577 489.613C496.577 489.613 483.174 497.648 480.496 511.732C480.496 511.732 474.469 515.08 475.139 498.998C475.139 498.998 477.148 488.273 481.165 481.566C481.165 481.566 488.542 473.531 487.873 483.575C487.873 483.575 488.542 489.613 494.568 484.244C494.568 484.244 501.945 476.879 505.963 474.87L507.302 470.841ZM509.98 487.604C509.98 487.604 509.98 482.236 517.357 482.236C517.357 482.236 521.375 486.265 515.349 490.282L511.331 491.621L509.98 487.604ZM564.274 468.832C564.274 468.832 581.695 460.116 589.072 456.768C589.072 456.768 597.777 454.76 606.493 457.438C606.493 457.438 615.209 458.108 616.548 472.18C616.548 472.18 619.227 498.998 619.896 507.703C619.896 507.703 621.235 513.071 618.557 519.767C618.557 519.767 617.887 528.483 615.209 533.17L611.18 541.886C611.18 541.886 608.502 549.933 602.475 546.573C602.475 546.573 597.107 542.556 603.815 535.179C603.815 535.179 611.18 530.492 610.511 521.776C610.511 521.776 609.841 496.308 608.502 493.63L605.154 474.87C605.154 474.87 605.823 460.786 590.411 464.145L578.347 468.832L572.31 471.511L568.292 473.531L564.274 472.85V468.832ZM551.541 487.604L548.862 495.639V510.381C548.862 510.381 550.871 519.097 544.164 521.106L543.494 526.474V531.831L546.173 535.86L550.19 533.17L553.55 529.822L554.219 523.785V494.969L555.558 490.952L554.889 487.604H551.541ZM567.622 486.934L577.666 486.265C577.666 486.265 579.017 479.557 576.327 475.54C576.327 475.54 585.043 478.218 587.052 485.584V494.969C587.052 494.969 584.374 501.677 593.09 498.317C593.09 498.317 603.815 486.934 597.777 498.998C597.777 498.998 593.09 503.016 589.742 507.033C589.742 507.033 587.722 512.401 593.09 516.419L594.429 524.466L597.107 527.814L596.438 531.161L593.09 532.501L593.759 535.86L599.116 537.869L593.09 539.208L591.081 541.886L581.695 542.556L574.999 540.547L568.962 539.878L563.605 539.208L564.944 536.53C564.944 536.53 581.695 527.814 584.374 519.097C584.374 519.097 587.052 507.033 580.356 501.007C580.356 501.007 574.999 508.373 570.301 513.741C570.301 513.741 577.008 515.08 580.356 514.41C580.356 514.41 574.33 520.437 565.614 525.135C565.614 525.135 556.898 527.813 560.246 520.437C560.246 520.437 567.622 515.08 568.292 508.373L566.283 505.694L565.614 499.668L568.962 498.317L568.292 494.969L562.935 495.639V492.96L564.274 488.943L567.622 486.934ZM589.072 476.879L592.42 480.896L597.107 480.227L596.438 476.209L593.759 473.531L590.411 471.511L587.722 472.18L589.072 476.879ZM655.419 469.502C655.419 469.502 666.813 463.476 694.959 460.116L699.646 459.447L694.959 464.815L690.941 469.502L686.243 472.85L678.877 474.87L670.831 476.209L662.784 473.531L658.097 470.172L655.419 469.502ZM666.144 481.566L660.776 484.914L656.758 488.273L654.749 492.291L654.08 501.007L651.401 509.042L648.723 517.758L645.364 525.805L642.685 531.831L639.337 539.208L636.647 543.895L633.299 549.933L628.612 557.298L624.595 562.666L621.235 568.693L617.887 573.391L613.87 578.748L609.841 583.435L605.823 588.803L602.475 593.491L599.797 598.859L607.832 592.821L613.2 587.464L617.218 582.096L619.896 578.078L623.244 573.391L626.604 567.354L629.951 563.336L632.63 557.968L635.978 551.942L638.656 546.573L641.346 542.556L643.355 538.538L645.364 535.179L646.703 532.501L648.723 529.822L652.071 533.17L655.419 535.86C655.419 535.86 665.474 537.869 666.144 529.822V525.805L663.454 523.785C663.454 523.785 664.124 513.741 671.5 515.08L678.877 516.419C678.877 516.419 690.272 513.741 686.243 523.785L681.556 529.153C681.556 529.153 676.857 537.869 690.272 532.501L698.977 529.822L704.345 527.144L698.977 525.805C698.977 525.805 691.611 525.135 696.298 515.08L700.316 509.712L704.345 505.694C704.345 505.694 709.032 496.308 697.637 501.007L692.281 503.685C692.281 503.685 684.234 511.732 675.529 509.712L668.822 509.042L664.124 509.712C664.124 509.712 656.088 508.373 660.106 498.998L662.784 494.969L664.124 490.282L664.805 486.934L667.483 484.914L666.144 481.566ZM751.25 465.484L747.902 468.163L745.224 471.511L741.195 479.557L738.517 482.905L735.169 486.265L732.49 490.282L728.473 493.63L725.783 496.978L723.105 499.668H719.087L716.409 501.677L715.739 505.025L720.426 505.694L725.113 505.025C725.113 505.025 732.49 503.685 734.499 497.648C734.499 497.648 739.186 492.961 739.856 498.998V511.732C739.856 511.732 741.876 517.758 735.838 521.776L731.151 526.474L727.803 529.822H735.838C735.838 529.822 745.894 528.483 747.902 515.749V505.025L747.233 500.337C747.233 500.337 747.902 493.63 743.215 491.621C743.215 491.621 737.847 489.613 743.215 484.244L745.224 479.557L747.902 474.87L751.25 471.511L755.949 468.832L759.297 466.824L757.958 464.145L754.61 464.815L751.25 465.484ZM774.039 481.566C774.039 481.566 777.387 491.621 763.984 494.3L760.636 494.969V498.317H765.323L768.013 498.998L768.683 507.703V516.419C768.683 516.419 768.682 532.501 785.434 531.831L798.837 531.161H805.544C805.544 531.161 817.597 530.492 830.342 519.097L839.058 512.401L843.734 506.364C843.734 506.364 852.45 500.337 847.093 491.621L844.415 485.584L845.084 474.2L843.734 466.154L841.725 462.806L840.386 466.824L839.058 472.18V484.244L838.377 491.621L839.058 496.978V502.346L837.708 505.694L835.029 509.712L831.012 513.741L825.643 517.089L820.287 521.106L816.269 523.126L810.901 525.135L804.875 525.805H798.167L792.811 524.466C792.811 524.466 778.057 520.437 776.729 508.373V495.639L780.747 491.621L788.112 485.584L796.159 479.557L801.515 475.54L806.214 472.18L809.562 468.832L806.883 465.484L802.185 466.154L798.837 467.493L796.159 470.841L791.46 474.87C791.46 474.87 784.095 480.227 781.416 475.54L780.747 470.841L777.387 473.531L774.709 476.209L774.039 481.566Z" fill="black"/>
</svg>
